<svg width="48" height="48" viewBox="0 0 48 48" fill="none" xmlns="http://www.w3.org/2000/svg">
<g clip-path="url(#clip0)">
<path d="M47.8464 20.2099L40.1599 8.4888C39.9865 8.22462 39.692 8.06543 39.376 8.06543H8.66043C8.34514 8.06543 8.05105 8.22387 7.87761 8.48721L0.178674 20.1733C0.142018 20.2239 0.110237 20.2784 0.0837057 20.3367C-0.068263 20.6718 -0.010138 21.0647 0.232299 21.3415L4.13464 25.7971C4.4758 26.1866 5.06793 26.2258 5.45736 25.8848C5.8468 25.5436 5.88599 24.9514 5.54493 24.5621L3.00458 21.6613H15.6141L21.9503 43.2939L14.7902 35.1184C14.4491 34.7289 13.8568 34.6897 13.4675 35.0307C13.078 35.3719 13.0388 35.9641 13.3799 36.3535L23.2977 47.6776C23.4756 47.8809 23.7328 47.9975 24.0029 47.9975C24.2731 47.9975 24.5301 47.8809 24.708 47.6775L35.2671 35.6183C35.6082 35.2287 35.5689 34.6365 35.1793 34.2956C34.7897 33.9544 34.1975 33.9937 33.8566 34.3833L26.0556 43.2926L32.3916 21.6612H44.9959L39.1662 28.3194C38.8251 28.7089 38.8643 29.3011 39.254 29.6421C39.4318 29.7979 39.6519 29.8743 39.8711 29.8743C40.1319 29.8743 40.3914 29.766 40.5767 29.5543L47.7679 21.3414C48.0452 21.0247 48.0773 20.5619 47.8464 20.2099ZM2.67871 19.7865L8.65855 10.7096L14.6112 19.7865H2.67871ZM10.3961 9.94034H22.267L16.3316 18.9911L10.3961 9.94034ZM24.0028 10.7123L29.9536 19.7865H18.052L24.0028 10.7123ZM24.0028 43.6316L17.5676 21.6613H30.438L24.0028 43.6316ZM31.6894 19.0146L25.7386 9.94034H37.6403L31.6894 19.0146ZM33.4251 19.7865L39.376 10.7123L45.3267 19.7865H33.4251Z" fill="#FA1D52"/>
<path d="M14.7374 30.6578C12.3193 30.6578 10.352 28.6905 10.352 26.2724C10.352 25.7547 9.93223 25.335 9.41455 25.335C8.89686 25.335 8.47714 25.7547 8.47714 26.2724C8.47714 28.6905 6.5098 30.6578 4.0917 30.6578C3.57411 30.6578 3.1543 31.0775 3.1543 31.5952C3.1543 32.1129 3.57411 32.5326 4.0917 32.5326C6.5098 32.5326 8.47714 34.5 8.47714 36.9181C8.47714 37.4357 8.89695 37.8555 9.41455 37.8555C9.93214 37.8555 10.352 37.4357 10.352 36.9181C10.352 34.5 12.3193 32.5326 14.7374 32.5326C15.2551 32.5326 15.6748 32.1129 15.6748 31.5952C15.6748 31.0775 15.2551 30.6578 14.7374 30.6578ZM9.41455 33.6259C8.90352 32.8026 8.20714 32.1063 7.38392 31.5952C8.20714 31.0842 8.90342 30.3879 9.41455 29.5645C9.92558 30.3878 10.622 31.0841 11.4452 31.5952C10.622 32.1063 9.92567 32.8025 9.41455 33.6259Z" fill="#FA1D52"/>
<path d="M47.0636 3.75255C45.513 3.75255 44.2514 2.49096 44.2514 0.940336C44.2514 0.422648 43.8316 0.00292969 43.314 0.00292969C42.7964 0.00292969 42.3766 0.422648 42.3766 0.940336C42.3766 2.49096 41.115 3.75255 39.5644 3.75255C39.0468 3.75255 38.627 4.17227 38.627 4.68996C38.627 5.20765 39.0468 5.62737 39.5644 5.62737C41.115 5.62737 42.3766 6.88896 42.3766 8.43959C42.3766 8.95727 42.7964 9.37699 43.314 9.37699C43.8316 9.37699 44.2514 8.95727 44.2514 8.43959C44.2514 6.88896 45.513 5.62737 47.0636 5.62737C47.5812 5.62737 48.001 5.20765 48.001 4.68996C48.001 4.17227 47.5812 3.75255 47.0636 3.75255ZM43.314 5.63027C43.0465 5.27421 42.7297 4.95743 42.3737 4.68996C42.7297 4.42249 43.0465 4.10571 43.314 3.74965C43.5815 4.10571 43.8982 4.42249 44.2543 4.68996C43.8982 4.95734 43.5814 5.27421 43.314 5.63027Z" fill="#FA1D52"/>
<path d="M37.7602 31.4412C37.5859 31.2659 37.344 31.1665 37.0976 31.1665C36.8509 31.1665 36.6102 31.2659 36.4348 31.4412C36.2605 31.6156 36.1602 31.8574 36.1602 32.1039C36.1602 32.3504 36.2604 32.5923 36.4348 32.7666C36.6092 32.941 36.8509 33.0413 37.0976 33.0413C37.3441 33.0413 37.5859 32.941 37.7602 32.7666C37.9346 32.5923 38.035 32.3504 38.035 32.1039C38.035 31.8574 37.9347 31.6156 37.7602 31.4412Z" fill="#FA1D52"/>
</g>
<defs>
<clipPath id="clip0">
<rect width="48" height="48" fill="white"/>
</clipPath>
</defs>
</svg>
