<svg fill="none" height="16" viewBox="0 0 16 16" width="16" xmlns="http://www.w3.org/2000/svg" xmlns:xlink="http://www.w3.org/1999/xlink"><clipPath id="a"><path d="m0 0h16v16h-16z"/></clipPath><g clip-path="url(#a)"><path d="m16 2.66663h-16v10.66677h16z" fill="#f0f0f0"/><path d="m9 2.66663h-2v4.33331h-7v2h7v4.33336h2v-4.33336h7v-2h-7z" fill="#d80027"/><g fill="#0052b4"><path d="m12.306 9.85492 3.6942 2.05238v-2.05238z"/><path d="m9.73926 9.85492 6.26084 3.47828v-.9836l-4.4904-2.49468z"/><path d="m14.3324 13.3331-4.59314-2.552v2.552z"/></g><path d="m9.73926 9.85492 6.26084 3.47828v-.9836l-4.4904-2.49468z" fill="#f0f0f0"/><path d="m9.73926 9.85492 6.26084 3.47828v-.9836l-4.4904-2.49468z" fill="#d80027"/><path d="m2.82316 9.85492-2.82316 1.56848v-1.56848z" fill="#0052b4"/><path d="m6.26067 10.2972v3.036h-5.464283z" fill="#0052b4"/><path d="m4.49041 9.85492-4.49041 2.49468v.9836l6.26088-3.47828z" fill="#d80027"/><path d="m3.69422 6.14484-3.69422-2.05237v2.05237z" fill="#0052b4"/><path d="m6.26088 6.14488-6.26088-3.47825v.98356l4.49041 2.49469z" fill="#0052b4"/><path d="m1.66748 2.66663 4.59319 2.552v-2.552z" fill="#0052b4"/><path d="m6.26088 6.14488-6.26088-3.47825v.98356l4.49041 2.49469z" fill="#f0f0f0"/><path d="m6.26088 6.14488-6.26088-3.47825v.98356l4.49041 2.49469z" fill="#d80027"/><path d="m13.177 6.14485 2.8232-1.56843v1.56843z" fill="#0052b4"/><path d="m9.73926 5.70253v-3.03597h5.46424z" fill="#0052b4"/><path d="m11.5097 6.14488 4.4904-2.49469v-.98356l-6.26084 3.47825z" fill="#d80027"/></g></svg>