<svg fill="none" height="16" viewBox="0 0 16 16" width="16"><path d="m15.8966 7.06612c-.3691-.16891-.9116-.9639-1.4873-1.8049-1.0439-1.5288-2.2275-3.26122-3.5028-3.26122-1.68507.0-2.60448 1.15516-2.92257 1.65364-.35594-.45162-1.32981-1.49905-2.69892-1.49905-1.0749.0-2.38543 1.7366-3.54042 3.26871-.66697.88369-1.296832 1.71838-1.633237 1.84764-.0634566.02481-.10716186.09036-.11107012.16531-.00390826.07523.03294702.14633.09400842.17858.5648907.30064 1.1439887 1.11214 1.8143987 2.05128.93794 1.31499 2.00141 2.80519 3.41397 3.41689.86007.372 1.78435.5534 2.82681.5534.99728.0 1.96363-.172 2.69353-.3208 1.2549-.2569 3.1313-3.072 4.2518-4.75451.3579-.5379.7286-1.09368.8218-1.16146.0542-.03501.0874-.10279.083-.1739-.0039-.07119-.0434-.13319-.103-.15961zm-1.7324.54971c-.7456.55635-2.6098 1.6886-5.59554 1.84351-3.08559.15758-5.36432-1.073-6.34037-1.72663.66448-.17499 1.22799-.5277 1.7348-.84542.57468-.35959 1.07149-.67043 1.58953-.67043.64062.0 1.27195.23423 1.77901.42269.40697.15126.72992.2698.96702.24997.21336-.01598.4961-.11023.82322-.22018.49757-.16645 1.11713-.37364 1.71433-.37364.4292.0.9795.28854 1.5619.59439.5782.30472 1.1723.61664 1.7661.72574z" fill="currentcolor"/></svg>