<svg fill="none" height="12" viewBox="0 0 12 12" width="12" xmlns="http://www.w3.org/2000/svg"><path d="m10.9829.96496c-1.3152-1.286859-3.41777-1.286579-4.73264.000636l-5.514678 5.514704c-.997164 1.02068-.978107 2.65643.042567 3.6536 1.003881.9808 2.607151.9808 3.611031 0l4.99363-4.99363c.64919-.64918.64919-1.70174 0-2.35092-.64918-.64918-1.70173-.64918-2.35091 0l-4.77653 4.77651c-.1666.1725-.16182.44739.01069.61399.16828.16253.43505.16253.60333 0l4.7765-4.7765c.31674-.30344.8195-.29262 1.1229.02412.29425.30717.29425.79163 0 1.09881l-4.9936 4.9936c-.6746.66502-1.76059.65722-2.42559-.01738-.658288-.66777-.658288-1.74043 0-2.40821l5.51468-5.5147c.98231-.982664 2.57519-.982944 3.55782-.00066.9827.98228.983 2.57519.0007 3.55785l-5.51471 5.51472c-.18215.156-.20337.4301-.04737.6122.15599.1822.43011.2034.61226.0474.01699-.0145.03282-.0304.04737-.0474l5.51475-5.51466c1.3066-1.33548 1.2833-3.4774-.0522-4.78408z" fill="#fff" opacity=".6"/></svg>