<svg height="32" viewBox="0 0 32 32" width="32" fill="currentcolor" xmlns="http://www.w3.org/2000/svg"><path clip-rule="evenodd" d="m10.7071 9.29289c-.3905-.39052-1.02368-.39052-1.41421.0-.39052.39053-.39052 1.02371.0 1.41421l5.65691 5.6569-5.6568 5.6568c-.39053.3905-.39053 1.0237.0 1.4142.39052.3906 1.0237.3906 1.4142.0l5.6568-5.6568 5.6568 5.6568c.3905.3906 1.0237.3906 1.4142.0.3906-.3905.3906-1.0237.0-1.4142l-5.6568-5.6568 5.6569-5.6569c.3906-.3905.3906-1.02368.0-1.41421-.3905-.39052-1.0237-.39052-1.4142.0l-5.6569 5.65691z" fill-rule="evenodd"/></svg>