<svg width="48" height="48" viewBox="0 0 48 48" fill="none" xmlns="http://www.w3.org/2000/svg"><g clip-path="url(#clip0)"><path d="M47.8464 20.21 40.1599 8.4889C39.9865 8.22471 39.692 8.06552 39.376 8.06552H8.66043C8.34514 8.06552 8.05105 8.22396 7.87761 8.4873L.178674 20.1734C.142018 20.224.110237 20.2785.0837057 20.3368-.068263 20.6719-.010138 21.0648.232299 21.3416L4.13464 25.7972C4.4758 26.1867 5.06793 26.2259 5.45736 25.8849 5.8468 25.5437 5.88599 24.9515 5.54493 24.5621L3.00458 21.6614H15.6141L21.9503 43.294 14.7902 35.1185C14.4491 34.729 13.8568 34.6898 13.4675 35.0308 13.078 35.372 13.0388 35.9642 13.3799 36.3536L23.2977 47.6777C23.4756 47.881 23.7328 47.9976 24.0029 47.9976 24.2731 47.9976 24.5301 47.881 24.708 47.6776L35.2671 35.6184C35.6082 35.2288 35.5689 34.6366 35.1793 34.2956 34.7897 33.9545 34.1975 33.9938 33.8566 34.3834L26.0556 43.2927 32.3916 21.6613H44.9959L39.1662 28.3195C38.8251 28.709 38.8643 29.3012 39.254 29.6422 39.4318 29.798 39.6519 29.8744 39.8711 29.8744 40.1319 29.8744 40.3914 29.7661 40.5767 29.5544L47.7679 21.3415C48.0452 21.0248 48.0773 20.562 47.8464 20.21zM2.67871 19.7866 8.65855 10.7096l5.95265 9.077H2.67871zM10.3961 9.94043H22.267L16.3316 18.9911 10.3961 9.94043zM24.0028 10.7124 29.9536 19.7866H18.052L24.0028 10.7124zm0 32.9193L17.5676 21.6614H30.438L24.0028 43.6317zM31.6894 19.0147 25.7386 9.94043H37.6403L31.6894 19.0147zM33.4251 19.7866 39.376 10.7124 45.3267 19.7866H33.4251z" fill="currentcolor"/><path d="M14.7374 30.6576C12.3193 30.6576 10.352 28.6902 10.352 26.2722 10.352 25.7545 9.93223 25.3347 9.41455 25.3347 8.89686 25.3347 8.47714 25.7545 8.47714 26.2722 8.47714 28.6902 6.5098 30.6576 4.0917 30.6576 3.57411 30.6576 3.1543 31.0773 3.1543 31.595 3.1543 32.1127 3.57411 32.5324 4.0917 32.5324 6.5098 32.5324 8.47714 34.4997 8.47714 36.9178 8.47714 37.4355 8.89695 37.8552 9.41455 37.8552 9.93214 37.8552 10.352 37.4355 10.352 36.9178 10.352 34.4997 12.3193 32.5324 14.7374 32.5324 15.2551 32.5324 15.6748 32.1127 15.6748 31.595 15.6748 31.0773 15.2551 30.6576 14.7374 30.6576zM9.41455 33.6257C8.90352 32.8024 8.20714 32.1061 7.38392 31.595 8.20714 31.084 8.90342 30.3877 9.41455 29.5643 9.92558 30.3876 10.622 31.0839 11.4452 31.595 10.622 32.1061 9.92567 32.8023 9.41455 33.6257z" fill="currentcolor"/><path d="M47.0636 3.75234C45.513 3.75234 44.2514 2.49075 44.2514.940122 44.2514.422435 43.8316.00271606 43.314.00271606 42.7964.00271606 42.3766.422435 42.3766.940122 42.3766 2.49075 41.115 3.75234 39.5644 3.75234 39.0468 3.75234 38.627 4.17206 38.627 4.68975 38.627 5.20743 39.0468 5.62715 39.5644 5.62715 41.115 5.62715 42.3766 6.88875 42.3766 8.43937 42.3766 8.95706 42.7964 9.37678 43.314 9.37678 43.8316 9.37678 44.2514 8.95706 44.2514 8.43937 44.2514 6.88875 45.513 5.62715 47.0636 5.62715 47.5812 5.62715 48.001 5.20743 48.001 4.68975 48.001 4.17206 47.5812 3.75234 47.0636 3.75234zM43.314 5.63006C43.0465 5.274 42.7297 4.95722 42.3737 4.68975 42.7297 4.42228 43.0465 4.1055 43.314 3.74943 43.5815 4.1055 43.8982 4.42228 44.2543 4.68975 43.8982 4.95712 43.5814 5.274 43.314 5.63006z" fill="currentcolor"/><path d="M37.7602 31.4412C37.5859 31.2658 37.344 31.1665 37.0976 31.1665 36.8509 31.1665 36.6102 31.2658 36.4348 31.4412 36.2605 31.6155 36.1602 31.8574 36.1602 32.1039 36.1602 32.3503 36.2604 32.5922 36.4348 32.7666 36.6092 32.941 36.8509 33.0413 37.0976 33.0413 37.3441 33.0413 37.5859 32.941 37.7602 32.7666 37.9346 32.5922 38.035 32.3503 38.035 32.1039 38.035 31.8574 37.9347 31.6155 37.7602 31.4412z" fill="currentcolor"/></g><defs><clipPath id="clip0"><path d="M0 0h48v48H0z" fill="#fff"/></clipPath></defs></svg>