<svg width="48" height="48" viewBox="0 0 48 48" fill="none" 
xmlns="http://www.w3.org/2000/svg">
<path 
d="M39.762 23.4541C39.6909 23.3547 37.9864 20.9921 35.2194 18.6029C31.4952 15.3872 27.6155 13.6875 24 13.6875C20.3844 13.6875 16.5047 15.3872 12.7805 18.6029C10.0135 20.9921 8.30902 23.3547 8.23786 23.4541C8.00405 23.7804 8.00405 24.2196 8.23786 24.5459C8.30902 24.6453 10.0135 27.0079 12.7805 29.3971C16.5047 32.6128 20.3844 34.3125 24 34.3125C27.6155 34.3125 31.4952 32.6128 35.2194 29.3971C37.9864 27.0079 39.6909 24.6453 39.762 24.5459C39.996 24.2196 39.996 23.7804 39.762 23.4541ZM24 32.4375C17.4239 32.4375 11.7399 25.9471 10.1827 23.9994C11.7378 22.0506 17.4114 15.5625 24 15.5625C30.576 15.5625 36.2598 22.0526 37.8172 24.0006C36.2621 25.9494 30.5885 32.4375 24 32.4375Z" fill="currentColor"/>
<path d="M24 17.4375C20.3814 17.4375 17.4375 20.3814 17.4375 24C17.4375 27.6186 20.3814 30.5625 24 30.5625C27.6186 30.5625 30.5625 27.6186 30.5625 24C30.5625 20.3814 27.6186 17.4375 24 17.4375ZM24 28.6875C21.4153 28.6875 19.3125 26.5847 19.3125 24C19.3125 21.4153 21.4153 19.3125 24 19.3125C26.5847 19.3125 28.6875 21.4153 28.6875 24C28.6875 26.5847 26.5847 28.6875 24 28.6875Z" fill="currentColor"/>
<path d="M24 6.1875C23.4822 6.1875 23.0625 6.60722 23.0625 7.125V10.875C23.0625 11.3928 23.4822 11.8125 24 11.8125C24.5178 11.8125 24.9375 11.3928 24.9375 10.875V7.125C24.9375 6.60722 24.5178 6.1875 24 6.1875Z" fill="currentColor"/>
<path d="M15.3835 14.0566L12.7313 11.4045C12.3652 11.0384 11.7716 11.0384 11.4054 11.4045C11.0393 11.7705 11.0393 12.3642 11.4054 12.7304L14.0576 15.3825C14.2407 15.5656 14.4807 15.6571 14.7206 15.6571C14.9605 15.6571 15.2005 15.5656 15.3835 15.3825C15.7496 15.0165 15.7496 14.4228 15.3835 14.0566Z" fill="currentColor"/>
<path d="M36.5964 11.4045C36.2303 11.0384 35.6367 11.0384 35.2705 11.4045L32.6183 14.0566C32.2522 14.4227 32.2522 15.0164 32.6183 15.3825C32.8014 15.5656 33.0413 15.6571 33.2812 15.6571C33.5211 15.6571 33.7611 15.5656 33.9442 15.3825L36.5964 12.7304C36.9625 12.3643 36.9625 11.7706 36.5964 11.4045Z" fill="currentColor"/>
<path d="M41.134 6.86466C36.7073 2.43787 30.8216 0 24.5612 0C20.0024 0 15.5824 1.31006 11.7793 3.78862C11.3455 4.07137 11.223 4.65216 11.5057 5.08594C11.7885 5.51972 12.3693 5.64216 12.803 5.3595C16.3008 3.07997 20.3668 1.875 24.5612 1.875C36.4507 1.875 46.1237 11.5479 46.1237 23.4375C46.1237 25.2617 45.8951 27.0757 45.4445 28.8292C45.3156 29.3306 45.6176 29.8416 46.119 29.9705C46.1973 29.9906 46.2758 30.0002 46.3531 30.0002C46.7707 30.0002 47.1516 29.719 47.2604 29.2958C47.7503 27.3901 47.9987 25.419 47.9987 23.4375C47.9987 17.1771 45.5608 11.2913 41.134 6.86466Z" fill="currentColor"/>
<path d="M36.4929 42.9142C36.2102 42.4805 35.6293 42.358 35.1956 42.6407C31.6978 44.9202 27.6319 46.1252 23.4375 46.1252C11.5479 46.1252 1.875 36.4522 1.875 24.5627C1.875 22.7385 2.10356 20.9245 2.55422 19.171C2.68313 18.6696 2.38106 18.1586 1.87969 18.0297C1.37812 17.9009 0.867188 18.2029 0.738281 18.7043C0.248344 20.6101 0 22.5812 0 24.5627C0 30.8231 2.43787 36.7088 6.86466 41.1355C11.2914 45.5622 17.1771 48.0002 23.4375 48.0002C27.9963 48.0002 32.4162 46.6901 36.2194 44.2116C36.6532 43.9288 36.7757 43.348 36.4929 42.9142Z" fill="currentColor"/>
<path d="M8.47591 8.97591C7.124 8.97591 6.02409 7.876 6.02409 6.52409C6.02409 6.23466 5.78943 6 5.5 6C5.21057 6 4.97591 6.23466 4.97591 6.52409C4.97591 7.876 3.876 8.97591 2.52409 8.97591C2.23471 8.97591 2 9.21057 2 9.5C2 9.78943 2.23471 10.0241 2.52409 10.0241C3.876 10.0241 4.97591 11.124 4.97591 12.4759C4.97591 12.7653 5.21062 13 5.5 13C5.78938 13 6.02409 12.7653 6.02409 12.4759C6.02409 11.124 7.124 10.0241 8.47591 10.0241C8.76534 10.0241 9 9.78943 9 9.5C9 9.21057 8.76534 8.97591 8.47591 8.97591ZM5.5 10.6353C5.21429 10.175 4.82496 9.78576 4.36471 9.5C4.82496 9.21429 5.21424 8.82501 5.5 8.36466C5.78571 8.82496 6.17504 9.21424 6.63529 9.5C6.17504 9.78576 5.78576 10.175 5.5 10.6353Z" fill="currentColor"/>
<path d="M46.4759 36.9759C45.124 36.9759 44.0241 35.876 44.0241 34.5241C44.0241 34.2347 43.7894 34 43.5 34C43.2106 34 42.9759 34.2347 42.9759 34.5241C42.9759 35.876 41.876 36.9759 40.5241 36.9759C40.2347 36.9759 40 37.2106 40 37.5C40 37.7894 40.2347 38.0241 40.5241 38.0241C41.876 38.0241 42.9759 39.124 42.9759 40.4759C42.9759 40.7653 43.2106 41 43.5 41C43.7894 41 44.0241 40.7653 44.0241 40.4759C44.0241 39.124 45.124 38.0241 46.4759 38.0241C46.7653 38.0241 47 37.7894 47 37.5C47 37.2106 46.7653 36.9759 46.4759 36.9759ZM43.5 38.6353C43.2143 38.175 42.825 37.7858 42.3647 37.5C42.825 37.2143 43.2142 36.825 43.5 36.3647C43.7857 36.825 44.175 37.2142 44.6353 37.5C44.175 37.7858 43.7858 38.175 43.5 38.6353Z" fill="currentColor"/>
</svg>

