<svg viewBox="0 0 50 38" xmlns="http://www.w3.org/2000/svg"><path d="m0 0h50v38H0z" fill="none"/><g fill="#fa1d52"><path d="m27.23 6c0 .24-.65.19-.79.26l.18.35a5.17 5.17.0 0 1-2.18.19c-1.07.0-2.13.14-3.2.13a32.7 32.7.0 0 0-5.08.72 84.62 84.62.0 0 0-8.8 1.93 22 22 0 0 1-2.9.73c-1 .14-1.69.13-2.32-.74-.42-.57-.24-.67.32-.88.19-.07.38-.18.57-.23.74-.22 1.53-.31 2.28-.53a66.52 66.52.0 0 1 9.89-2.15c1.94-.27 3.8-.58 5.8-.72.77-.06 6.5-.42 6.23.94zm-4.7-.53c.36.0 1 .25 1.27-.13a3.87 3.87.0 0 0-1.27.13zm-.26.0c.07.0.37.07.13-.17a.31.31.0 0 0-.13.21zm2 0v-.13c-.27.0-.27.29-.03.22zm.18-.13h-.13c.07.12.15.12.26.0zm-3.34.13a3.11 3.11.0 0 0 1.1-.09 1.47 1.47.0 0 0-1.13.18zm3.65.0h1c-.23-.13-.9-.19-1.03.09zm-5 0a29.66 29.66.0 0 0-3.64.58c1.58-.17 3.18-.29 4.74-.58-.19-.14-.86.04-1.1.04zm6.33.18c.05-.15-.25-.26-.31-.13a1.69 1.69.0 0 0 .31.17zm.22-.13s-.13.0-.13.0zm.17.0a.1.1.0 0 0-.13.0c-.03.15.02.17.13.08zm-11.24.7c.17-.16.75.09.83-.26-.07.11-.91.19-.83.34zm-1.41.0a.51.51.0 0 0 0 .27 5.14 5.14.0 0 1 1.27-.27c-.1-.15-1.1.13-1.27.08zm-.35.31c.13.07.2.0.22-.09-.14-.01-.21.02-.22.17zm-.22.0c-.08.0-.13.0-.13.0s.13.07.13.04zm-.3.09s-.16.0.04.04zm-9.27 21a6.06 6.06.0 0 0-.58 1.38 1.55 1.55.0 0 0-.21.47c.1-.1.45-.85.57-.79a3.6 3.6.0 0 1-.48 1c-.13.0-.62-.38-.62-.52-.28.18-.23.86-.53 1 .13.05.2.0.22-.13.27.13-.07.47-.17.57-.24-.12.28-.31-.22-.31.3.3-.41.75.22.75.0-.08-.24-.2-.18-.25s.22-.21.22.16c.25-.5.29-1.07.79-1.41a1.1 1.1.0 0 0 0 .44h.26a2 2 0 0 1-.25.58c-.15.11-.3-.08-.41.0s.05.64-.13.73c.06.0.18-.27.22-.31a1.86 1.86.0 0 1-.27 1c-.26.42.0.28-.47.4.48.48-.1 1.19-.09 1.87.0.34.0.66.3.8s.76.0 1 .06a15.85 15.85.0 0 0 1.82.0 13.72 13.72.0 0 0 2.3-.62 48.54 48.54.0 0 0 5.37-1.71c.18-.06.59-.26.71-.15s0 .45-.16.64a3.37 3.37.0 0 1-.29.35 2 2 0 0 0-.17.21 3.52 3.52.0 0 1-.4.24c-.22.14.0.06-.1.21a.85.85.0 0 1-.22-.09c-.06.17.34.15.44.19s0 .27.26.16c-.14.45-.72.6-1.1.75s-.79.44-1.18.62-.92.24-1.34.39a7 7 0 0 1-1.6.52 17.68 17.68.0 0 0-2.7.54 3 3 0 0 1-1.58.0 3 3 0 0 1-1.41-.58 5.81 5.81.0 0 1-1.26-2.78 5.3 5.3.0 0 1-.27-1.76 9.3 9.3.0 0 1 .57-1.86c.17-.53.26-1.07.48-1.58s.62-1.23.95-1.8c.42-.92.82-1.86 1.16-2.81-.28.23-.78-.05-.94-.31s-.12-.44-.54-.75c-.82-.6-.27-.91.5-1a4.94 4.94.0 0 0 1.67-.25c.35-.22.47-.93.62-1.36.94-2.68 1.88-5.37 2.64-8.1.1-.36.19-.72.26-1.08s0-.66.34-.86 1.33.27 1.61.74c.53.88-.25 2.38-.5 3.24-.2.68-.47 1.33-.69 2-.14.41-.27.62-.4 1-.55 1.14-.9 2.54-1.36 3.82 1.83-.29 3.67-.53 5.52-.64.45.0 1.93-.32 2.3-.06.52.37-.71.92-1 .92.17.17.0.71-.08.81s-.57.13-.74.16c-.93.19-1.86.33-2.78.49s-1.77.42-2.66.58c-.34.06-.69.0-1 .1s-.41.0-.58.25.08.34-.08.55a.43.43.0 0 1-.14-.3c-.14.14-.06.67-.48.57.26.1.48 1-.13.66.08.15.0.37.0.52s.28-.32.26-.3c.11.21.0.71-.35.65.23.57-.4 1.16-.53 1.67-.26.0-.2-.13-.21-.22zm.57-2.94c-.06.0-.5.36-.3.44s.3-.3.3-.37zm0 .62a1.32 1.32.0 0 1-.44-.05c0 .19.35.16.35.27.0-.13.31-.14.31-.4a.19.19.0 0 1-.26-.09c0 .17.23.27.04.34zm-.44.26h.18v-.09c-.21.03-.13.13-.18.16zm-.31.92a.42.42.0 0 1 .27.05c0-.28.0-.56.0-.84a2.25 2.25.0 0 0-.27.86zm.57-.44c0 .05-.13.0-.08.13zm-1.84 1c0-.27.25-.32.35-.52a.36.36.0 0 0-.35.6zm1.19-.3c-.09.0-.14.0-.14.0s.14.1.14.08zm-.4.74c.19-.12.37-.51.18-.7.0.3-.29.57-.21.78zm.48-.39a.17.17.0 0 0 0-.27.5.5.0 0 0 0 .35zm.49.22a.18.18.0 0 0 0-.27.36.36.0 0 0 0 .35zm-1.94-.18v.13c.14-.07.1.0.14-.17.0.08-.2.08-.14.12zm.94.87a.21.21.0 0 1-.26.0 3.66 3.66.0 0 1-.44 1.06c.18.12.16-.18.35-.18a.3.3.0 0 0-.09.35c.31-.1.15-.29.26-.53l.09.09c-.1-.21.1-.55.17-.73s.18.0.18-.37c-.22.23-.17-.2-.39-.08.02-.04.13.39.13.39zm-1.29.0a1.06 1.06.0 0 0-.08.35c.21.13-.28.07-.18.44a.84.84.0 0 0 .39-.44c-.29.0-.06-.48.0-.48zm.18.26c.1-.08.1-.14.0-.17s-.07.13.0.17zm.57.22h.13v-.08c-.16-.05-.08.05-.13.08zm-1.14.52s.12.0.09-.09-.05.09-.09.09zm1.05 1.45c.43-.21-.13.66.31-.22a.44.44.0 0 0-.31.23zm-.83.55c-.09.0-.13.0-.13.0s.13.06.13.0zm-.13.48a2.7 2.7.0 0 0-.36 1.19c.13-.08.24-.17.36-.26-.3-.06.0-1 .13-1.19-.25.04-.29.13-.13.29zm.26.0.22-.22c-.09-.14-.39.09-.22.25zm0 .62a.26.26.0 0 0-.13-.1q0 .13.09.13zm-.75 1.35s-.05-.39-.09-.35a.56.56.0 0 0 .09.35zm11.51.0a.22.22.0 0 0 .17-.09.26.26.0 0 0-.17.09zm-1.49.55c-.06.0-.09.0-.09.05s.09-.05.09-.05zm-.93.31.22-.09c-.14-.03-.23.0-.23.06zm-.17.0h.16v-.09c-.19-.03-.11.08-.16.11zm-1.14.35c.1.0.15.0.13-.14h-.09a.11.11.0 0 1-.04.16zm2.94.08a.83.83.0 0 0 .48-.17.3.3.0 0 0-.48.19zm-.79.36c.23.0.61-.13.74-.36-.21.13-.74-.02-.74.38zm-.62.13c.12.06.3.0.53-.13-.15-.1-.32-.1-.53.15zm-.44.13q.09.0.18-.09-.22.02-.18.11zm-5.88.13c-.09.0-.13.0-.13.05s.13.0.13-.03zm3 .48h.17a.14.14.0 0 0-.17-.13zm-3.4-7.62c-.13.0-.13.0.0-.17zm0 0 .15.08a.27.27.0 0 1-.28.19.57.57.0 0 0 .13-.27zm-1.27 1.14c.33.33-.24.87.0.0z"/><path d="m22.81 28.92.09-.08-.09-.05c-.11.06-.11.11.0.13zm6.82-23.72.22-.2c-.12.0-.16.13-.22.2zm-3.47 29.66c0-.07.12-.13-.09-.06q0 .09.09.06zm1.93-.75.08-.08-.08-.03c-.09.08-.09.12.0.11zm3.47-.84.09-.08c0-.19-.11.2-.09.08zm-1.71.48.08-.22h-.08s-.09.22.0.22zm-3.39 1c.11.0.21-.15.36-.13-.19-.1-.35-.06-.36.09zm-5.88-1.22a.85.85.0 0 0 .09-.22c-.06-.04-.19.18-.09.18zm2.28-6.37a.27.27.0 0 0 .12-.26c-.06-.04-.12.18-.12.22zm-2.45 7.12c.06-.11.17-.14.09-.3zm.15-.45c.07.0.0-.16.0-.17s-.01.07.0.13zm1.07 3.39c1.45.0 3.13-1 4.46-1.54.61-.23 1.9-1 2.58-.84.0-.36 2.61-.93 3.06-1s4.83-.55 4.83-.69c0-.67-6.72.89-7.29 1-.83.25-1.7.58-2.37.73s-1.67.86-2.46.71a2.32 2.32.0 0 0 .3-.26c.05.12.74-.16.72-.11.17-.36-.47.0-.63.0.0-.17.79-.52.79-.12.39-.07.18-.25.36-.39a2.41 2.41.0 0 1 1.4-.45c-.19.0-.24.11-.39.21.13.0.93-.17.93-.3a.8.8.0 0 0-.3.0c0-.33 1-.21 1.18-.23-.08.0.34-.16.32-.15s.13.0.19.0a1.63 1.63.0 0 1 .17-.11c.54-.17 1-.25 1.49-.42s1.53-.13 1.94-.46c0 0 .2.28.2.08h-.07l.07-.08c.21.0.0.22.25.0.0.26.44.11.48-.09.41.41 2 .1 2.59.09-4.48-1.12-9.24.91-13.37 2.47a12.13 12.13.0 0 1-1.67.56c-.4.1-.43.19-.55-.14-.27-.76.41-2.43.6-3.14.11-.45.35-.87.47-1.3a3.42 3.42.0 0 1 .3-.77c.12-.24.16-.58.26-.84.0.0-.09-.12-.06-.21s.3.0.1-.28c.28.05.14-.16.21-.39a4.93 4.93.0 0 1 .41-.83 1.16 1.16.0 0 0-.08.32c.15.15.39-1.13.44-1.28s.06-.3.0-.26.45-.29.45-.24c-.12-.22.23-.87.32-1.18s.19-.47.28-.68a1.23 1.23.0 0 0 0-.28c.52-.91 1.06-1.9 1.52-2.89.59-1.28 1.23-2.55 1.78-3.86.7-1.68 1.47-3.34 2.15-5 .39-1 .8-1.89 1.14-2.88.27-.76.43-1.53.65-2.3s.55-1.28.7-1.95c.22-1 .53-2.7.06-3.68-.09-.2-.34-.63-.55-.69s-.39.21-.52.0.19-.28.19-.41c-.14.0-.36.15-.42.0-.07.06-.28.4-.28.0a.55.55.0 0 0-.05.58l-.18-.31a9.82 9.82.0 0 1-.82 4.11c-.49 1.49-.88 3-1.36 4.51a68.2 68.2.0 0 1-2.66 6.44c-.85 2-1.73 3.87-2.54 5.77-.92 2.16-1.76 4.41-2.65 6.61a27.42 27.42.0 0 0-1.7 5.3 3.44 3.44.0 0 0 .19 2.26 3.08 3.08.0 0 0 2.44 1.24zm2.81-13.79a1.08 1.08.0 0 1 .09-.22v.09zm0-.88c0-.2.06-.29.26-.26.0-.03-.23.19-.26.22zm.39.21c-.11-.07-.19-.07-.22-.21a.38.38.0 0 0 .28.09zm.23-.08s-.06-.07.0-.17-.01.1.0.13zm.22-.67a.5.5.0 0 1 .17-.38 1.39 1.39.0 0 1-.17.37zm1.31-2.57c0-.09.0-.32.15-.32-.01.04-.06.28-.15.28zm-1.85 2.56a13.19 13.19.0 0 1 1-2.52c.37-.78.73-1.55 1.06-2.34l.18-.46c0-.06.48-.81.48-.67-.22.16-.26.63-.39.93-.23.53-.39 1-.64 1.5s-.43.87-.65 1.26-.24.55-.38.82c0 0-.22.56-.22.41.12.11.0.06.0.19-.32.0.06.27.25.3-.27.1-.57-.29-.47.21-.24.04-.06.37-.22.37zm2.73-6.2c-.09.0.11-.71.23-.71s-.08.75-.23.75zm2.85-8.3a1.09 1.09.0 0 1-.09-.23c.14.13.08.24.09.27zm-.52.26c-.1.0.0-.62.22-.67-.09-.21.23-1.39.41-1.39a3.87 3.87.0 0 1-.63 2.1zm-5.8 13.4c0-.13.13-.25.13-.15zm-1.2 2.94c-.07.0.19-.8.32-.8a1.41 1.41.0 0 1-.35.8zm-.71 1.8a.14.14.0 0 1 0-.17.12.12.0 0 1 .13.08zm-1.18 2.89c-.1.0.0-.16.05-.17s.04.12-.08.17zm-.82 2.21s-.11-.21.0-.21a.22.22.0 0 1 0 .21zm-.17 3.22c0-.11-.1-.26.08-.26a1.29 1.29.0 0 1-.08.28zm-.35 1.27a4.43 4.43.0 0 1 .43-3.2 2.23 2.23.0 0 0-.25-.17c.29.0.31-.52.38-.78a6 6 0 0 1 .32-1.11l.58-1.5a5.82 5.82.0 0 0 .65-1.8s-.13.09-.13.0.38-.45.44-.58a3.67 3.67.0 0 0 .26-.65c0-.22.0-.53.09-.66v.26c.23.0.37-.8.34-.92l-.08.08a14.15 14.15.0 0 0 .84-2.1l-.09.09c.1-.07.0-.11.21-.13l-.08-.17a.3.3.0 0 0 .3-.28s-.26.13-.26.0c.21-.15.46-.39.34-.64.45.0.16-.45.24-.65s.58-.51.21-.45c0 0 .43-.48.43-.49-.09-.22.57-1.83.88-1.89-.17-.17-.13-.31.09-.3-.11-.38.32-1 .53-1.24h-.12a3.34 3.34.0 0 0 .42-.92c-.05.09-.12.18-.17.28a3.8 3.8.0 0 1 .63-.97c-.31-.42.56-.77.56-1.18l-.09-.05-.17.35c0-.11.26-.77.37-.77.0.09-.07.2-.11.3.17.0.14-.39.11-.45a.32.32.0 0 0 .25-.39.18.18.0 0 0-.12.13 1.87 1.87.0 0 1 .25-.39c-.12.0-.06-.49.22-.49-.18-.31.15-.59.25-.9.05-.14.07-.44.11-.54s.14.0.17-.09c.15-.46.59-1.91.93-2 0-.2.47-.16.47.0-.64.14-1 2.5-1.23 3.15-.4 1.09-.81 2.19-1.26 3.26-.21.49-.42 1-.67 1.46s-.31 1-.52 1.47-.42 1-.66 1.48c-.11.23-.19.54-.32.76s-.36.23-.38.51l.17-.06c0 .16-.08.35-.26.41v-.13a.9.9.0 0 0-.17.6l-.15-.09s.09.45.0.45c-.26-.12-.1.37-.3.56v-.17c-.26.0-.66 1.06-.39 1.09.0.0-.33.3-.44.55a1.92 1.92.0 0 0-.18.78c.05-.09.12-.17.17-.26.0.19-.19.28-.21.33a2.32 2.32.0 0 0-.19.64c-.05.3-.31 1.52-.61 1.52a10.49 10.49.0 0 0 .53-1.44 2.66 2.66.0 0 0-.57 1.56c-.43.12-.28 1.09-.54 1.37v-.23c-.34.0-.15.66-.09.79-.59-.2-.06 1-.55 1a1.16 1.16.0 0 0 .12-.45c-.19.0-.32.84-.32 1 0-.09.15-.35.24-.35-.09.3-.56.6-.41.88-.24.0-.13.17-.17.26s.16-.19.0.17l-.13-.13a1.36 1.36.0 0 0 0 .45c-.26.0-.4.53-.34.8l.13-.15c-.06.33-.33.7-.28 1-.21.0.15-.64.15-.69-.49.0-.28.61-.28.8s-.67.7-.13.64a3.61 3.61.0 0 0-.39 1.79zm4.79-12.83a.17.17.0 0 1-.17-.17c.16.02.1.13.17.19zm-1 2.25s.09-.23.22-.23a.25.25.0 0 1-.19.25zm0 .6-.21-.17c0-.06.3-.07.3.09zm-.92 1.33a.18.18.0 0 1 .09-.21.27.27.0 0 1-.06.23zm-.58 1.4c0-.12.0-.2.09-.22a1.45 1.45.0 0 1-.06.24zm-.64 2.21a.27.27.0 0 1-.15-.22 1 1 0 0 1 .18.24zm-1.16 3c0-.13-.05-.2.09-.26a1 1 0 0 1-.06.26zm.09 1.88c.18-.88.31-1.79.51-2.67a5.87 5.87.0 0 1 .35-1.1c.06-.15.25-.33.25-.54a.11.11.0 0 1-.15-.08 2.87 2.87.0 0 0 .45-.55 6.57 6.57.0 0 1 .16-.77c.12-.27.87-1 .51-1.17a2.29 2.29.0 0 1 .3-.84.08.08.0 0 1 0 .09c.28-.28.0-.31.06-.47s.24-.38.24-.62c.18.0.41.32.15-.28h.17l-.09-.17c.33.0-.08-.47.18-.47a.25.25.0 0 1 0 .21c.11.0 1-2.15 1.14-2.42-.66 1.73-1.23 3.56-2 5.22a15.16 15.16.0 0 0-1 2.37c-.24.8-.39 1.63-.63 2.42a7.22 7.22.0 0 0-.57 1.84zm4.26.05h-.17a.75.75.0 0 1 .3-.09zm2.59-20.91c.13.0.13-.17.09-.22s-.09.17-.09.22zm-6.78 17.22c.1-.09.23-.05.15-.22a.48.48.0 0 0-.15.22zm.28-.43c0-.08.07-.14-.05-.19a.32.32.0 0 1 .05.19zm2.36-2.6c.11.0.13-.28.12-.36a.36.36.0 0 0-.12.36zm2.51-10.42.17-.34c-.12.0-.15.26-.17.34zm-4.66 12.35c.13.0.12-.2.09-.25s-.06.17-.09.25zm.22-.66c.09.0.09-.16.08-.21s-.01.16-.08.21z"/><path d="m43.22 34.23c-.15-1.66-.39-3.3-.51-5a5.42 5.42.0 0 1 .16-2.23c.15-.38.59-1.17 1.09-1.14.83.0.63 2.39.71 3 0 .42.0.87.07 1.27a5.32 5.32.0 0 1 .16.57c0 .21-.12.4-.11.58s.11.0.06.34c.61-1 1.22-2 1.87-3 .4-.59.89-1.63 1.59-1.91a1 1 0 0 1 1.38.56c.49 1 0 1.41-.62 2.18a43.66 43.66.0 0 0-2.88 4.35c-.39.64-.76 1.94-1.63 1.9a1.4 1.4.0 0 1-1.34-1.47zm1.1-.26c-.38-.1-.19-.47-.07-.78.03.33.04.42.07.81zm.72.21c-.43-.18.69-1.63.9-2 .07-.1.62-1.13.77-1.09a5.56 5.56.0 0 1-1.24 2.27c0-.11.06-.24.11-.35s-.39.85-.41.9v-.18a2.62 2.62.0 0 1-.17.45zm-.57-1.75s0 .19.0.26a.76.76.0 0 1 0-.26zm.26-.65c-.06-.31-.1-.72-.15-1.07a2.38 2.38.0 0 1 .15 1.07zm-.53.87-.2.35a6.68 6.68.0 0 1 0-1.34c.11.34.17.64.2.99zm-.2.45a2.9 2.9.0 0 1 .19-.29c0 .23-.08.25-.18.48zm.9.0a2.91 2.91.0 0 1-.17-.72 1 1 0 0 1 .13.45c0-.15.06-.54-.1-.64a1 1 0 0 0 .54-.25c.07-.08.13-.79.37-.74-.07.12-.11.25-.18.36.33.07 1-2.26 1.46-2.16.16.06-1.95 3.6-2.02 3.74zm-.18-.93c-.13-.06.65-1.31.74-1.29-.06.49-.54.9-.71 1.33zm.82-1.5c0-.13-.18-.05.09-.24h.07a.3.3.0 0 1-.13.28zm.27.06c0-.09.0-.15.09-.24h.06a.29.29.0 0 1-.12.28zm-1.35 2.7a.42.42.0 0 1 0-.35c0 .05.11.54.0.58a.16.16.0 0 1 .03-.19zm.2-3.43c0-.11.0-.21.0-.32s.09.24.0.32zm-.29-.82s.38 1.31.17 1.4a13 13 0 0 1-.17-1.44zm-.48 1.62v-.18a.45.45.0 0 1 0 .25c.02-.02-.01-.05.0-.11zm.06.53a.3.3.0 0 1 .05-.33 3.49 3.49.0 0 1 0 .58.24.24.0 0 1 0-.29z" fill-rule="evenodd"/></g></svg>