<svg width="48" height="49" viewBox="0 0 48 49" fill="none" xmlns="http://www.w3.org/2000/svg"><g clip-path="url(#clip0)"><path d="M40.6502 25.8464C41.17 25.8464 41.5913 25.4226 41.5913 24.8998 41.5913 24.377 41.17 23.9532 40.6502 23.9532 40.1304 23.9532 39.709 24.377 39.709 24.8998 39.709 25.4226 40.1304 25.8464 40.6502 25.8464z" fill="currentcolor"/><path d="M7.2361 25.8464C7.7559 25.8464 8.17727 25.4226 8.17727 24.8998 8.17727 24.377 7.7559 23.9532 7.2361 23.9532 6.7163 23.9532 6.29492 24.377 6.29492 24.8998 6.29492 25.4226 6.7163 25.8464 7.2361 25.8464z" fill="currentcolor"/><path d="M24.1775 42.4119C24.6973 42.4119 25.1187 41.9881 25.1187 41.4653 25.1187 40.9425 24.6973 40.5187 24.1775 40.5187 23.6577 40.5187 23.2363 40.9425 23.2363 41.4653 23.2363 41.9881 23.6577 42.4119 24.1775 42.4119z" fill="currentcolor"/><path d="M23.1256 30.5796H17.3435C17.8654 29.7149 18.9317 28.7328 19.9044 27.8368 21.7684 26.1197 23.696 24.3443 23.696 22.1993 23.696 19.5048 21.52 17.8951 19.4164 17.8951 17.271 17.8951 14.7656 19.12 14.7656 22.5723 14.7656 23.0948 15.1873 23.5189 15.7068 23.5189 16.2263 23.5189 16.648 23.0948 16.648 22.5723 16.648 20.0595 18.584 19.7883 19.4164 19.7883 20.4117 19.7883 21.8136 20.5366 21.8136 22.1993 21.8136 23.5113 20.1237 25.0675 18.6329 26.4406 16.8348 28.0966 15.1364 29.6614 15.1364 31.5262V32.4728H23.1256C23.6451 32.4728 24.0668 32.0487 24.0668 31.5262 24.0668 31.0037 23.6451 30.5796 23.1256 30.5796z" fill="currentcolor"/><path d="M33.4119 26.7924H31.5295V18.7463C31.5295 18.325 31.2524 17.9544 30.85 17.837 30.4491 17.7206 30.0171 17.8848 29.7926 18.2412L24.1455 27.234C23.9625 27.526 23.9512 27.8942 24.1168 28.1966 24.283 28.4986 24.5983 28.686 24.9413 28.686H29.6472V31.5258C29.6472 32.0484 30.0688 32.4724 30.5884 32.4724 31.1079 32.4724 31.5295 32.0484 31.5295 31.5254V28.6856H33.4119C33.9314 28.6856 34.3531 28.2615 34.3531 27.739 34.3531 27.2164 33.9314 26.7924 33.4119 26.7924zM29.6472 26.7928H26.6491L29.6472 22.0182V26.7928z" fill="currentcolor"/><path d="M46.5882 23.0066C45.8085 23.0066 45.1765 23.6423 45.1765 24.4265 45.1765 36.1705 35.6767 45.725 24 45.725 12.3233 45.725 2.82353 36.1705 2.82353 24.4265 2.82353 12.6825 12.3233 3.12799 24 3.12799 28.7412 3.12799 33.2231 4.66811 36.9605 7.58127 37.5765 8.0612 38.4635 7.94903 38.9412 7.329 39.4188 6.70898 39.3068 5.81728 38.6904 5.33688 34.4532 2.03372 29.3732.288185 24 .288185 10.7666.288185.0 11.1164.0 24.4265.0 37.7362 10.7666 48.5648 24 48.5648 37.2334 48.5648 48 37.7362 48 24.4265 48 23.6423 47.368 23.0066 46.5882 23.0066z" fill="currentcolor"/><path d="M40 .69416C39.2202.69416 38.5882 1.3298 38.5882 2.11406V7.38758H33.4118C32.632 7.38758 32 8.02322 32 8.80748 32 9.59174 32.632 10.2274 33.4118 10.2274H40C40.7798 10.2274 41.4118 9.59126 41.4118 8.80748V2.11406C41.4118 1.3298 40.7798.69416 40 .69416z" fill="currentcolor"/><path d="M24.1775 9.28089C24.6973 9.28089 25.1187 8.85708 25.1187 8.33429 25.1187 7.8115 24.6973 7.38769 24.1775 7.38769 23.6577 7.38769 23.2363 7.8115 23.2363 8.33429 23.2363 8.85708 23.6577 9.28089 24.1775 9.28089z" fill="currentcolor"/></g><defs><clipPath id="clip0"><path d="M0 .288185h48v48.2767H0z" fill="#fff"/></clipPath></defs></svg>