<svg fill="none"
    height="14"
    viewBox="0 0 14 14"
    width="14"
    xmlns="http://www.w3.org/2000/svg">
    <g fill="#fff">
        <path d="m7 0c-3.86922 0-7 3.13105-7 7 0 3.8692 3.13105 7 7 7 3.8692 0 7-3.1311 7-7 0-3.86922-3.1311-7-7-7zm0 12.9062c-3.26465 0-5.90625-2.6418-5.90625-5.9062 0-3.26465 2.64182-5.90625 5.90625-5.90625 3.2647 0 5.9062 2.64182 5.9062 5.90625 0 3.2647-2.6418 5.9062-5.9062 5.9062z"/>
        <path d="m7 3.52405c-.30204 0-.54688.24483-.54688.54687v3.52168c0 .30204.24484.54688.54688.54688s.54688-.24484.54688-.54688v-3.52168c0-.30204-.24484-.54687-.54688-.54687z"/>
        <path d="m7 10.2856c.40774 0 .73828-.3305.73828-.73824s-.33054-.73828-.73828-.73828-.73828.33054-.73828.73828.33054.73824.73828.73824z"/>
    </g>
</svg>