<svg width="16" height="16" viewBox="0 0 16 16" fill="none" xmlns="http://www.w3.org/2000/svg">
<path d="M8 0C3.57803 0 0 3.57834 0 8C0 12.422 3.57834 16 8 16C12.422 16 16 12.4217 16 8C16 3.57803 12.4217 0 8 0ZM8 14.75C4.26897 14.75 1.25 11.7308 1.25 8C1.25 4.26897 4.26922 1.25 8 1.25C11.731 1.25 14.75 4.26922 14.75 8C14.75 11.731 11.7308 14.75 8 14.75Z" fill="#808080"/>
<path d="M8 4.02734C7.65481 4.02734 7.375 4.30716 7.375 4.65234V8.67712C7.375 9.02231 7.65481 9.30212 8 9.30212C8.34519 9.30212 8.625 9.02231 8.625 8.67712V4.65234C8.625 4.30716 8.34519 4.02734 8 4.02734Z" fill="#808080"/>
<path d="M8 11.7549C8.46599 11.7549 8.84375 11.3771 8.84375 10.9111C8.84375 10.4451 8.46599 10.0674 8 10.0674C7.53401 10.0674 7.15625 10.4451 7.15625 10.9111C7.15625 11.3771 7.53401 11.7549 8 11.7549Z" fill="#808080"/>
</svg>

