<svg width="48" height="48" viewBox="0 0 48 48" fill="none" xmlns="http://www.w3.org/2000/svg"><g clip-path="url(#clip0)"><path d="M23.9735 40.3498C23.581 40.3498 23.2228 40.0972 23.0908 39.7275 22.9612 39.3643 23.0712 38.9457 23.3664 38.6959 23.6744 38.4353 24.1258 38.4028 24.4688 38.6148 24.798 38.8183 24.9682 39.2165 24.8933 39.5952 24.8076 40.0289 24.4151 40.3498 23.9735 40.3498z" fill="currentcolor"/><path d="M47.9766 23.9011C47.919 23.6528 47.7684 23.4516 47.571 23.3242 44.5278 21.2621 42.004 19.3175 39.866 17.387L39.9523 17.1519 43.9879 15.6466C44.3083 15.5271 44.5553 15.2526 44.6116 14.9153 44.6873 14.4625 44.4301 14.0331 44.0143 13.878L39.9523 12.3628 38.4579 8.29199C38.3394 7.9693 38.0639 7.72012 37.7248 7.66359 37.2702 7.58784 36.8396 7.84734 36.686 8.26565L35.182 12.3628 35.1098 12.3897C33.4887 10.4863 32.4645 9.44868 29.4985 9.58996 27.5673 9.68146 26.7558 10.3591 25.8163 11.1438 25.53 11.3829 25.2339 11.6301 24.8685 11.8961 24.3352 12.2842 23.612 12.2843 23.0788 11.8961 22.7133 11.6301 22.4173 11.3829 22.131 11.1438 21.1915 10.3591 20.38 9.68146 18.4488 9.58987 15.3364 9.44221 14.362 10.5916 12.5925 12.6781 10.8243 14.7628 7.86511 18.252.359297 23.3357.359203 23.3358.358359 23.3364.356672 23.3378-.225047 23.8182-.0694219 24.7484.636141 25.0157L.653391 25.0222C3.60895 25.777 4.96823 28.0441 6.54202 30.6692 7.64039 32.5011 8.8853 34.5777 10.8286 36.3025 13.0575 38.2806 15.87 39.5019 19.4271 40.0362 19.4744 40.0433 19.5213 40.0467 19.5676 40.0467 20.0375 40.0467 20.4479 39.6932 20.4999 39.2068 20.5539 38.7017 20.1763 38.2513 19.674 38.1751 12.5864 37.1004 10.3321 33.3404 8.15199 29.704 7.27627 28.2434 6.42539 26.8242 5.3077 25.6596 6.20583 25.7356 7.20183 25.7949 8.26495 25.819 9.11677 25.8383 9.94645 25.8341 10.7535 25.8067 15.1181 26.507 18.861 27.6303 21.8798 29.146 22.5451 29.4801 23.2593 29.647 23.9736 29.647 24.6878 29.647 25.4021 29.48 26.0674 29.1459 29.0535 27.6467 32.8442 26.4562 36.7531 25.7894 37.3688 25.8171 37.998 25.8311 38.6404 25.8311 38.9836 25.8311 39.3315 25.8271 39.6823 25.8192 40.7297 25.7955 41.712 25.7375 42.5998 25.663 41.4522 26.8356 40.5657 28.2661 39.6533 29.7385 37.4046 33.3675 35.0794 37.12 28.1306 38.1819L28.1216 38.1832C27.6184 38.2594 27.2415 38.7123 27.2974 39.2181 27.351 39.7028 27.7605 40.0547 28.2293 40.0547 28.2758 40.0547 28.3229 40.0512 28.3703 40.0441L28.4152 40.0372C31.8926 39.5059 34.667 38.2923 36.897 36.3274 38.8397 34.6155 40.1197 32.5498 41.249 30.7271 42.8885 28.0812 44.3051 25.7951 47.2724 25.028 47.7683 24.8998 48.0925 24.4 47.9766 23.9011zM36.2425 13.9707C36.4991 13.875 36.7011 13.6718 36.7955 13.4148L37.5672 11.3127 38.3388 13.4148C38.4332 13.6719 38.6353 13.875 38.8919 13.9707L41.0008 14.7574 38.892 15.5439C38.6353 15.6396 38.4332 15.8428 38.3388 16.0999L37.5672 18.2019 36.7955 16.0999C36.7011 15.8427 36.4991 15.6396 36.2424 15.5439L34.1336 14.7574 36.2425 13.9707zM25.2254 27.4685C24.4183 27.8737 23.5293 27.8736 22.7222 27.4685 20.8923 26.5496 18.8203 25.7688 16.5265 25.132 18.7289 24.6611 20.6886 23.9531 22.3914 23.0107 22.8909 22.7344 23.4231 22.5942 23.9735 22.5942 24.5238 22.5942 25.0564 22.7344 25.5561 23.0107 27.2365 23.9407 29.1667 24.6426 31.3335 25.1135 29.1146 25.7616 27.033 26.5608 25.2254 27.4685zM26.4648 21.3682C25.6946 20.9422 24.8331 20.7171 23.9735 20.7171 23.1137 20.7171 22.2524 20.9423 21.4825 21.3684 15.604 24.6216 7.28733 24.0674 3.33473 23.5539 9.65714 19.0411 12.3541 15.8614 14.0241 13.8924 15.7161 11.8973 16.1712 11.3613 18.36 11.4651 19.6611 11.5267 20.0845 11.8803 20.9279 12.5847 21.2235 12.8316 21.5584 13.1114 21.9745 13.4142 23.1704 14.2847 24.7771 14.2847 25.9727 13.4142 26.3889 13.1113 26.7239 12.8316 27.0195 12.5847 27.863 11.8804 28.2864 11.5267 29.5875 11.4651 31.4474 11.3769 32.0554 11.7508 33.2344 13.0893L31.12 13.878C30.7529 14.015 30.5094 14.3656 30.5094 14.7574 30.5094 15.1491 30.7529 15.4998 31.12 15.6367L35.182 17.1519 36.686 21.2491C36.8217 21.6186 37.1735 21.8643 37.5671 21.8643 37.9607 21.8643 38.3125 21.6186 38.4481 21.2491L39.1706 19.2811C40.7703 20.685 42.5686 22.0974 44.6132 23.5553 40.6624 24.0702 32.3506 24.6259 26.4648 21.3682z" fill="currentcolor"/></g><defs><clipPath id="clip0"><path d="M0 0h48v48H0z" fill="currentcolor"/></clipPath></defs></svg>