<svg fill="none" height="16" viewBox="0 0 16 16" width="16"><g stroke-linecap="round" stroke-linejoin="round" stroke-width="1.33913"><path d="m3.68633 5.92603c-.04613-1.01327.43109-2.00337 1.25298-2.75748.822-.75421 1.9463-1.22945 3.0961-1.22945s2.27409.47524 3.09609 1.22945c.8219.75411 1.2991 1.74421 1.253 2.75748-.0317.69523-.2768 1.55962-.6736 2.49486-.393.92625-.9166 1.88001-1.4661 2.74191-.54995.8627-1.11593 1.6177-1.58683 2.1492-.23695.2674-.43737.464-.58984.5878-.01149.0094-.0224.018-.03272.026-.01032-.008-.02123-.0166-.03272-.026-.15247-.1238-.35289-.3204-.58984-.5878-.4709-.5315-1.03687-1.2865-1.58687-2.1492-.54949-.8619-1.07304-1.81566-1.46602-2.74191-.3968-.93524-.64198-1.79963-.67363-2.49486zm4.21633 8.08817c3e-5-1e-4.00226-.0013.00655-.0029-.00445.0022-.00659.003-.00655.0029zm.25894-.0029c.00432.0016.00655.0028.00657.0029 1e-5 1e-4-.00214-7e-4-.00657-.0029z" fill="currentcolor" stroke="currentcolor"/><path clip-rule="evenodd" d="m8.03524 7.96526c.92448.0 1.67391-.74944 1.67391-1.67392.0-.92447-.74943-1.67391-1.67391-1.67391s-1.67391.74944-1.67391 1.67391c0 .92448.74943 1.67392 1.67391 1.67392z" fill="#171e28" fill-rule="evenodd" stroke="#171e28"/></g></svg>