<svg viewBox="0 0 183 38" xmlns="http://www.w3.org/2000/svg" xmlns:xlink="http://www.w3.org/1999/xlink"><clipPath id="a"><path d="m0 0h175.5c1.72.0 3.44.06 5.16.0a7.23 7.23.0 0 1 2-.13c.63.23.33 1.25.32 1.78-.06 3.55.0 7.1.0 10.65.0 7.29.08 14.59.0 21.88a20.15 20.15.0 0 0 0 2.2c.05.5.3 1.32-.24 1.6s-1.52.0-2 0h-122.9q-22 0-44 0c-3.6.0-7.19-.11-10.79.0-.73.0-2.79.47-3.08-.4a10.13 10.13.0 0 1 .03-2.58z"/></clipPath><g clip-path="url(#a)" fill="#fa1d52"><path d="m17.91 31.27c0-.07.1-.17-.12-.12zM16.67 33a14.64 14.64.0 0 0 5.46-1.36c1.16-.51 1.47-1.18.71-2.23-1.34-1.86-4.69-3-3.64-5.82a12.14 12.14.0 0 1 3-4 7.22 7.22.0 0 1 .88-.78 1.23 1.23.0 0 1 .51-.29c.11.0.28.19.22.2.6-.1.94-.68 1.29-1.13a7.08 7.08.0 0 1 .74-.9c.21-.2.58-.33.73-.57.38-.65-.2-1-.72-1.35a3 3 0 0 0-1-.43c-.25.0-.83.22-1 0 .06.49-1.61 1.24-2 1.53a21.22 21.22.0 0 0-3 3.13 5.91 5.91.0 0 0-1.61 3.89 7.5 7.5.0 0 0 2 4.07 8.57 8.57.0 0 0 1.52 1.49c.26.19.76.34.7.72-.09.59-1.47.91-1.92 1.05a23.3 23.3.0 0 1-2.49.64 10.68 10.68.0 0 1-2.46.22 2.25 2.25.0 0 1-.81-.12c-.06.0-.2-.38-.14-.36-.94-.33.05 1.48.31 1.68a4.35 4.35.0 0 0 2.72.72zm-.08-1.64-.2-.08c.08-.06.58-.3.58.0a2.4 2.4.0 0 1-.38.03zm-.44.0h-.21c.15-.06.16-.1.33.0zm-.57.0a.21.21.0 0 1-.12.0c.2-.36.13.02.12-.01zm-.28.0c-.22.0.0-.12.08-.12zm2 .78h-.16c.23-.25.21-.22-.16-.29a2.1 2.1.0 0 0-.74.1 2.81 2.81.0 0 1-1.35.07c-.28-.06-1-.18-.78-.6.1-.23 1-.31 1 0 0 .15-.81.06-.9.06.0.36 1.16.15 1.35.13a3.6 3.6.0 0 0 1.6-.38c.56-.36 1.3-.12 1.91-.13-.37.14-.06.24.12.25a2.63 2.63.0 0 0 .81-.35c.34-.13 1-.31.6.23-.6.77-2.49.77-3.31.9zm4.05-1.38q-.16.0.0-.12c.17-.01-.01.08-.01.11zm-.75-13.36c-.13.0.0-.15.08-.16s.04.14-.08.16zm-3.23 5a.76.76.0 0 1 .16-.53 1.42 1.42.0 0 1-.16.55zm.12-.65c0-.59 1.08-2.74 1.79-2.81.0.61-.76 1.08-1.05 1.57-.15.28-.34 1.26-.74 1.26zm.34 1.67a6.63 6.63.0 0 1 1.88-4.23c.57-.64 1.2-1.22 1.81-1.83a3.45 3.45.0 0 1 1.89-1.23c0 .51-.95 1-1.28 1.35a25.81 25.81.0 0 0-1.9 2c-.98 1.16-2.23 2.4-2.4 3.96z"/><path d="m32.45 20.13a8.87 8.87.0 0 1 .46-1.67c.28.19-.18 1.64-.46 1.67zm-6 6.22c-.2-.65.22-1.24.49-1.79s.41-1.16.71-1.7.61-.91.87-1.4a2.53 2.53.0 0 1 .92-1.17c-.25.37-.7.75-.7 1.24.0.0.24-.17.24-.08.0.26-.32.2-.45.35a4.59 4.59.0 0 0-.42.79 16.11 16.11.0 0 0-1.11 2.28c.59-.6.0.38-.07.66-.05.0.05-.52.0-.58a10.1 10.1.0 0 0-.51 1.4zm0 1c0-.11-.06-.16.0-.26.06.36-.08.05-.07.24zm-.52 1.45c-.84-1.12.0-3.4.48-4.49a14.72 14.72.0 0 1 2.59-4.38c.13 1-1.22 2.32-1.65 3.15a11.81 11.81.0 0 0-.94 2.27c-.05.3-.77 3.43-.55 3.43zm2.61-6.64a.23.23.0 0 1 .16-.25.51.51.0 0 1-.23.23zm-.9 1.64a1.53 1.53.0 0 1 .48-1c-.07.3-.43.77-.55.98zm5.86 3s.38-.24.38-.36c-.4-.22-.35.07-.45.31zm-4.72 4.16c1.88.0 3.69-1.31 5-2.57 1.58-1.54 2.7-3.47 4.24-5a.24.24.0 0 1-.26.0.35.35.0 0 1 .14-.28c-.38.0-.69.46-.9.74s-.52.63-.81 1c0-.61-.68.62-.77.74-.25.35-.85 1.17-1.32 1.17.29-.58 1.39-.82 1.39-1.56-.45.0-.76.58-1 .88a14.8 14.8.0 0 1-1.47 1.38c.1-.28.36-.46.44-.74-.89.29-1.47 1.1-2.23 1.61a12.55 12.55.0 0 1-2.5 1.07c-.64.25-1.43.56-1.62-.33a5.23 5.23.0 0 1 .24-2.07c.63-3.09 2.3-6.69 5.21-8.23.06.16.0.26.12.4-.14.0-.31.64-.3.75.0-.08.0-.15.0-.22-.35.0-1.62 3.83.3 3.28.9-.25 1.32-2.17 1.41-2.95a2.05 2.05.0 0 0-1.39-2.49c-2.28-.7-4 2.09-5 3.73a16.74 16.74.0 0 0-1.72 3.75 13.06 13.06.0 0 0-.53 1.98c-.05.28-.27 1.18.0 1.47.09.0.13.0.14-.16a3.53 3.53.0 0 0 1.15 2 4.6 4.6.0 0 0 1.97.6zm-2.95-1.55a3.34 3.34.0 0 0-.2-.58.76.76.0 0 0 .13.53zm7.93-3.19c.13.0.5-.38.56-.44s-.63.31-.63.39zm1.06-.64c.27.0.27-.15.0-.34-.15-.05-.1.27-.07.29zm.49-.5s.54-.49.32-.49z"/><path d="m37 26.75a.31.31.0 0 0 .18-.16c-.02-.34-.27.28-.18.16zm-.48-.94a.65.65.0 0 0 .2-.46.87.87.0 0 0-.22.46zm.7.4a.6.6.0 0 0 .2-.4c-.23.0-.19.28-.22.4zm-.4.5c.07.0-.22-.22-.22.0s.11-.01.2.0zm.18-1.95c.11-.23.2-.42.3-.66a1.07 1.07.0 0 0-.3.66zm.34-.82c.19.0.7-1.18.77-1.32-.34.0-.8 1.11-.79 1.32zm1.66 7.21c1.78.0 3.38-1.62 4.5-2.84a12.75 12.75.0 0 0 2.7-4.83c.51-1.58 2.48-1.38 3.6-2.33.48-.41.43-.7-.28-.54a9.15 9.15.0 0 0-1.07.47 15.12 15.12.0 0 1-1.62.49c.87-.62 2.31-.37 3-1.28a.83.83.0 0 1-.54.06c0-.2.32-.09.32-.3-.36-.18-.74.11-.94.2a5.48 5.48.0 0 1-1.8.61c-.75.0-1.17-.52-1.78-.86a20.09 20.09.0 0 0-1.83-.83 1.89 1.89.0 0 0-1.76.0 7.67 7.67.0 0 0-1.48.53c-.7.48-2 1.67-2 2.58 1 0 1.08-1.52 1.92-1.79a14.79 14.79.0 0 0-.94 1.51c-.17.33-.39 1-.74 1.17.36-.69-.22.0-.29.14a1.59 1.59.0 0 0-.24.8c.08.0.5-.37.38.0-.05.17-.42.18-.42.35.3.0-.16.86-.16 1 .31.0.55-.91.66-1.13a6.24 6.24.0 0 1 1.13-1.82c-1.21 2.18-1.66 4.63-2.41 7-.15-.4-.43.0-.08-.48-.29.0.0-.27-.12-.5.0.08-.07.42-.2.42-.28-.28-.06-.69.06-1 0-.12.19-.28.2-.4.0-.42.25-.17-.16-.32-.1-.16.42-.25.42-.35-.64-.21-.65.9-.71 1.28.0.2-.18 1.28-.47.65.27 1.62 1.68 2.19 3.15 2.34zm-1-7.15c-.16-.27.13-.58.36-.58a1.08 1.08.0 0 0-.36.58zm.12-.08c0-.17.16-.36.24-.5.09.09-.07.48-.27.48zm7.56-2.69.12-.18c-.78.1-.3-.33-.54-.78.23.07.87.73.39.94zm-2.91.56c-.17.0.75-1 .86-1.12s.28-.62.75-.43.46.77.6 1.11c-.78.05-1.48.42-2.24.42zm1.84 2.21c0-.11.11-.27.22-.38.0.1-.05.38-.22.38zm-3.87 4.36c-.16.0.0-.13.0-.16s.09.1.0.14zm1.48-.12h-.14c.23-.19.28-.18.14-.02zm-3.89 1.72c-.95-.12.33-2.82.51-3.24.6-1.36 1-3.53 2.8-3.69a16.14 16.14.0 0 1 1.7.0h.86s.44.0.46.33c.06.78-1.3 2.06-1.74 2.64a15.41 15.41.0 0 1-2.61 2.62c-.5.46-1.31 1.32-1.98 1.32zm4.33-2.06s1-1.61 1-1.37c.17.0.75-.82.34-.74.0.0.31-.38.34-.43.15-.25.28-.53.42-.79s.34-.66.48-1c.24-.56.84-1 .75-.07a4.78 4.78.0 0 1-1.06 2.5c-.28.28-.46.34-.65.69s-.16.68-.57.68c-.08-.26.22-.52.34-.7-.45.33-.76 1.21-1.39 1.21zm-5.76-1.35c-.16-.16.0-.46.08-.62-.28.0-.41.55-.08.62zm-1.06 2.07a.89.89.0 0 0 0-.6 1 1 0 0 0 0 .6zm.08-.9c.24.0.36-1.47.44-1.47-.26.0-.42 1.24-.44 1.47z"/><path d="m48.75 24.42a4.06 4.06.0 0 0 .66-1.54c-.41-.01-.6 1.31-.66 1.54zM48.48 31a12.66 12.66.0 0 0 1.05-.89 8.29 8.29.0 0 0 .8-1.46c.58-1.14 1.27-2.2 1.94-3.28a26.32 26.32.0 0 1 3.66-5.42c.6-.57 1.56-1.51 2.47-1.42.3.0 1.25.82 1.45.56s-1-1.05-1.19-1.16a3.94 3.94.0 0 0-1.2-.44 1.5 1.5.0 0 0-.66-.08c-.15.05-.2.32-.37.32a.23.23.0 0 0-.12-.28c-.15.71-1.07 1-1.55 1.47a11.5 11.5.0 0 0-1.76 2.4c-.57.91-1.1 1.84-1.66 2.76-.2.34-.62 1.41-1.08 1.41a5 5 0 0 1 1.28-2.56c.46-.67 1.33-1.47 1.33-2.34-.45.0-.82 1.21-1 1.53s-.57 1.66-1.17 1.66c0-1.23.87-2.43 1-3.68.0-.53.06-1-.46-1.28-.18-.09-.63.0-.75-.26.0.0.09-.06.17.0s-.45-.2-.52-.19c-.33.06-.29.24-.38.52-.24.72-.34 1.5-.54 2.23-.05.21-.55 2.42-.56 2.42.68.0.26-2.69 1-2.69.2.51-.47 1.13-.37 1.63.16.74.38-.39.71-.39.0.69-1.8 3.45-1 3.9.0.0-.22.24-.25.29a6.66 6.66.0 0 0-.34 1.07 1 1 0 0 1 .1-.17c-.16.17-.34 1-.64 1a.2.2.0 0 1 .1-.12 7.78 7.78.0 0 1-.84 1.22 19.57 19.57.0 0 1 .87-3.78c.08-.25.38-1.9.73-1.9-.88.0-1.23 2.81-1.36 3.43a3.73 3.73.0 0 0-.13 2.44c.17.36.66 1.41 1 1.09.11-.11.22.44.24.44zm1.17-8.73c-.15.0.0-.18.0-.21s.11.09.0.16zm0 3.13c-.13-.11-.1-.17.08-.17s.05.1-.08.12zm.24-3.66c0-.17.2-.31.34-.36-.05.02-.23.31-.34.31zm.1 5.22c-.05-.26.24-.57.36-.78a1.71 1.71.0 0 1-.35.73zm.52-.74c0-.26.14-.75.46-.78-.05.07-.27.73-.46.73zm.58-.94c0-.88.89-1.44 1.26-2.17a6.55 6.55.0 0 1 1.37-2.25c.49-.41.79-1 1.25-1.46.19-.19 1-1.09 1.28-1s-.62.87-.71.94a8.8 8.8.0 0 0-1.39 1.47c-.64.89-1.25 1.82-1.87 2.72-.23.29-.74 1.7-1.19 1.7zm5.42-6.89c-.72-.18.63-.61.77-.62s-.79.57-.77.57zm-3 1.27c.58.0.88-.88 1.26-1.19.22-.19 1.13-.48 1.13-.82a4 4 0 0 0-2.44 1.96zm-.58.74s.6-.42.36-.42z"/><path d="m74.68 9.15c-.07.0-.05-.19-.16-.08s.12.06.16.08zm-11.84 22.34a12.47 12.47.0 0 0 3-1.23 5.64 5.64.0 0 0 1-.77c.05-.06.48-.57.23-.49.57-.16 1.51-.86 1.51-1.51l-.32.31c0-.5 3.07-3.79 2.6-4.19s-1.65 1.51-1.86 1.75a12.62 12.62.0 0 1-1.09 1.23c-.33.31-.92.74-.92 1.25.51.0 1.62-1.56 1.88-1.89s.81-1.53 1.31-1.41c-.46.45-.78 1-1.2 1.5s-.84.77-1 1.31c0 0 .41-.15.46-.18a8.69 8.69.0 0 1-2 1.37s.26-.56.26-.62c-.23.12.89-1.08.89-1.05a6.06 6.06.0 0 1-1 .58 1.44 1.44.0 0 0 .32-.58c-.51.0-.56.73-.87 1a6.07 6.07.0 0 1-.89.42c-.27.16-.53.36-.79.53-.64.43-2.17 2.07-3 1.38-1-.84.24-3.78.57-4.76a82.16 82.16.0 0 1 4.07-9.27c.83-1.75 1.59-3.56 2.51-5.27.24-.46.38-.64.94-.67a4.34 4.34.0 0 0 .88.06c.24.0.17-.41.48-.28a.17.17.0 0 0-.1.18c.1.1.39-.11.5-.13s.37.47.3.0a11 11 0 0 1 1.44.39 7.14 7.14.0 0 0 1.53.13c1-.07.8-.94.14-1.43-1.3-1-3.29-.47-4.78-.59a26.7 26.7.0 0 1 2.64-4.46c.36-.42 1.09-.89 1-1.53s-.75-.85-1.2-.92c-1.43-.22-2.21 1.4-2.79 2.35-.41.67-.77 1.36-1.19 2-.32.5-.91 1.07-.91 1.71 1 0 .64-2.53 1.63-2.53.0.43-.54.62-.54 1 .31-.11.86-.46.87-.87.0.1-.08.2-.13.3.75.0.33-1.76 1.13-1.76-.29.0-1 2.07-1.13 2.38a7.8 7.8.0 0 1-1 1.92c-.4.41-.84.2-1.24.32.13-.21.38-.45.38-.73-.3.0-.4.64-.72.76a4.18 4.18.0 0 1-1 0c-.15.0-1.55.19-1.15-.2a3.06 3.06.0 0 1-1 .29.85.85.0 0 1 .38-.12c-.36-.16-.39.18-.65.19a.36.36.0 0 0-.44-.16 2.89 2.89.0 0 0-.59-.08c-.61.0-1.22.12-1.82.16s-1.93-.08-2.07.73c-.25 1.36 1.68 1.5 2.52 1.43 1.81-.14 3.61-.46 5.44-.43-.47.87-.86 1.78-1.31 2.66a5.27 5.27.0 0 0-.95 2.36c.45.0.78-1.64 1-2s.5-1.15.75-1.72.54-1.27 1.3-1.27a13.58 13.58.0 0 0-1.16 2.58 2.77 2.77.0 0 1-.33.86c-.32.54-1 1.22-1 1.86a.69.69.0 0 1 .33-.28c0 .23-.91.89-.64 1.12s.82-1.18.89-1.34c.48-1.07 1-2.09 1.5-3.16.23-.55.5-1.68 1.26-1.68a100.68 100.68.0 0 0-4.57 10.1c-1.28 3.1-3 6.21-3 9.65-.63-1.62.0-3.55.63-5.06.37-.83.62-1.72 1-2.55.3-.61 1-1.35.77-2.1a3.91 3.91.0 0 0-.88 1.73c0 .12-.14 1.07-.37.92.33.72-.81 2.34-1.06 3a10.78 10.78.0 0 0-.62 2.24c0 .27.07 1.13-.12 1.32-.24.0.1-.46-.25-.36.15-.18-.09-.81-.06-1.07a5.76 5.76.0 0 1 .29-1.21c.2-.7.68-1.58.46-2.32-.5.0-.8 2.41-.69 2.81-.23-.17-.29.66-.3.77a3 3 0 0 0 .34 1.83 3.93 3.93.0 0 0 3.37 1.49zm6.22-26.44c0-.08.0-.17.12-.18a.19.19.0 0 1-.12.18zm.32.0c0-.08.0-.17.12-.18a.23.23.0 0 1-.12.18zm-4.25 7.87a.18.18.0 0 1 .08-.2c.12.0-.07.18-.08.2zm-3.34 9.78a.2.2.0 0 1 0-.2c.21.0.0.16.0.2zm-2.45 5.44v-.22c.08.0.02.18.0.22zm.41 1.86a.31.31.0 0 1-.26-.5.84.84.0 0 0 .26.5zm10.64-5.76c-.06-.27.34-.45.34-.5s-.24.52-.34.52zm-.15.2c-.12-.09-.12-.14.0-.16s.1.12.0.18zm-1.06 1.89c0-.09.17-.34.28-.34s-.18.36-.28.36zm-1.83 2.27c0-.11.31-.48.55-.48a1.69 1.69.0 0 1-.55.5zm-.42-.08c0-.13.33-.36.46-.36a2.21 2.21.0 0 1-.46.38zm-1.06.38s.25-.38.44-.38c0 .12-.44.4-.44.4zm-5-.62c-.13.0.06-.18.08-.2s-.05.11-.1.22zm.13-.28a.13.13.0 0 1 0-.18zm0-.26c-.08.0.0-.47.12-.47s0 .45-.12.45zm.16-.69c0-.09.14-.72.26-.72s-.1.67-.25.67zm.34-1c-.3.0.12-.38.2-.44-.07.04-.03.39-.19.39zm.12-.52c0-.08.11-.77.24-.77s-.05.73-.23.73zm.36-.85c0-.29.47-1.94.73-1.94a5.78 5.78.0 0 1-.71 1.9zm.83-2s-.23-.2.0-.2a.19.19.0 0 1 .01.14zm0-.28s-.16-.2.0-.2.1.14-.01.14zm.22-.27c-.32.0.28-.92.4-1-.01-.05-.43.94-.43.94zm.44-1.24c0-.12.07-.25.24-.32-.01.03-.15.26-.25.26zm.32-.58v-.56c.4.06.09.25-.01.5zm.42-1a2.2 2.2.0 0 1 .4-1.18c.11-.03-.35 1-.41 1.15zm.44-1.42a2.64 2.64.0 0 1 .73-1.47c-.01.16-.51 1.44-.74 1.44zm1.55-3.19a.38.38.0 0 1 .12-.28 1.39 1.39.0 0 1-.13.25zm.8-1.7a1.85 1.85.0 0 1 .61-1.24c-.22.43-.42.83-.61 1.24zm7-3.81a.34.34.0 0 1-.22.0c.1-.08.22-.12.22.0zm-1.79-.08s-.21-.01-.21-.11c.18.0.18.06.25.11zm-.38.0a9.3 9.3.0 0 1-1.48-.16c.29-.02 1.5.14 1.52.12zm-4.48-.11h-.22c.06.0.53-.25.53.0zm-.66.0c-.06.0-.32.0-.32.0a.3.3.0 0 1 .32.0zm-.54.0a.68.68.0 0 1-.28.0c.13-.14.36-.17.28-.09zm-.74.0-.24-.08h.54zm-.52.0h-.25c0-.14.41-.14.41.0zm-.73.0h-.24s.44-.08.44.0zm-.42.0a1.07 1.07.0 0 1-.4.0 2.71 2.71.0 0 1 .4.0zm-2.15-.36h-.24s.24-.06.24.03zm-.7.28c0-.14 1.1-.19 1.1-.12a6.85 6.85.0 0 1-1.1.2zm1.11.65h-.12c.12-.17.12.0.12.0zm.18-.78c.21-.16.67-.1.93-.12zm.23.74-.19-.08c0-.09.4.0.43.0zm1.1.0a2.55 2.55.0 0 1-.82-.12c1.31-.16 2.62-.21 3.93-.26-.13.7-2.68.38-3.16.38zm3.11-.16c.07-.16.06-.27.28-.22-.11.16-.2.17-.33.22zm.31-.37h-.16c.23-.19.13-.1.16.0zm0 .38c0-.33.48-.18.73-.18-.1.19-.44.13-.66.13zm1.11.68a.19.19.0 0 1-.22-.08c.18-.1.18.02.26.02zm.36-.72a2.94 2.94.0 0 1-.42.0.47.47.0 0 1 .5-.14zm.2-.34c-.12.0-.24.0-.36.0.13-.11.35-.19.36.0zm.2-.32c-.06-.18-.21.0-.32-.15.42-.75.87-1.48 1.27-2.24.12-.23.39-1.07.72-1.07.0.19-.42 1.73-.79 1.73a.16.16.0 0 1 0-.2c-.34-.05-.75 1.62-.88 1.88zm1.08 1.42h-.88s.88-.23.88-.05zm.36.1a.21.21.0 0 1-.12-.14c.15-.2.11.07.12.09zm2 0c-.2.0-.3.0-.3.0a1.21 1.21.0 0 1 .27-.01zm2.51-.26c-1.8.0-3.56-.44-5.34-.6.0.0 5.52-.39 5.52.56zm-15.75-1.35a.61.61.0 0 0 .24-.15c.02-.25-.42.15-.24.15zm5.8-.25c0-.06-.2-.05-.22.0s.2-.01.24.0zm-5.27 17.43s.26-.2.0-.2c-.1.1-.02.09.0.2zm1.47-4.2c.13.0.12-.29.08-.36a.56.56.0 0 0-.08.36zm-2.1 6.85c0-.09.06-.11.0-.2-.07.09-.07.15.0.2zm.1-.62.4-1.59c-.26.0-.4 1.41-.4 1.59zm.73-2.65s.13-.2.0-.2-.02.13-.02.2zm3.67-6.69c.68.0.6-1.83.86-1.83a3 3 0 0 0-.53.77 2.24 2.24.0 0 0-.35 1.06zm2.25-7.41a.32.32.0 0 0 .16-.26c-.1.0-.18.21-.18.26zm-.65 1.29a.28.28.0 0 0 .16-.24c-.05.0-.16.2-.16.24zm-2.8 7.06a.38.38.0 0 0 .24-.56c-.1.0-.24.47-.24.56zm.36-.86.08-.2c.17.16.49-.81.56-1s0-.36.11-.55.37-.38.27-.66c.05.0.29-.31.29-.35s-.4.23-.45.29a2.64 2.64.0 0 0-.39 1c-.03.21-.19 1.47-.47 1.47zm.08 1.67c.31.0.56-.62.62-.86.09-.39.0-.44.28-.81-.82.0-.24 1.67-.9 1.67zm-.51-1.37c.14.0.27-.56.31-.66-.21.0-.31.52-.31.66zm.47-1c0-.1.0-.16.0-.18a.34.34.0 0 0 0 .2zm1.56-3.65.12-.2c-.18.01-.11.17-.12.22zm3.46 12.5c.3.0 1.06-.93 1.06-1.22a10.11 10.11.0 0 0-1.06 1.24zm-.19-15.8s.12-.16.0-.16-.01.19.0.18zm.27 16.85a.22.22.0 0 0 .16-.39c-.15.02-.32.3-.16.41zm2.42-21.74c.23-.07-.12-.22-.12.0a.11.11.0 0 0 .12.0zm-2.73 19.89s.41-.24.23-.24zm.19-17.89c0-.09.1-.12.0-.16s0 .16.0.16zm.66-.74c.12.0.08-.12.0-.16-.17.02.0.18.0.18zm-.46.42c.29.0.54-.69.26-.79s-.04.81-.26.81zm.5-.86c.17-.06.31-.2.2-.42-.16.0-.28.27-.32.38zm-1.19 19.49c.11-.11.22-.23.34-.34-.13.03-.34.17-.34.34zm.14.56c.44.0 1.37-1.21 1.37-1.64-.31.0-1.6 1.5-1.37 1.64zm-5.52-6.94a.27.27.0 0 0 0-.2c-.09.0.0.14.0.2zm0 .74c.09.0.09-.24.0-.24a.21.21.0 0 0-.04.24zm-.36.12a3.67 3.67.0 0 0 .32-.74c-.17.0-.36.63-.36.74zm8.19 3a1.16 1.16.0 0 0 .24-.34c-.21-.01-.23.23-.28.33zm-.68 1.43a1.67 1.67.0 0 0 .4-.34c-.15-.01-.4.3-.44.33zm-7.43-3.6c.34.0.1-.63.36-.74-.24-.14-.43.28-.2.28-.21.16-.2.22-.2.45zm.48-2.12a.5.5.0 0 0 .12-.37c-.16.1-.14.21-.16.36zm.2.68c0-.31-.21-.42-.24-.08.13-.17.13.01.2.07zm-1.84 4.29c.33.0.34-1 .34-1.14-.17.34-.46.81-.38 1.13zm.66-2.57c.12.0.08-.18.0-.24-.22-.01-.03.27-.04.23zm-.2 1.1c-.14.09.58-.42.24-.42-.19-.04-.26.28-.24.42zm.24-.58c.09-.26.38-.37.42-.65-.2.09-.22.0-.12-.16-.27-.04-.27.61-.27.77zm-.2-.24c.06.0.09.0.08-.09-.19-.23-.11.12-.08.05zm-.86 2.2c.22.0.83-1.92.86-2.16-.24-.04-.86 1.86-.86 2.12z"/><path d="m71 31.27c0-.07.11-.17-.12-.12zM69.8 33a14.69 14.69.0 0 0 5.46-1.36c1.15-.51 1.46-1.18.7-2.23-1.34-1.86-4.68-3-3.63-5.82a12 12 0 0 1 3-4 7.22 7.22.0 0 1 .88-.78 1.3 1.3.0 0 1 .51-.29c.11.0.28.19.22.2.61-.1.94-.68 1.29-1.13a8.13 8.13.0 0 1 .75-.9c.2-.2.58-.33.72-.57.39-.65-.19-1-.72-1.35a3 3 0 0 0-1-.43c-.26.0-.83.22-1 0 .07.49-1.6 1.24-2 1.53A20.25 20.25.0 0 0 72 19a5.86 5.86.0 0 0-1.61 3.89 7.48 7.48.0 0 0 2 4.07 8.92 8.92.0 0 0 1.52 1.49c.26.19.76.34.71.72-.09.59-1.48.91-1.92 1.05a23.93 23.93.0 0 1-2.49.64 10.73 10.73.0 0 1-2.46.22 2.25 2.25.0 0 1-.81-.12c-.07.0-.2-.38-.14-.36-.95-.33.05 1.48.3 1.68a4.4 4.4.0 0 0 2.7.72zm-.08-1.64-.2-.08c.08-.06.58-.3.58.0a2.78 2.78.0 0 1-.38.03zm-.44.0h-.22c.16-.06.16-.1.34.0zm-.58.0a.28.28.0 0 1-.12.0c.21-.36.13.02.12-.01zm-.28.0c-.21.0.0-.12.08-.12zm2 .78h-.15c.23-.25.21-.22-.16-.29a2.12 2.12.0 0 0-.75.1A2.8 2.8.0 0 1 68 32c-.27-.06-1-.18-.78-.6.1-.23 1-.31 1 0 0 .15-.81.06-.89.06.0.36 1.15.15 1.35.13a3.55 3.55.0 0 0 1.59-.38c.56-.36 1.3-.12 1.92-.13-.37.14-.07.24.11.25a2.68 2.68.0 0 0 .8-.3c.34-.13 1-.31.59.23-.53.74-2.45.74-3.28.87zm4-1.38q-.17.0.0-.12c.23-.01.05.08.04.11zm-.7-13.36c-.13.0.06-.15.08-.16s.05.14-.08.16zm-3.23 5a.81.81.0 0 1 .16-.53 1.26 1.26.0 0 1-.16.55zm.12-.65c0-.59 1.09-2.74 1.8-2.81.0.61-.77 1.08-1 1.57-.2.28-.41 1.26-.8 1.26zm.39 1.69a6.68 6.68.0 0 1 1.88-4.23c.57-.64 1.21-1.22 1.82-1.83a3.39 3.39.0 0 1 1.88-1.23c0 .51-.94 1-1.28 1.35-.67.64-1.29 1.32-1.9 2-1.02 1.14-2.3 2.38-2.4 3.94z"/><path d="m25.3 2.83c0 .28-.58.17-.73.25.35.7-1.07.53-1.4.52-1 0-1.9.0-2.85.08a45.8 45.8.0 0 0-6.32.86c-1.93.35-3.86.73-5.75 1.24-1.53.43-3.35 1.41-5.03 1.12a2 2 0 0 1-1.31-.72c-.38-.65.32-.89.86-1 1.81-.5 3.66-1 5.49-1.4a66.57 66.57.0 0 1 11.91-1.86c.73-.04 5.4-.43 5.13.91zm-4.36-.49c.33.0.94.23 1.18-.12a3.85 3.85.0 0 0-1.18.12zm-.25.05s.36.07.12-.17a.3.3.0 0 0-.12.17zm1.84.0v-.17c-.24.0-.19.27.0.21zm.16-.13h-.12q.12.18.24.0zm-3.1.13a2.71 2.71.0 0 0 1-.09q-.76-.08-1 .13zm3.39.0h.89c-.15-.17-.77-.22-.87.04zm-4.62.0a25.56 25.56.0 0 0-3.36.53c1.47-.16 2.95-.27 4.4-.53-.26-.25-.74.0-1.04.0zm5.88.16c.05-.14-.23-.24-.28-.12a1.39 1.39.0 0 0 .28.12zm.2-.12s-.12.0-.12.0zm.17.0a.09.09.0 0 0-.12.0c-.03.1.01.12.12.04zm-10.45.65c.16-.15.7.08.78-.24-.06.06-.85.16-.78.28zm-1.31.0v.25a4 4 0 0 1 1.15-.21c-.08-.3-.94.04-1.15.0zm-.32.29c.12.06.18.0.2-.09-.13-.05-.2-.02-.2.13zm-.21.0c-.08.0-.12.0-.12.0s.12.02.12.0zm-.32.08s-.11-.04.0.0zm-8.57 19.55a3.58 3.58.0 0 0-.74 1.72c.1-.1.34-.83.53-.74-.08.18-.17.74-.38.83s-.64-.16-.64-.42c-.31.21-.13.76-.49.94q.18.08.21-.12c.24.12-.07.43-.17.53.12-.23.07-.37-.2-.29.23.23-.3.7.2.7.0.0-.31-.37.0-.3a.25.25.0 0 1 .07.22c.22-.45.28-1 .73-1.31-.07.24-.1.41.2.41-.13.39-.26.32-.48.58-.08.09-.21.62-.25.64a.69.69.0 0 0 .2-.28 1.23 1.23.0 0 1-.69 1.34c.74.75-.91 2.24.65 2.56a8 8 0 0 0 4.36-.69c.8-.32 1.64-.52 2.46-.79a19 19 0 0 1 2.49-.81c.45-.08.83-.11.51.46-.12.23-.32.22-.46.36s0 .53-.45.37c.06.22.0.26-.2.12.0.08.56.33.65.33-.19.63-1.19.82-1.71 1a19.61 19.61.0 0 1-3.08 1.05c-1.66.37-3.84 1.25-5.32.0s-1.53-3.4-1.15-5c.54-2.33 1.82-4.44 2.61-6.69-.49.41-.9-.44-1.17-.72s-.79-.53-.54-.92 1.51-.27 2-.42c1-.33 1.23-2.13 1.53-3 .57-1.64 1.12-3.29 1.62-5 .18-.66.14-2.22.72-2.66 1-.75 1.75 1 1.67 1.74a11.77 11.77.0 0 1-.52 2 13.35 13.35.0 0 1-.81 2.38 29.23 29.23.0 0 0-1.47 3.88c2-.32 4-.45 5.93-.69.31.0 1.29-.29 1.43.14s-.73.75-1 .75c.72.8-2.28 1.24-2.63 1.29-.75.11-1.48.27-2.23.45s-1.33.09-1.93.25-.35.41-.63.78a.41.41.0 0 1-.13-.28c-.17.17-.08.62-.44.53.32.13.33.87-.13.61a1 1 0 0 1 0 .49s.23-.27.25-.28c.09.19.0.66-.33.61.23.56-.36 1-.49 1.55q-.22-.03-.16-.2zm.57-2.74c-.06.0-.47.33-.28.41s.28-.34.28-.41zm0 .57a1.12 1.12.0 0 1-.41.0c0 .2.33.09.33.25.0-.19.28-.16.28-.37a.18.18.0 0 1-.24-.08c-.04.03.16.15.04.2zm-.41.25q.17.06.12-.09c-.12.01-.16.01-.16.09zm-.29.85h.25c0-.25.0-.51.0-.77a2.19 2.19.0 0 0-.29.77zm.54-.4c-.06.0-.13.0-.09.12zm-1.72.93c0-.25.23-.29.33-.49a.34.34.0 0 0-.37.49zm1.1-.28c-.08.0-.12.0-.12.0s.08.03.08.0zm-.36.69c.17-.12.34-.47.16-.65-.02.2-.3.45-.2.65zm.44-.37a.15.15.0 0 0 0-.24.38.38.0 0 0-.04.24zm.45.21a.16.16.0 0 0 0-.25.35.35.0 0 0-.04.25zm-1.79-.16v.12a.14.14.0 0 0 .04-.17zm.9.73c-.3-.13-.55.74-.66 1 .15.1.2-.16.33-.16a.28.28.0 0 0-.08.32c.12.0.22-.51.32-.41-.19-.39.33-.65.33-1-.19.2-.17-.18-.37-.08a.69.69.0 0 0 .09.33zm-1.23.0a1.85 1.85.0 0 0-.24.73 2 2 0 0 0 .32-.85zm.16.24c.09-.07.09-.13.0-.16s-.1.13-.04.16zm.54.21c.1.0.14.0.12-.08s-.16.01-.16.08zm-1.07.49c.05.0.12.0.09-.08s-.08.04-.13.08zm1 1.35c.4-.2-.12.61.29-.21a.45.45.0 0 0-.35.21zm-.77.53c-.08.0-.12.0-.12.0s.06.02.06.0zm-.12.44a2.46 2.46.0 0 0-.37 1.11l.33-.25c-.34-.07.0-.93.12-1.1-.22.01-.27.09-.14.24zm.24.0.2-.2c-.14-.17-.41.05-.26.2zm0 .58a.27.27.0 0 0-.18-.12c0 .06.03.12.08.12zm-.75 1.22s-.06-.34-.08-.34a.43.43.0 0 0 .08.34zm10.69.0a.24.24.0 0 0 .16-.08.24.24.0 0 0-.16.08zm-1.39.49c-.05.0-.08.0-.08.0s.08.03.08.0zm-.86.29.21-.12q-.21.0-.21.12zm-.16.0c.11.0.15.0.12-.08s-.12.04-.12.12zm-1.06.32q.15.0.12-.12c-.09.01-.13.06-.12.16zm2.73.08a.8.8.0 0 0 .45-.16.29.29.0 0 0-.45.2zm-.73.33c.22-.05.57-.11.69-.33-.19.14-.69.01-.69.37zm-.57.15c.11.06.27.0.49-.12-.14-.1-.3-.06-.49.12zm-.41.13c.05.0.11.0.16-.09-.13.01-.19.04-.16.1zm-5.47.12c-.08.0-.12.0-.12.0s.12.04.12.01zm2.78.45h.16c-.02-.14-.16-.17-.16.01zm-3.15-7.1c-.12.0-.12.0.0-.17zm0 0 .14.07a.23.23.0 0 1-.26.17zm-1.18 1.07c.1.1.23.6-.12.49-.12-.16.04-.33.12-.49z"/><path d="m94.31 26.4c.23.0.0-.11.0-.12s-.1.1.0.12zm6.34-22c.07-.07.13-.16.2-.24-.16-.04-.14.12-.2.2zm-3.23 27.52c0-.07.11-.12-.08-.06.0.06.03.08.08.06zm1.8-.69c.22.0.0-.12.0-.12s-.08.13.0.12zm3.22-.78s.18-.12.0-.12-.07.13.0.12zm-1.59.44.08-.2c-.12.0-.14.2-.08.2zm-3.15.89c.11.0.2-.13.34-.12-.23-.07-.27.04-.34.12zm-5.46-1.13a.56.56.0 0 0 .08-.2s-.17.2-.08.2zm2.11-5.92a.24.24.0 0 0 .12-.24c-.06.0-.12.21-.12.24zm8.22 6.89s.07-.11-.13-.08a.57.57.0 0 1 .13.08zm-10.49-.28c.06-.1.16-.13.08-.27zm.14-.41c.07.0.0-.15.0-.16s-.01.1.0.16zm1 3.14a8.7 8.7.0 0 0 3.54-1.16 31.74 31.74.0 0 1 3.29-1.24 20 20 0 0 1 3.59-.87c.6-.09 1.2-.14 1.8-.22.35.0 1.33.0 1.59-.29s-.86-.19-.92-.19c-.43.0-.86.15-1.28.22-1.09.2-2.17.41-3.25.65a28.12 28.12.0 0 0-3 .82c-.83.26-1.87 1-2.76.81.0-.4 1-.13 1-.44.0-.13-.59.09-.66.08.0-.25.74-.45.74-.12.23.0.39-.38.58-.51a1.92 1.92.0 0 1 1-.27 1.27 1.27.0 0 0-.36.2c.15.0.86-.07.86-.28-.53-.16.08-.21.4-.3s.8-.16 1.19-.26c.77-.19 2.37-1 3.18-.61.0-.06.0-.12.0-.18.3.0.56.06.87.0.72-.05 1.49.0 2.22.0-4.26-1.07-8.61.83-12.52 2.34-.45.17-1.41.79-1.87.44s-.11-1.28.0-1.69a32.33 32.33.0 0 1 2-5.61l-.09.23a5.19 5.19.0 0 1 .32-.7c.06-.21.0-.48.13-.67s.29-.08.36-.21a10.37 10.37.0 0 0 .44-1.43c.26-.68.6-1.34.92-2 1.47-2.61 2.67-5.21 3.82-7.88a67.64 67.64.0 0 0 2.9-8.16 7.07 7.07.0 0 0 .31-3.16 1.17 1.17.0 0 0-.48-.91c-.39-.22-.68.09-.51-.5-.16.08-.62.16-.62.0a.5.5.0 0 0 0 .54c-.4-.26-.27 1.11-.33 1.38a23.93 23.93.0 0 1-.79 2.62c-.57 1.79-1 3.62-1.69 5.38-1.4 3.64-3.14 7.08-4.64 10.64a55 55 0 0 0-3.5 9.19c-.39 1.9-.3 4.32 2.22 4.32zm2.61-12.81a.5.5.0 0 1 .08-.2c.09.08.09.15-.08.2zm0-.82c0-.14.0-.27.24-.23zm.36.2a.24.24.0 0 1-.2-.2c.25-.01.32.06.2.2zm.22-.08s-.07-.06.0-.16-.01.13.0.16zm.2-.61a.44.44.0 0 1 .16-.36 1.82 1.82.0 0 1-.16.41zm1.21-2.39c0-.08.0-.3.14-.3s-.05.3-.14.3zm-1.71 2.44a19.59 19.59.0 0 0 .83-2.1c.28-.66.57-1.32.88-2 .2-.42.82-1 .82-1.49-.31.24-.33.75-.46 1.09a18.33 18.33.0 0 1-.86 1.79c-.19.37-1.33 2.05-.51 2.14-.72-.02-.27.57-.7.57zm2.53-5.76c-.08.0.1-.66.22-.66s-.08.67-.22.67zm2.65-7.71a1 1 0 0 1-.08-.22c.12.1.07.2.08.23zm-.48.24c.17.0.14-1.92.58-1.92a3.11 3.11.0 0 1-.58 1.93zm-5.42 12.42s.12-.32.12-.14zm-1.11 2.73c-.07.0.17-.74.29-.74a1.5 1.5.0 0 1-.29.74zm-.66 1.67v-.16c.13.05.14.1.0.16zm-1.1 2.69c-.09.0.0-.15.0-.16s.09.11.0.16zm-.74 2.08s-.09-.2.0-.2a.21.21.0 0 1 0 .2zm-.16 3c0-.09-.09-.23.08-.23a1 1 0 0 1-.08.21zm-.31 1.18a4.23 4.23.0 0 1 0-2c.06-.22.53-1 .16-1.13.32.0.91-2.33 1.07-2.66a8.86 8.86.0 0 0 .51-1.13 6.72 6.72.0 0 0 .15-1 7.32 7.32.0 0 1 .39-.65c.17-.33.07-.8.29-1.1a.14.14.0 0 0 .05.18c.3-.1.2-.81.19-.75a12.21 12.21.0 0 1 .69-1.85c.08-.11.38-.34.4-.53.0.0-.24.11-.24.0.55-.4.56-1.27.82-1.76a4 4 0 0 0 .44-.88 5.5 5.5.0 0 1 .63-1.2l-.06.05s.79-1.86.93-2.22a1.6 1.6.0 0 1-.11.19c.06-.22 1-2.11 1-2.13s-.15.28-.16.31.16-.71.34-.71a.93.93.0 0 0-.1.22c0-.22.2-.47.25-.69v.09a7.54 7.54.0 0 1 .85-2.06 7.42 7.42.0 0 1 .72-1.74c.21-.28.68-.74.53-.26.0.18-.3.42-.38.63a5.55 5.55.0 0 0-.26 1 32.92 32.92.0 0 1-1.83 5c-.37.9-.71 1.81-1.1 2.71a9.38 9.38.0 0 1-.61 1.23c-.06.1-.57.81-.21.58.0.08-.28.51-.2.26-.11.11-.06.62-.3.48a1.21 1.21.0 0 1-.28.94c.09-.36-.21.07-.26.16a4.55 4.55.0 0 0-.17.75 5 5 0 0 1-.45 1.04.56.56.0 0 0 .1-.15c0 .22-.59 2.31-.93 2.31a12.23 12.23.0 0 0 .45-1.33c-1 .38-.42 2.07-1 2.73.0-.25-.2.3-.08.53-.54-.18-.07.94-.52.94a1 1 0 0 0 .12-.42c-.25.0-.3.74-.3.9.0-.06.15-.32.22-.32s-.79 1.22-.48 1.19c-.22.0.0-.17-.16.12v.2a.22.22.0 0 0-.19.13c0 .16-.2.36-.16.55s.11.0.15-.08c0 .3-.32.58-.26.9-.21.0.14-.53.18-.6-.43.0-.29.46-.37.71s-.42.63.0.59a3.08 3.08.0 0 0-.46 1.71zm4.44-11.94a.16.16.0 0 1-.16-.16c.16.0.1.1.16.16zm-.9 2.1s.08-.22.2-.22a.23.23.0 0 1-.2.22zm0 .55-.2-.16c0-.22.48.16.2.16zm-.85 1.24a.18.18.0 0 1 .08-.2.28.28.0 0 1-.08.2zm-.54 1.29c0-.11.0-.18.08-.19s-.06.12-.08.19zm-.6 2.06a.23.23.0 0 1-.14-.2.81.81.0 0 1 .14.2zm-1.08 2.77c0-.12.0-.19.08-.24s-.06.16-.08.24zm.08 1.75c.18-.82.29-1.66.49-2.48.09-.37.23-.71.34-1.06l.12-.19c.16-.16.15-.28.0-.35.09-.18.3-.23.39-.4s.07-.55.17-.81.34-.44.46-.7.15-.8.3-1.18a3.53 3.53.0 0 0 .31-.94 1 1 0 0 0 .25.07c0-.06-.12-.3-.11-.31.18-.12.0.0.16-.22.0.0.09-.3.13-.27s0 .14.19-.07a3.24 3.24.0 0 0 .34-.73c.18-.44.3-.92.52-1.34-.75 2-1.52 3.9-2.36 5.83a27.35 27.35.0 0 0-.87 2.65 8.55 8.55.0 0 0-.83 2.5zm4 0h-.16c.3-.08.3-.08.13.04zm2.34-19.36c.12.0.11-.15.08-.2s-.06.13-.08.2zm-6.3 16c.1-.08.22.0.14-.2a.56.56.0 0 0-.14.2zm.26-.4c0-.07.07-.13.0-.17a.25.25.0 0 1 0 .14zm2.19-2.41c.11.0.13-.26.12-.34a.37.37.0 0 0-.12.31zm2.34-9.68.16-.32c-.12-.03-.14.21-.16.29zm-4.33 11.49c.12.0.11-.19.08-.24s-.05.12-.08.24zm.2-.62c.09.0.09-.15.08-.2s-.06.12-.08.16z"/><path d="m109.22 26.4a.26.26.0 0 0 .18-.16c0-.34-.25.28-.18.16zm-.48-.93a.68.68.0 0 0 .2-.46.87.87.0 0 0-.2.46zm.7.39a.53.53.0 0 0 .2-.39c-.21.0-.17.28-.2.39zm-.4.5c.07.0-.22-.21-.22.0s.18-.01.18.0zm.18-1.95c.11-.23.2-.42.3-.66a1.07 1.07.0 0 0-.3.66zm.34-.82c.2.0.7-1.18.78-1.31-.34.0-.79 1.11-.78 1.31zm1.71 7.22c1.79.0 3.38-1.63 4.5-2.85a12.75 12.75.0 0 0 2.7-4.83c.51-1.57 2.48-1.38 3.6-2.32.48-.41.43-.7-.28-.54a7.13 7.13.0 0 0-1.06.47 15.24 15.24.0 0 1-1.63.48c.87-.62 2.31-.37 3-1.27a1 1 0 0 1-.53.06c0-.21.31-.1.31-.3-.44-.23-.89.15-1.2.31a3 3 0 0 1-2 .55c-.5-.16-.75-.72-1.2-1a21 21 0 0 0-2-.74c-.87-.38-1.13-.14-2 .09-.27.07-.43-.07-.65.0a1.85 1.85.0 0 0-.74.49c-.65.56-1.91 1.61-1.91 2.54 1 0 1.07-1.53 1.91-1.79a13.15 13.15.0 0 0-.93 1.52c-.18.32-.4 1-.74 1.17.35-.7-.22.0-.3.13a1.77 1.77.0 0 0-.24.8c.08.0.5-.36.39.0-.06.18-.43.18-.43.35.3.0-.16.87-.16 1 .3.0.53-.86.63-1.08a6.45 6.45.0 0 1 1.16-1.87c-1.2 2.17-1.65 4.63-2.41 7-.15-.4-.43.0-.08-.48-.29.0.0-.26-.12-.49.0.07-.07.41-.2.41-.28-.27.0-.68.06-1 0-.12.19-.28.2-.41.0-.42.25-.16-.16-.32-.1-.15.42-.25.42-.35-.63-.21-.65.9-.7 1.28.0.21-.19 1.28-.48.66.37 1.6 1.77 2.2 3.27 2.33zm-1-7.18c-.16-.26.13-.58.35-.57a1 1 0 0 0-.4.57zm.12-.08a1.11 1.11.0 0 1 .23-.49c.07.11-.09.49-.28.49zm7.55-2.69.12-.18c-.78.1-.3-.32-.54-.77.21.09.85.77.37.95zm-2.91.56c-.17.0.75-1 .86-1.11.25-.29.28-.62.75-.44s.46.78.6 1.11c-.8.07-1.5.44-2.24.44zm1.87 2.21c0-.11.11-.27.22-.38-.05.13-.12.38-.27.38zM113 28c-.17.0.0-.14.0-.16s.08.16.0.16zm1.47-.12h-.14c.22-.18.27-.16.13.0zm-3.89 1.71c-.95-.12.33-2.82.52-3.23.6-1.36 1-3.53 2.79-3.7a16.17 16.17.0 0 1 1.7.05 8.12 8.12.0 0 1 .86.0c.4.0.44.0.47.33.0.78-1.31 2.05-1.75 2.63a15.41 15.41.0 0 1-2.61 2.62c-.51.45-1.3 1.3-1.99 1.3zm4.33-2.05s1-1.61 1-1.38c.15.0.48-.65.53-.77-.39.12.13-.43.25-.62a7 7 0 0 0 .57-.95c.1-.24.36-1.42.87-1.24s-.38 2.09-.5 2.37a3 3 0 0 1-.43.74c-.13.14-.35.22-.46.35-.23.28-.32 1-.79 1-.08-.26.21-.51.33-.7-.44.34-.75 1.2-1.38 1.2zm-5.76-1.34c-.16-.16.0-.45.08-.61-.29.0-.42.54-.09.61zm-1.06 2.08a.89.89.0 0 0 0-.6 1 1 0 0 0-.01.6zm.08-.9c.25.0.37-1.48.44-1.48-.27.0-.43 1.25-.45 1.48z"/><path d="m136.64 24.53c.37.0 1-.74 1.07-1.06-.34.29-.93.62-1.07 1.06zm1.2-1.06c.14.0.51-.39.51-.53a1 1 0 0 0-.51.53zm.07.4a2.92 2.92.0 0 0 .32-.28c0-.12-.29.22-.32.28zm1.22-.32c.23.0.59-.48.74-.65-.25.0-.64.47-.74.65zm.26-1.39c.23-.15.1-.34-.1-.44.0-.01-.02.44.1.44zm.4.2c.12-.12.4-.3.4-.48-.25-.03-.3.27-.4.48zm-12.12 1.07c.16.0.32-.33.32-.45s-.32.34-.32.45zm-.2.4c.45-.44-.47.0.0.0zm1.18-1.75c.2-.1 1.07-.36 1-.66s-.89.51-1 .66zm1-.86a.46.46.0 0 0 .16-.5.77.77.0 0 0-.19.5zm-3.65 3.47c0-.51.54-.83.52-1.36-.21.0-.06.61-.36.38.26.46-.74.46-.16.98zm.74-1.06a3.52 3.52.0 0 0 .31-.5s.49-.38.42-.55c.19.0.56-.06.56-.3-.46-.28-.8.3-1 .61-.03.11-.54.74-.29.74zm1.13-1.51.2-.12s-.32-.11-.32.0zm8.07 3.11c.18-.16.66-.33.66-.62.0.0-.55.34-.57.33a.26.26.0 0 1 .09-.17c-.07.03-.33.46-.18.46zm-6.4-3.15.17-.12a.19.19.0 0 0-.28.0zm-1 .5a.88.88.0 0 0 .56-.58c-.33.16-.87.22-.61.58zm-9.07 5.06a.34.34.0 0 0 0-.34c-.12.12-.07.22-.05.34zm2.69-5a5 5 0 0 0 .34-.7c-.3.06-.38.44-.39.68zm-.24 8.07c1 0 1.67-1 2.25-1.74.82-1 1.76-2 2.66-2.93s1.61-1.68 2.38-2.55c.2-.21 1.08-1.39 1.4-.81.17.0-.07-.54.12-.54.31.4.19 1 .26 1.43.12.0.0-.34.16-.34.0.21-.1 1.59.2 1.36-.28.53.46.84.46 1.33-.37-.08.4.94.45 1a3.82 3.82.0 0 0 1.71 1.2 1.15 1.15.0 0 0 1 0c.27-.21.23-.43.6-.58a5 5 0 0 0 1.49-.87c.48-.42 4.2-3.61 3.17-4.23a.41.41.0 0 0-.16.34c.47-.18-.2.67-.29.76s-1 1-1.13.94a.35.35.0 0 1 .08-.29 5.09 5.09.0 0 0-.3.5c-.29-.52-.67.24-1 .24.0-.75 1.25-.69 1.31-1.42-.2.16-1.15.48-1.15.78.34-.12.0.24-.12.28.23-.25-.46.0-.43.0a4 4 0 0 0-.56.46c-.39.26-1 .3-1.25.7a3.38 3.38.0 0 1 .2-.56c-.41.23-.95 1.47-1.43 1.13-.17.09.09.41-.21.32a.9.9.0 0 1-.54-.57 4.11 4.11.0 0 1-.23-1.56c-.05-1.15.28-2.94-.76-3.67-.82-.59-1.2-1.3-2.32-.8-.64.29-2 1.18-1.7 2 .41-.78 1.45-1.32 2.05-1.91a.52.52.0 0 1-.16.47c.58-.3-.23.55-.26.58.14.0.77-.55.86-.28.0.06-.28.14-.3.22-.08.31.0.27-.13.62a6 6 0 0 1-1.14 1.32c-.41.45-.82.9-1.25 1.33a1.8 1.8.0 0 1-.55.48c-.23.09-.33-.15-.51.0.25-.2-.06.38-.08.4a6.15 6.15.0 0 0-.58.46 11.85 11.85.0 0 1-1.51 1.29 18.4 18.4.0 0 1 2.26-2.88c-.31-.31-2.43 2.62-3 2.62.0-.8 2-1.44 1.83-2.09-.07-.24-1.28.63-1.18.82.07-.28-.39.18-.48.28a6.84 6.84.0 0 0-.56.74c-.27.36-.73 1.21-1.25 1.21a8.64 8.64.0 0 1 1.16-3.49c.62-1.35 1.26-2.69 1.88-4.05a3 3 0 0 0 .45-1.68c-.11-.56-.46-.45-.83-.74s-.27-.47-.76-.48c-.32.0-1.09.2-.9.67-.8-.29-1.78 2.84-2 3.35-.79 2.13-2.28 4.5-1.8 6.86.25.0.27-1.44.34-1.64s-.14.32-.15.24a1.88 1.88.0 0 1 .19-.8c.07-.24.14-.94.36-.69-.29-.49.47-1.72.61-2.28s.35-1.73 1.06-1.73a4.69 4.69.0 0 1-.54 1.66c-.29.67-.53 1.37-.78 2.05-.44 1.24-1.11 2.71-.71 4-.29-.1-.26-.45-.34-.69a3.66 3.66.0 0 0 .42 1.23c.22.23.55.32.79.58s.56.61 1.12.62zm.08-9.81s.16-.61.38-.61c-.01.21-.24.46-.38.61zm-1.29 8.73a.34.34.0 0 1-.26-.24c.18-.03.33.1.25.24zm-.1-.58c-.08-.28-.41-.38-.5-.66a1.86 1.86.0 0 1 .06-1 18.85 18.85.0 0 1 .65-2.34c.15-.43.56-2.28 1.14-2.28.0.13.0.26-.08.39.31-.39.08-1.1.44-1.48.66-.72.23.52.42.71-.27.0-1.27 3.6-1.34 4.1s-.26 2.56-.8 2.56zm9.92-8.92a.13.13.0 0 1-.16-.08c.24-.3.51.08.15.08zm6.66 5.06c-.23.0.07-.22.08-.22s.02.22-.09.22zm0-.42c-.11-.08-.11-.14.0-.2s.23.2.03.2z"/><path d="m144.11 23.21c.13-.07.22-.16.2-.27zm2.37 5.23c.14.0.24-1 .24-1.06-.15.0-.25 1-.24 1.06zm-1.23-6.44c.05-.06.4-.46.34-.46zm.38-.58a.27.27.0 0 0 .24-.22c-.12-.02-.18.08-.24.18zm-.14-.24a.83.83.0 0 0 .25-.28.32.32.0 0 0-.25.24zm.33-.5c.13-.12.24-.15.24-.35a1.35 1.35.0 0 0-.24.31zm1 6.58c0-.09.06-.11.0-.2-.18.04-.18.11-.02.16zm.12-.86.06-.4c-.18.0-.09.25-.08.36zm-.66 3.11a1 1 0 0 0 .22-.7c-.26-.04-.28.5-.24.66zm.42.0c.26.0.0-.26-.06-.3s-.08.3.04.3zm-4.16-3.35c.22-.31 1-1.07 1-1.47-.32.0-.96 1.31-1.02 1.47zm-.54.7a.94.94.0 0 0 .3-.42c-.21.0-.3.26-.3.42zm.9-1.85c.15.0.36-.44.38-.48s-.4.37-.4.47zm1-.68.06-.22c-.2.0-.29.16-.11.22zm.14-.46c.25.0 1.11-1.4 1.1-1.67a8.31 8.31.0 0 0-1.14 1.67zm.44-1.13c.07-.07.24-.19.24-.3a.32.32.0 0 0-.29.3zm2.59 3a.58.58.0 0 0 .14-.32c-.21.09-.21.16-.21.29zm.18-.78a1.26 1.26.0 0 0 .22-.52c-.19-.03-.26.39-.27.49zm.18 3.51.2-.6c-.3.05-.25.26-.25.57zm.24-4.85a1.83 1.83.0 0 0 .28-1.11 3 3 0 0 0-.33 1.08zm2-6.81.14-.24c-.22-.03-.16.15-.18.21zm-8.25 10.9c.28.0.34-.44.44-.62a.36.36.0 0 1-.28.06c-.15-.12.94-1.28.94-1.45-.56.0-.86 1.18-1.1 1.55.16-.1-.16.3-.04.43zm-3.49.56c-.28-.42.12-1.13.25-1.54.25-.72.45-1.46.74-2.18a14 14 0 0 1 2.36-3.88 19.38 19.38.0 0 0-2.51 5c-.13.25-.61 2.57-.88 2.57zm15.49-21.1c0-.16.0-.63.24-.67.0.11-.04.67-.24.67zm-1.56 6.14c.06-.26.24-.86.48-1a1.63 1.63.0 0 1-.48 1zm1.34-7.23c.19-.36.38-.76.54-1.14.03.17-.29 1.14-.54 1.14zm-14.73 21.7a18.22 18.22.0 0 1 .94-3.16 6.37 6.37.0 0 1 1.27-2.38c0 .45-.41.86-.55 1.26a8 8 0 0 1-.31.8c-.58 1.11-.82 2.36-1.35 3.48zm4.13-.4.5-.66a4.76 4.76.0 0 1-.5.66zm.66-.9.43-.62c0 .24-.27.47-.43.62zm.59-.81.22-.32c.12.0-.17.3-.22.32zm.22-.36a2.45 2.45.0 0 1 .36-.46c0 .15-.25.37-.36.46zm6.08-10.54c0-.13.28-.86.4-.86-.04.09-.23.86-.4.86zm-4.28 19.92c0-.08-.07-.13-.05-.24s.05.22.05.24zm.12-2.17c0-.18.0-.57.19-.7a1.7 1.7.0 0 1-.18.7zm.15-.82c0-.08-.06-.13.0-.24s0 .21.0.24zm0-.55c-.12-.12-.12-.2.0-.22a.13.13.0 0 1 .04.22zm.2 1.25c0-.15.0-2 .3-2 .12.6-.29 1.34-.26 2zm.34-2.19c0-.05-.11-.46.08-.46a.87.87.0 0 1-.04.46zm1.52-2.75c-.09.0.0-.28.12-.28a2.36 2.36.0 0 1-.08.28zm2.69-11.1c.19.0.06-2.53.89-2.53a9.77 9.77.0 0 1-.85 2.53zm2.25-7.75c.21-.61.33.0.04.0zm-.14-1c.1-.16.08-.28.34-.28a.36.36.0 0 1-.34.3zm.9-1.61a1.93 1.93.0 0 1 .08-.5c.26-.04.02.37-.08.5zm-.14.36c-.16.0.0-.24.14-.24s-.07.2-.14.2zm-6.68 30.44a16 16 0 0 1 0-6.42c-.16.25-.2-.71.0-.91v.68c.32-.32-.15-2.89.62-2.73-.17-.2.0-.3.0-.5.07-.36-.3-.18.24-.3-.17.15-.36-.41-.08-.58-.06.1.0.16.0.19.62-.14.64-1.31.74-1.74-.4.0-.28 1.46-.68 1.2s.46-1.6.37-2a43 43 0 0 0-1.15 4.6 6.38 6.38.0 0 1-.4 1.42c-.2.4-.51.71-.51.0-.47.0-.35 4.18-.44 4.44-.94-.62.09-3.47.26-4.33.26-1.33.46-2.67.82-4a20.36 20.36.0 0 1 1-3.88.73.73.0 0 0 0 .25c.08.05.27-1 .27-1a11.09 11.09.0 0 1 .67-2.31 10.54 10.54.0 0 0 .67-2.13c0-.25.0-1 .4-1a1.34 1.34.0 0 0-.1.44c.25.0.92-2.76.88-2.93a11 11 0 0 0 .91-2.15 23 23 0 0 1 1.24-3c-.23.0-.66 1.94-.66 2.19.72.0.29-1.63 1-1.63a6.54 6.54.0 0 1-.2.93 2.17 2.17.0 0 0 .08-.43c-.67.0-1.12 2.83-1.26 3.33a24.53 24.53.0 0 1-1 2.85c-.2.51-.87 1.78-.38 2.27-.77.0-.87 1.56-1 2.07-.34 1.45-1 2.84-.89 4.36.07-.24.21-.37.19-.57s-.23-.28-.21-.55a8.53 8.53.0 0 1 .61-1.71c.13-.49.33-2.55 1.05-2.55.0 1.67-1.07 3.09-1.51 4.64.27-.13.42-1.21.65-1.21-.46 2.93-1.51 5.73-2 8.66a14.73 14.73.0 0 0-.43 4.06c.15.4.7 1.75.23 1.98zm4.7-23.09c-.18.0.0-.26.0-.28.09.17.08.13.0.28zm-4.86 17.1c-.08.0-.15.0-.16-.12a.13.13.0 0 1 .16.12zm-.66-.24s-.13-.2-.1-.2c.2.02.24.08.1.2zm2.29-11.68a35.05 35.05.0 0 1 1.2-4.38c.29-.82 2.9-7.82 3.2-7.69.46.19-.82 2.36-1 2.63a34.63 34.63.0 0 0-1.83 4.72c-.19.72-.77 4.72-1.57 4.72zm-8.72 9.55c-.27-.92.7-2.6 1.06-3.42a18.36 18.36.0 0 1 1.94-3.46 6.85 6.85.0 0 1 2.07-2.21c1.36-.67.94.83 1.43 1.48.0.0.29-.23.31-.23-.42 1.5-1.55 2.66-2.4 3.91-.46.69-.91 1.37-1.41 2a6.42 6.42.0 0 1-.72.93c-.25.23-.67.3-.87.56.07-.19.0-.45-.24-.36.0-.05.13-.37.18-.37-.44.0-1.05.95-1.35 1.17zm5.54 6.77c0-.13.0-.27.0-.4a.42.42.0 0 0 0 .4zm2.63 2.79c.74.0-.06-.73-.21-1a5.41 5.41.0 0 1-.51-2.37 22.83 22.83.0 0 1 .82-6.31c1-4.25 2.55-8.36 3.84-12.53s3.06-7.79 4.64-11.68c.24-.59.59-1.43.0-1.93a1.89 1.89.0 0 0-1.66-.18c-.19.13-.29.58-.39.78-.23.45-.49.88-.72 1.33-.52 1-1 2.05-1.44 3.09-.93 2.18-1.8 4.38-2.59 6.6-.39 1.13-.76 2.26-1.15 3.38a4 4 0 0 1-.58 1.27c-.12.14-.69.42-.43.68-.31-.24-.17-.31.0-.56-.27.4-.72.09-1-.11a3.43 3.43.0 0 0-1.75-.54 4.57 4.57.0 0 0-3.38 1.54 20.44 20.44.0 0 0-3.25 5.4c-.74 1.74-1.23 4.1.74 5.22 2.13 1.22 3.73-.81 4.65-2.52.73-1.36 1.56-2.69 2.25-4.07.27-.53.76-2.23 1.52-2.23a4 4 0 0 0-.58 2.49c.37.0.61-1.86.68-2.22s.31-2.34 1-2.34a10 10 0 0 1-.74 2.76c-.27.91-.51 1.83-.74 2.75-.48 1.86-.94 3.75-1.24 5.64a12.62 12.62.0 0 0 0 5.12c.22.98.94 2.54 2.22 2.54zm-2.69-7c0-.11.1-.13.0-.24s-.02.24-.02.24zm-.12 2.33a3.11 3.11.0 0 0 .08-.74c-.22.01-.12.64-.1.75zm0 1.27a.78.78.0 0 0 0-.34.74.74.0 0 0 .02.35zm.12-4.4a.52.52.0 0 0 .12-.34.67.67.0 0 0-.1.35zm.89-4.5c.14-.14.7-1.88.54-1.88a4 4 0 0 0-.52 1.89zm-.16 1.19a.85.85.0 0 0 .08-.42c-.01.15-.03.29-.06.43zm-.39 1.83a2.1 2.1.0 0 0 .2-1.15c-.28.01-.23.96-.18 1.16zm-.14.52s.2-.16.12-.16c-.24.01-.06.1-.1.17zm.65-2.89c.1.0.16-.22.16-.58.02.23-.17.36-.14.59zm-.19 1.1a3.25 3.25.0 0 0 0-.44.3.3.0 0 0 .03.45z"/><path d="m151.46 26.4a.26.26.0 0 0 .18-.16c0-.34-.25.28-.18.16zm-.47-.93a.7.7.0 0 0 .19-.46.94.94.0 0 0-.18.46zm.69.39a.53.53.0 0 0 .2-.39c-.21.0-.16.27-.2.39zm-.39.5c.07.0-.22-.21-.22.0s.13-.01.22.0zm.17-1.95a5.58 5.58.0 0 0 .3-.66 1.07 1.07.0 0 0-.3.66zm.34-.82c.2.0.71-1.18.78-1.31-.32.0-.79 1.11-.78 1.31zm1.72 7.22c1.78.0 3.38-1.63 4.49-2.85a12.62 12.62.0 0 0 2.7-4.83c.51-1.57 2.49-1.38 3.61-2.32.48-.41.43-.7-.29-.54a7.13 7.13.0 0 0-1.06.47 15.07 15.07.0 0 1-1.62.48c.87-.62 2.3-.37 3-1.27a1 1 0 0 1-.54.06c0-.21.32-.1.32-.3-.45-.22-.89.15-1.2.31a3 3 0 0 1-2 .55c-.5-.16-.74-.72-1.2-1s-1.34-.48-2-.74c-.88-.38-1.13-.14-2 .09-.28.07-.44-.07-.66.0a1.92 1.92.0 0 0-.74.49c-.57.59-1.83 1.59-1.83 2.59 1 0 1.08-1.53 1.91-1.79a12.35 12.35.0 0 0-.93 1.52c-.17.32-.39 1-.74 1.17.36-.7-.22.0-.3.13a1.77 1.77.0 0 0-.24.8c.14.0.34-.32.4-.05s-.34.23-.41.37a10.55 10.55.0 0 0-.19 1c.32.0.56-.91.66-1.14a6.09 6.09.0 0 1 1.14-1.81c-1.21 2.17-1.66 4.63-2.42 7-.14-.39-.42.0-.08-.48-.28.0.0-.26-.12-.49.0.07-.06.41-.19.41-.28-.27-.06-.68.06-1 0-.12.19-.28.2-.41.0-.42.25-.16-.17-.32-.1-.15.42-.25.42-.35-.63-.21-.64.9-.7 1.29.0.2-.18 1.27-.47.65.28 1.58 1.67 2.19 3.19 2.31zm-1.06-7.18c-.16-.26.13-.58.36-.57a1.06 1.06.0 0 0-.36.57zm.12-.08a1.13 1.13.0 0 1 .24-.49c.11.11-.05.49-.24.49zm7.55-2.69.12-.18c-.78.1-.29-.32-.54-.77.29.09.9.77.42.95zm-2.91.56c-.16.0.76-1 .87-1.11.25-.29.27-.62.74-.44s.46.78.6 1.11c-.75.07-1.43.44-2.21.44zm1.88 2.21c0-.11.11-.26.22-.38.0.13-.06.38-.22.38zm-3.87 4.37c-.16.0.0-.14.0-.16s.09.16.0.16zm1.48-.12h-.14c.23-.18.28-.16.14.0zm-3.89 1.71c-1-.12.33-2.82.51-3.23.6-1.36 1-3.53 2.79-3.7a16.28 16.28.0 0 1 1.71.05 8.38 8.38.0 0 1 .86.0c.4.0.43.0.46.33.06.78-1.31 2.05-1.74 2.63a15.11 15.11.0 0 1-2.62 2.62c-.49.45-1.29 1.3-1.97 1.3zm4.32-2.05s1-1.62 1-1.38c.16.0.75-.81.34-.73a4.12 4.12.0 0 1 .33-.43c.16-.25.28-.54.43-.8a9.64 9.64.0 0 0 .48-1c.24-.56.84-1 .75-.07a4.91 4.91.0 0 1-1.07 2.53c-.28.28-.47.35-.65.69s-.16.68-.57.68c-.08-.26.21-.51.34-.7-.43.35-.74 1.21-1.38 1.21zm-5.76-1.34c-.15-.16.0-.45.08-.61-.28.0-.4.55-.08.61zm-1 2.08a1 1 0 0 0 0-.6.83.83.0 0 0-.05.6zm.08-.9c.24.0.36-1.48.44-1.48-.31.0-.47 1.25-.49 1.48z"/><path d="m178.88 24.53c.37.0 1-.74 1.08-1.06-.34.29-.96.62-1.08 1.06zm1.2-1.06a1 1 0 0 0 .52-.53 1 1 0 0 0-.52.53zm.08.4s.41-.32.28-.32a.62.62.0 0 0-.28.32zm1.21-.32c.23.0.6-.48.74-.65-.25.0-.63.47-.74.65zm.26-1.39c.23-.15.11-.34-.1-.44.0-.01-.01.44.1.44zm.4.2c.13-.13.4-.3.4-.48-.24-.03-.29.27-.43.48zm-12.11 1.07c.16.0.32-.33.32-.45-.15.02-.32.34-.32.45zm-.2.4c.45-.44-.5.0.0.0zm1.17-1.75c.2-.1 1.07-.36 1-.66s-.89.51-1 .66zm1-.86a.45.45.0 0 0 .16-.5.72.72.0 0 0-.18.5zm-3.63 3.47c0-.51.55-.83.52-1.36-.21.0.0.61-.36.38.24.46-.75.46-.18.98zm.74-1.06a2.84 2.84.0 0 0 .32-.5s.48-.38.42-.55c.18.0.55-.06.55-.3-.46-.28-.79.3-1 .61-.07.11-.55.74-.29.74zm1.14-1.51.2-.12c-.06.0-.32-.11-.32.0zm8.07 3.11c.17-.16.65-.33.65-.62.0.0-.54.34-.57.33a.23.23.0 0 1 .1-.17c-.1.03-.39.46-.2.46zm-6.4-3.15.19-.08a.19.19.0 0 0-.28.0zm-1.06.5a.88.88.0 0 0 .56-.58c-.31.16-.84.22-.58.58zm-9.06 5.06a.4.4.0 0 0 0-.34c-.1.12-.05.22-.02.34zm2.69-5a6.44 6.44.0 0 0 .34-.7c-.28.06-.36.44-.36.68zm-.24 8.07c1.08.0 1.73-1.13 2.34-1.86.76-.94 1.61-1.79 2.43-2.67s1.7-1.77 2.52-2.69c.2-.22 1.07-1.39 1.4-.81.16.0-.08-.54.12-.54.31.4.18 1 .25 1.43.13.0.0-.34.16-.34.0.21-.09 1.59.2 1.36-.27.53.46.84.46 1.33-.36-.08.4.94.46 1a3.79 3.79.0 0 0 1.7 1.2 1.18 1.18.0 0 0 1 0c.26-.21.22-.43.59-.59a4.64 4.64.0 0 0 1.49-.86c.48-.41 4.21-3.61 3.17-4.23a.48.48.0 0 0-.16.34c.48-.18-.2.67-.28.76s-1 1-1.13.94a.32.32.0 0 1 .08-.29 2.55 2.55.0 0 0-.3.5c-.3-.52-.68.24-1 .24.0-.75 1.25-.69 1.32-1.42-.21.16-1.16.48-1.16.78.35-.12.0.24-.12.28.24-.25-.46.0-.43.0a4 4 0 0 0-.56.46c-.39.26-.95.3-1.24.7a2.2 2.2.0 0 1 .2-.56c-.42.23-.95 1.47-1.44 1.13-.17.09.09.41-.2.32a.94.94.0 0 1-.55-.57 4.11 4.11.0 0 1-.23-1.56c-.05-1.15.29-2.94-.75-3.67-.83-.59-1.21-1.3-2.33-.8-.63.29-2 1.18-1.7 2 .42-.78 1.46-1.31 2.06-1.91a.55.55.0 0 1-.16.47c.57-.3-.24.55-.26.58.13.0.77-.54.86-.28.0.06-.28.14-.3.22-.08.31.0.27-.13.62a6 6 0 0 1-1.15 1.32c-.41.45-.81.9-1.24 1.33a1.73 1.73.0 0 1-.56.48c-.22.09-.33-.15-.5.0.24-.2-.07.38-.09.4-.18.18-.4.25-.58.46a11.74 11.74.0 0 1-1.47 1.29 17.83 17.83.0 0 1 2.26-2.88c-.31-.3-2.44 2.62-3 2.62.0-.8 2-1.44 1.84-2.09-.08-.23-1.28.63-1.18.82.07-.28-.39.18-.48.28a8.52 8.52.0 0 0-.57.74c-.27.36-.73 1.21-1.24 1.21a8.62 8.62.0 0 1 1.15-3.49l1.71-3.66a4.92 4.92.0 0 0 .63-1.71c0-.65-.29-.76-.75-1.09s-.46-.47-.91-.45-1 .18-.84.63c-.79-.29-1.77 2.84-2 3.35-.79 2.13-2.26 4.5-1.79 6.86.25.0.27-1.44.33-1.64s-.13.32-.15.24a2 2 0 0 1 .19-.8c.08-.24.14-.94.36-.69-.29-.49.47-1.72.61-2.28s.36-1.73 1.07-1.73a4.52 4.52.0 0 1-.55 1.66c-.28.67-.53 1.37-.78 2.05-.44 1.24-1.1 2.71-.71 4-.28-.1-.26-.45-.33-.69a4.19 4.19.0 0 0 .35 1.28s.33.05.38.09a4.26 4.26.0 0 1 .42.43 1.61 1.61.0 0 0 1.17.63zm.12-9.79s.15-.61.38-.61c-.02.19-.25.44-.4.59zm-1.3 8.73a.35.35.0 0 1-.26-.24c.17-.05.3.08.24.22zm-.1-.58c-.07-.28-.4-.38-.5-.66a2 2 0 0 1 .07-1 18.85 18.85.0 0 1 .65-2.34c.14-.43.55-2.28 1.14-2.28.0.13-.06.26-.08.39.3-.39.08-1.1.43-1.48.66-.71.24.52.43.71-.27.0-1.27 3.6-1.35 4.1s-.26 2.54-.81 2.54zm9.93-8.92c-.08.0-.14.0-.16-.08.23-.32.49.06.14.06zm6.65 5.06c-.23.0.08-.22.08-.22s.02.2-.1.2zm0-.42c-.21-.15.07-.26.12-.12z"/></g></svg>