<svg fill="none" viewBox="0 0 26 26" xmlns="http://www.w3.org/2000/svg"><path d="m12.8318.0h-.0063c-6.88491.0-12.483703 5.8305-12.483703 13 0 2.8438.880323 5.4795 2.377183 7.6196l-1.55617 4.8295 4.79963-1.5973c1.97448 1.3617 4.32976 2.1482 6.86936 2.1482 6.8849.0 12.4837-5.8321 12.4837-13 0-7.16787-5.5988-13-12.4837-13zm7.2657 18.3576c-.3012.8856-1.4968 1.6201-2.4505 1.8346-.6524.1447-1.5047.2601-4.3735-.9782-3.66959-1.5827-6.03272-5.4649-6.2169-5.7168-.17638-.2518-1.48282-2.0556-1.48282-3.92107.0-1.8655.90998-2.77388 1.27678-3.16388.30125-.32013.79916-.46638 1.27678-.46638.15453.0.29344.00813.41831.01463.3668.01625.55098.039.79292.64188.30124.75562 1.03483 2.62112 1.12223 2.81287.089.19175.178.45175.0531.70365-.1171.26-.2201.3753-.4043.5964-.18415.2209-.35897.39-.54315.6272-.16857.2064-.359.4274-.14672.8093.21228.3737.94587 1.6201 2.02597 2.6211 1.3939 1.2918 2.5239 1.7046 2.9282 1.8801.3012.13.6602.0991.8803-.1446.2794-.3137.6244-.8336.9755-1.3455.2498-.3673.5651-.4128.896-.2828.3371.1219 2.1212 1.04 2.488 1.2301.3668.1918.6087.2828.6977.4437.0874.1609.0874.9165-.2139 1.8037z" fill="currentcolor"/></svg>