<svg width="424" height="346" viewBox="0 0 424 346" fill="none" xmlns="http://www.w3.org/2000/svg"><circle opacity=".15" cx="214" cy="173" r="173" fill="url(#paint0_radial)"/><g filter="url(#filter0_d)"><path d="M157.533 192.676H159.007V191.201H157.533V192.676zM157.533 213.687V215.162H159.007V213.687H157.533zM145.221 213.687V212.213H143.747V213.687H145.221zM145.221 233.222V234.696H146.696V233.222H145.221zM122.404 233.222H120.93V234.696H122.404V233.222zM122.404 213.687H123.879V212.213H122.404V213.687zM68.0694 213.687H66.5949V215.162H68.0694V213.687zM68.0694 192.676 66.7582 192.001 66.5949 192.319V192.676H68.0694zM106.317 118.314V116.84H105.417L105.006 117.64 106.317 118.314zm24.295.0L131.924 118.986 133.023 116.84H130.612V118.314zM92.5282 192.676 91.2159 192.004 90.1166 194.15H92.5282V192.676zM122.404 192.676V194.15H123.879V192.676H122.404zm0-27.25V163.952H120.93V165.426H122.404zM145.221 165.426H146.696V163.952H145.221V165.426zm0 27.25H143.747V194.15H145.221V192.676zM156.059 192.676V213.687H159.007V192.676H156.059zM157.533 212.213H145.221V215.162H157.533V212.213zM143.747 213.687V233.222H146.696V213.687H143.747zM145.221 231.747H122.404V234.696H145.221V231.747zM123.879 233.222V213.687H120.93V233.222H123.879zM122.404 212.213H68.0694V215.162H122.404V212.213zM69.5438 213.687V192.676H66.5949V213.687H69.5438zM69.3805 193.35 107.628 118.989 105.006 117.64 66.7582 192.001 69.3805 193.35zM106.317 119.789h24.295V116.84H106.317V119.789zM129.299 117.642 91.2159 192.004 93.8406 193.348 131.924 118.986 129.299 117.642zM92.5282 194.15H122.404V191.201H92.5282V194.15zM123.879 192.676v-27.25H120.93v27.25H123.879zM122.404 166.901H145.221V163.952H122.404V166.901zM143.747 165.426v27.25H146.696v-27.25H143.747zM145.221 194.15H157.533V191.201H145.221V194.15zM177.737 219.269 176.551 220.146 176.556 220.152 176.561 220.159 177.737 219.269zm0-86.838L176.557 131.547 176.556 131.549 177.737 132.431zm67.631.0L244.183 133.308 244.187 133.314 245.368 132.431zm0 86.838L246.549 220.151 246.553 220.146 245.368 219.269zM194.152 203.838 192.893 204.606 192.899 204.616 194.152 203.838zM228.953 203.674 227.703 202.891 227.699 202.898 227.694 202.906 228.953 203.674zm0-55.976L227.694 148.466 227.699 148.473 227.703 148.481 228.953 147.698zM211.552 234.045C197.648 234.045 186.824 228.822 178.912 218.378L176.561 220.159C185.065 231.384 196.784 236.994 211.552 236.994V234.045zM178.922 218.391C171.064 207.773 167.064 193.611 167.064 175.768H164.115C164.115 194.038 168.212 208.877 176.551 220.146L178.922 218.391zM167.064 175.768C167.064 157.923 171.065 143.82 178.918 133.314L176.556 131.549C168.212 142.711 164.115 157.499 164.115 175.768H167.064zM178.916 133.316C186.83 122.764 197.654 117.49 211.552 117.49V114.542C196.778 114.542 185.059 120.212 176.557 131.547L178.916 133.316zM211.552 117.49C225.564 117.49 236.382 122.767 244.183 133.308L246.553 131.554C238.158 120.209 226.432 114.542 211.552 114.542V117.49zM244.187 133.314C252.04 143.82 256.041 157.923 256.041 175.768H258.99C258.99 157.499 254.892 142.711 246.549 131.549L244.187 133.314zM256.041 175.768C256.041 193.611 252.04 207.773 244.183 218.391L246.553 220.146C254.892 208.877 258.99 194.038 258.99 175.768H256.041zM244.187 218.386C236.388 228.819 225.57 234.045 211.552 234.045V236.994C226.426 236.994 238.151 231.386 246.549 220.151L244.187 218.386zM192.899 204.616C197.116 211.41 203.398 214.833 211.552 214.833V211.885C204.386 211.885 199.067 208.961 195.405 203.061L192.899 204.616zM211.552 214.833C219.719 214.833 226 211.344 230.211 204.442L227.694 202.906C224.026 208.917 218.707 211.885 211.552 211.885V214.833zM230.202 204.457C234.461 197.665 236.501 188.043 236.501 175.768H233.552C233.552 187.788 231.542 196.77 227.703 202.891L230.202 204.457zM236.501 175.768C236.501 163.387 234.462 153.708 230.202 146.914L227.703 148.481C231.541 154.6 233.552 163.635 233.552 175.768H236.501zM230.211 146.93C226 140.027 219.719 136.538 211.552 136.538V139.487C218.707 139.487 224.026 142.455 227.694 148.466L230.211 146.93zM211.552 136.538C203.386 136.538 197.105 140.027 192.893 146.93L195.411 148.466C199.078 142.455 204.398 139.487 211.552 139.487V136.538zM192.893 146.93C188.75 153.72 186.768 163.392 186.768 175.768H189.717C189.717 163.63 191.674 154.589 195.411 148.466L192.893 146.93zM186.768 175.768C186.768 188.144 188.75 197.816 192.893 204.606L195.411 203.07C191.674 196.947 189.717 187.905 189.717 175.768H186.768zM356.152 192.676H357.627V191.201H356.152V192.676zM356.152 213.687V215.162H357.627V213.687H356.152zM343.841 213.687V212.213H342.366V213.687H343.841zM343.841 233.222V234.696H345.315V233.222H343.841zM321.023 233.222H319.549V234.696H321.023V233.222zM321.023 213.687H322.498V212.213H321.023V213.687zm-54.334.0H265.214V215.162H266.689V213.687zM266.689 192.676 265.377 192.001 265.214 192.319V192.676H266.689zM304.936 118.314V116.84H304.037L303.625 117.64 304.936 118.314zM329.231 118.314 330.543 118.986 331.643 116.84H329.231V118.314zm-38.084 74.362L289.835 192.004 288.736 194.15H291.147V192.676zM321.023 192.676V194.15H322.498V192.676H321.023zm0-27.25V163.952H319.549V165.426H321.023zM343.841 165.426H345.315V163.952H343.841V165.426zm0 27.25H342.366V194.15H343.841V192.676zM354.678 192.676V213.687H357.627V192.676H354.678zM356.152 212.213H343.841V215.162H356.152V212.213zM342.366 213.687V233.222H345.315V213.687H342.366zM343.841 231.747H321.023V234.696H343.841V231.747zM322.498 233.222V213.687H319.549V233.222H322.498zM321.023 212.213H266.689V215.162h54.334V212.213zM268.163 213.687V192.676H265.214V213.687H268.163zM268 193.35 306.247 118.989 303.625 117.64 265.377 192.001 268 193.35zM304.936 119.789H329.231V116.84H304.936V119.789zM327.919 117.642l-38.084 74.362L292.46 193.348 330.543 118.986 327.919 117.642zM291.147 194.15H321.023V191.201H291.147V194.15zM322.498 192.676v-27.25H319.549v27.25H322.498zM321.023 166.901H343.841V163.952H321.023V166.901zM342.366 165.426v27.25H345.315v-27.25H342.366zM343.841 194.15H356.152V191.201H343.841V194.15z" fill="#2057da"/></g><defs><filter id="filter0_d" x=".736984" y="48.6837" width="422.748" height="254.168" filterUnits="userSpaceOnUse" color-interpolation-filters="sRGB"><feFlood flood-opacity="0" result="BackgroundImageFix"/><feColorMatrix in="SourceAlpha" type="matrix" values="0 0 0 0 0 0 0 0 0 0 0 0 0 0 0 0 0 0 127 0"/><feOffset/><feGaussianBlur stdDeviation="32.929"/><feColorMatrix type="matrix" values="0 0 0 0 0.121569 0 0 0 0 0.305882 0 0 0 0 0.741176 0 0 0 1 0"/><feBlend mode="normal" in2="BackgroundImageFix" result="effect1_dropShadow"/><feBlend mode="normal" in="SourceGraphic" in2="effect1_dropShadow" result="shape"/></filter><radialGradient id="paint0_radial" cx="0" cy="0" r="1" gradientUnits="userSpaceOnUse" gradientTransform="translate(214 173) rotate(90) scale(140 157.331)"><stop stop-color="#427aff"/><stop offset="1" stop-color="#427aff" stop-opacity="0"/></radialGradient></defs></svg>