<svg fill="none" height="16" viewBox="0 0 20 16" width="20" xmlns="http://www.w3.org/2000/svg"><g fill="#427aff" stroke="#427aff" stroke-width=".4625"><path d="m1.24981 4.79355h2.6783c.30562 1.08067 1.30015 1.875 2.47795 1.875s2.17232-.79433 2.47795-1.875h9.86579.2313V4.5623v-.9375-.23125h-.2313-9.86579c-.30563-1.08066-1.30015-1.875-2.47795-1.875-1.17782.0-2.1723.79434-2.47795 1.875h-2.6783-.23125v.23125l-1e-5.9375v.23125zm3.98127-.69997c0-.64773.52729-1.175 1.175-1.175.64773.0 1.175.52727 1.175 1.175.0.64772-.52727 1.175-1.175 1.175-.64775-3e-5-1.175-.52728-1.175-1.175z"/><path d="m1.24981 12.4498h9.86579c.3057 1.0806 1.3002 1.875 2.478 1.875 1.1777.0 2.1722-.7944 2.478-1.875h2.6782.2313v-.2312-.9375-.2313h-.2313-2.6782c-.3057-1.08066-1.3003-1.875-2.478-1.875-1.1779.0-2.1723.79434-2.478 1.875H1.24981h-.23125v.2313l-1e-5.9375v.2312zm11.16879-.7c0-.6477.5272-1.175 1.175-1.175.6477.0 1.175.5273 1.175 1.175s-.5273 1.175-1.175 1.175c-.6478.0-1.175-.5272-1.175-1.175z"/></g></svg>