<svg fill="none" viewBox="0 0 24 24" xmlns="http://www.w3.org/2000/svg"><g fill="currentcolor"><path d="m18.4478 15.8762c-.7532-.7741-1.6934-.7741-2.4417.0-.5709.5893-1.1417 1.1787-1.703 1.778-.1535.1648-.283.1997-.4701.0898-.3694-.2097-.7627-.3795-1.1177-.6092-1.655-1.0838-3.04132-2.4771-4.26936-4.0453-.60922-.7791-1.15129-1.6131-1.53025-2.552-.07676-.1898-.06236-.3147.08634-.4695.57085-.57432 1.12731-1.16363 1.68856-1.75294.78192-.81904.78192-1.77792-.0048-2.60196-.44612-.46945-.89225-.92892-1.33837-1.39837-.46052-.47944-.91623-.96387-1.38155-1.43832-.75313-.7641-1.69335-.7641-2.44169.005-.57564.58931-1.1273 1.1936-1.71254 1.77293-.54206.53437-.815494 1.18861-.873059 1.95272-.091143 1.24354.201479 2.41717.614019 3.56084.84428 2.3672 2.12989 4.4698 3.68892 6.3975 2.1059 2.607 4.61955 4.6696 7.56008 6.1578 1.324.6692 2.696 1.1836 4.1879 1.2685 1.0265.06 1.9188-.2097 2.6335-1.0437.4893-.5694 1.041-1.0888 1.5591-1.6331.7675-.8091.7723-1.7879.0096-2.587-.9115-.9539-1.8277-1.9028-2.7439-2.8517z"/><path d="m17.5301 11.8961 1.7701-.3146c-.2783-1.69301-1.0458-3.22622-2.2115-4.4448-1.2328-1.2835-2.7918-2.09256-4.5092-2.34227l-.2494 1.85284c1.3288.19478 2.5376.81905 3.4922 1.81289.9019.9389 1.4919 2.12754 1.7078 3.43594z"/><path d="m20.2992 3.88547c-2.0435-2.12752-4.6291-3.470954-7.4833-3.88547l-.2495 1.85284c2.4657.35958 4.7011 1.52322 6.4664 3.35608 1.6742 1.74297 2.7727 3.9454 3.1709 6.36758l1.7701-.3146c-.4653-2.80676-1.7366-5.35379-3.6746-7.37643z"/></g></svg>