<svg viewBox="0 0 11 15" height="16" width="16" fill="none" xmlns="http://www.w3.org/2000/svg">
<path d="M3.35771 8.22035C3.69713 8.26951 4.56508 6.2287 4.62748 6.18332C4.68989 6.13793 5.93981 6.23674 5.77482 5.57112C5.39899 5.88927 5.22266 5.54465 5.23968 5.2941C5.2567 5.04307 5.57485 4.51029 5.65853 4.54622C5.7422 4.58262 5.88639 4.8795 6.18705 4.60437C5.7318 4.64786 5.83911 3.98177 5.98046 3.90188C6.12228 3.82246 6.67208 3.57947 6.83139 3.42489C6.9907 3.2703 7.003 2.78291 7.32777 2.89022C7.65254 2.99753 7.41286 3.68867 7.50977 3.92126C7.60668 4.15385 8.48503 4.89605 8.47038 5.13006C8.45572 5.36453 8.08651 5.32246 8.09455 5.6496C8.09455 5.78196 8.32477 5.88076 8.33092 6.03535C8.33754 6.18994 8.08226 6.30623 8.08226 6.30623C8.08226 6.30623 8.30114 6.36627 8.25859 6.59838C8.2151 6.83002 7.93476 6.76006 7.84494 6.80828C7.80287 6.83144 8.27561 7.35004 7.92342 7.74099C7.60574 8.11493 6.01592 7.72114 5.71006 7.83979C5.13473 8.0634 4.65821 8.83916 4.97542 9.20648C5.29215 9.57333 6.38654 10.7575 6.67066 11.7413C7.15805 13.0309 5.96344 15.2821 5.29546 13.6493C4.34999 14.2856 6.32698 16.6223 9.10007 13.1056C11.225 10.246 10.1859 5.03976 9.55815 3.87021C8.9313 2.70112 6.00883 -1.33796 2.87268 0.449941C-1.02836 2.58105 0.827138 7.73721 3.35771 8.22035Z" fill="currentColor"/>
</svg>

