<svg fill="none" height="16" viewBox="0 0 16 16" width="16"><g><path d="m2.00941 2.31012c0-.20607.16362-.37029.37029-.37029h3.4487c.17386.0.42745.05393.69466.16449.2674.11064.48342.25107.60402.37167l6.82802 6.82807c.1416.14157.1429.37474-.0018.51949l-4.06017 4.06015c-.1441.1441-.37904.1423-.51949.0019l-6.82807-6.8281c-.12239-.1224-.26266-.33796-.37256-.60354-.10983-.26539-.1636-.51859-.1636-.69514z" fill="currentcolor" stroke="currentcolor" stroke-linecap="round" stroke-linejoin="round" stroke-width="1.33913"/><path clip-rule="evenodd" d="m4.35396 5.28775c.55468.0 1.00434-.44966 1.00434-1.00435s-.44966-1.00435-1.00434-1.00435c-.55469.0-1.00435.44966-1.00435 1.00435s.44966 1.00435 1.00435 1.00435z" fill="#171e28" fill-rule="evenodd"/></g></svg>