<svg fill="none" height="16" viewBox="0 0 16 16" width="16"><clipPath id="a"><path d="m0 0h16v16H0z"/></clipPath><g clip-path="url(#a)"><path d="m13.5658 6.16104c-.031-.05153-.076-.0944-.1304-.12423s-.1162-.04554-.1792-.04554H8.5953l.78142-5.61933c.00839-.075206-.01036-.150879-.05323-.214836-.04287-.0639571-.10736-.1124757-.18308-.1377443-.07573-.02526849-.15829-.02581648-.23438-.0015557-.0761.0242608-.14131.0719186-.18513.1353l-5.6682 9.346316c-.03314.05074-.05131.10888-.05262.16843-.00132.05955.01427.11836.04515.17035s.07593.09529.13051.12543c.05459.03014.11673.04607.18001.04607h4.59129l-.61926 5.6278c-.00609.0749.01463.1496.05886.2122s.10943.1094.18523.1331c.07579.0237.15782.0229.23304-.0024.07522-.0252.13931-.0734.18207-.1369l5.57452-9.34533c.0323-.05082.0498-.10879.0505-.16802 8e-4-.05922-.0152-.11758-.0462-.16911z" fill="currentcolor"/></g></svg>