<svg width="32" height="32" viewBox="0 0 32 32" fill="none" xmlns="http://www.w3.org/2000/svg">
<circle cx="16" cy="16" r="16" fill="#1A232F" fill-opacity="0.5"/>
<path d="M20.8491 13.1094C21.1248 13.1094 21.3159 12.8307 21.2125 12.5752C20.8455 11.6679 19.9554 11.0261 18.918 11.0261H18.4385C18.2597 10.0815 17.4315 9.33337 16.418 9.33337H15.5847C14.5719 9.33337 13.7432 10.081 13.5642 11.0261H13.0847C12.0473 11.0261 11.1572 11.6679 10.7902 12.5752C10.6868 12.8307 10.8779 13.1094 11.1536 13.1094H20.8491ZM15.5847 10.1146H16.418C16.9883 10.1146 17.4725 10.4983 17.6354 11.0261H14.3673C14.5303 10.4983 15.0144 10.1146 15.5847 10.1146Z" fill="white"/>
<path d="M12.2271 21.578C12.2706 22.1885 12.7841 22.6667 13.396 22.6667H18.6075C19.2195 22.6667 19.733 22.1885 19.7764 21.578L20.3239 13.8906H11.6797L12.2271 21.578ZM17.07 15.9805C17.0808 15.765 17.2645 15.5989 17.4796 15.6099C17.6951 15.6207 17.861 15.8041 17.8503 16.0195L17.6419 20.1862C17.6315 20.395 17.4589 20.5573 17.2521 20.5573C17.0272 20.5573 16.8505 20.3692 16.8616 20.1472L17.07 15.9805ZM14.524 15.6099C14.7391 15.5991 14.9228 15.7651 14.9336 15.9805L15.1419 20.1472C15.153 20.3693 14.9762 20.5573 14.7515 20.5573C14.5447 20.5573 14.3721 20.395 14.3616 20.1862L14.1533 16.0195C14.1426 15.8041 14.3085 15.6207 14.524 15.6099Z" fill="white"/>
</svg>

