<svg fill="none" viewBox="0 0 69 69" xmlns="http://www.w3.org/2000/svg">
    <filter id="a"
        color-interpolation-filters="sRGB"
        filterUnits="userSpaceOnUse"
        height="38.7501"
        width="45"
        x="12"
        y="16">
        <feFlood flood-opacity="0" result="BackgroundImageFix"/>
        <feColorMatrix in="SourceAlpha" type="matrix" values="0 0 0 0 0 0 0 0 0 0 0 0 0 0 0 0 0 0 127 0"/>
        <feOffset dy="1"/>
        <feGaussianBlur stdDeviation="3"/>
        <feColorMatrix type="matrix" values="0 0 0 0 0.980392 0 0 0 0 0.113725 0 0 0 0 0.321569 0 0 0 0.87 0"/>
        <feBlend in2="BackgroundImageFix" mode="normal" result="effect1_dropShadow"/>
        <feBlend in="SourceGraphic" in2="effect1_dropShadow" mode="normal" result="shape"/>
    </filter>
    <circle class="upload-circle" cx="34.5" cy="34.5" fill="#1a232f" r="34.5"/>
    <g class="upload" fill="#fa1d52" filter="url(#a)">
        <path d="m43.9132 29.2816c-.9556-4.7602-5.1988-8.2816-10.1007-8.2816-5.687 0-10.3125 4.6255-10.3125 10.3125 0 .2324.0096.4703.0302.7219-3.1033.33-5.5302 2.9631-5.5302 6.1531 0 3.4114 2.7761 6.1875 6.1875 6.1875h6.875c.3795 0 .6875-.308.6875-.6875s-.308-.6875-.6875-.6875h-6.875c-2.6537 0-4.8125-2.1587-4.8125-4.8125s2.1587-4.8126 4.7671-4.8139c.0303.0055.1142.0137.1444.0137.187-.0302.3946-.0825.528-.2323.1334-.1513.1939-.3534.165-.5528-.0715-.495-.1045-.9047-.1045-1.2898 0-4.928 4.0095-8.9375 8.9375-8.9375 4.4151 0 8.2143 3.2972 8.8371 7.6697.0482.3452.4125.5858.7879.5803 3.4114 0 6.1875 2.7761 6.1875 6.1875s-2.7761 6.1875-6.1875 6.1875h-6.875c-.3795 0-.6875.308-.6875.6875s.308.6876.6875.6876h6.875c4.1704 0 7.5625-3.3921 7.5625-7.5625 0-3.9751-3.0827-7.2435-7.0868-7.5309z"/>
        <path d="m33.8112 47.7501c.3795 0 .6875-.308.6875-.6875v-12.0904l1.5771 1.5758c.2681.2681.704.2681.9721 0 .2682-.2682.2682-.704 0-.9722l-2.75-2.75c-.132-.1306-.308-.2008-.4867-.2008-.088 0-.1774.0165-.2627.0523-.2571.1059-.4249.3575-.4249.6353v13.75c0 .3795.3081.6875.6876.6875z"/>
        <path d="m30.5758 36.5479c.2681.2682.704.2682.9721 0l2.75-2.75c.2682-.2681.2682-.704 0-.9721-.1347-.1334-.3107-.2008-.4867-.2008s-.352.0673-.4854.2008l-2.75 2.75c-.2682.2682-.2682.704 0 .9721z"/>
    </g>
</svg>