<svg fill="none" height="28" viewBox="0 0 17 28" width="17" xmlns="http://www.w3.org/2000/svg" xmlns:xlink="http://www.w3.org/1999/xlink"><mask id="a" height="26" maskUnits="userSpaceOnUse" width="16" x="1" y="0"><path d="m16.3228.108398-15.03246 11.469902 4.80963 14.3489 2.91497-.7573z" fill="#c4c4c4"/></mask><g mask="url(#a)"><path class="check" clip-rule="evenodd" d="m2.35137 42.0021.07911.2775.02726-.0921c.01363-.046.02726-.0921.01862-.1537.00499-.1076-.00365-.1692-.02592-.1848-.0359.0305-.08543.1071-.09907.1531zm33.10443-9.5741c.01-.0205.022-.0448.0367-.0733l.109-.3684c.15-.5066.2962-1.1824.4884-2.104s.2939-1.6285.3052-2.1207c.0063-.3845.0572-.738.1031-.9838-.0086-.0616.005-.1076.0322-.1997.0409-.1382.02-.4306-.0491-.9234-.1546-.3857-.2064-.7553-.1778-1.1243.0186-.1537.0149-.3229-.0246-.4617-.0037-.1692-.0346-.2464-.0791-.2775-.0223-.0155-.0173-.1232.0236-.2613l.0718-.061-.1609-.0012c-.0043-.0308-.0031-.0577-.0018-.0846.0012-.0269.0025-.0539-.0019-.0847.0137-.046-.1013-.293-.3809-.7104-.2659-.4635-.595-.8043-1.0181-1.0997-.3341-.2333-.6595-.4049-.9899-.4689-.3304-.0639-.4913-.0651-.5322.073l.0346.2464-.1509-.2164c-.2673-.1866-.9058-.299-1.938-.3528-.9962-.0842-1.5148-.0573-1.5284-.0112l.0755.1082c.0531.0927.12.1394.209.2015.1114.0778.2141.0939.3168.1101.125.0316.1968-.0294.2104-.0754.0137-.0461.0718-.061.1609.0012l.0396.1387c.0359-.0305.0495-.0765.0631-.1226.0359-.0305.1609.0012.4195.1262.1114.0777.2141.0939.2946.0945.0804.0005.2326-.0599.3985-.1663l.0618.1543.375.095c.0607.0154.1226.0317.1864.0485.1991.0523.416.1094.6662.1578.2503.0484.4671.1055.6662.1578h.0001c.0638.0168.1257.0331.1863.0485.093.0061.1687.014.2294.0203.1113.0116.1719.0179.1951-.0018l.1077-.0915.1064.1854c-.0545.1842.0741.3851.3859.6028.0668.0466.0618.1543-.0063.3845l.2736-.198-.14.2913.0618.1543c.1782.1244.2895.2021.2982.2637.0223.0155.0309.0771.0036.1692l-.1436.1221c-.0043-.0308-.0052-.0732-.0061-.1155s-.0018-.0846-.0062-.1154c-.0086-.0616-.0395-.1387-.1286-.2009-.0582.0149-.3749-.0951-.9503-.3301-1.459-.5184-3.4564-.5793-5.9874-.2902-.1968.0293-.2995.0131-.3218-.0024-.0095-.0067-.015-.0105-.0192-.009-.0056.002-.0089.0133-.0167.0395-.0408.1381-.1126.1992-.1795.1525l-.1063-.1854-.1709.2141-.0618-.1543c-.0446-.0311-.0668-.0466-.1027-.0161l-.0409.1382.0173.1231-.0718.0611-.2573-.4019.0073.3385-.0273.0921-.2895-.2021c-.245-.1711-.4281-.1878-.5272-.0347-.0545.1842-.1931.1986-.3936.0586l-.1695-.0627c-.1695-.0628-.25-.0634-.2636-.0174-.2018.137-.5235.1346-.9567.0545-.0693.0072-.1442.0105-.219.0138-.0749.0033-.1498.0066-.2191.0138-.1386.0143-.2327.0598-.2599.1519l.0073.3385-.1955-.2476c-.0495.0765-.099.1531-.1263.2452-.0136.046-.0495.0765-.0854.1071-.0223-.0156-.0668-.0467-.1027-.0162l.0618.1543c.052.0363.1962.036.4473.0355.0715-.0002.1516-.0003.2408.0003 1.0371-.0539 1.7438-.1717 2.1423-.338.2327-.0598.5545-.0574.9431-.0084l.7153-.0563.255-.0443c.2742-.0368.5113-.0663.7122-.0913h.0001c.4347-.054.6997-.0869.8038-.1282.1523-.0605.2513-.2136.2922-.3517l.2054.0323c.0669.0466.0755.1082.0619.1543l.0173.1231c.1299-.0759.2463-.1058.3713-.0741.2227.1554.7944.2212 1.6793.2277.9739.0687 1.777.3515 2.3783.7713.4009.2799.6941.6513.8932 1.0681l.2745.5251-.824-.5753c-.2227-.1555-.5172-.25-.8476-.3139l-.5618-.2811-1.537-.0728c-.25-.0634-.4554-.0957-.6163-.0969-.0805-.0006-.1745.0449-.2104.0754-.0299.0254-.2395-.036-.6236-.1485l-.0007-.0002-.0029-.0008c-.0758-.0222-.1584-.0464-.2477-.0723-.3972-.1106-.6027-.1429-.6163-.0969-.0545.1842-.5063.2578-1.3689.2668l-3.9666.5092c-.2464.028-.4839.0538-.7122.0785-.5965.0645-1.1308.1224-1.5997.1968-.6349.0569-1.1449.1454-1.458.2046-.3304-.0639-.6076-.0352-.8539.0706l-1.7402.341c-4.5138.9052-6.8307 1.2881-6.9644 1.1948-.0623.0195-.1215.0381-.1777.0559h-.0001c-.2907.0916-.4981.157-.6143.169l-.09327.0299c-.06995-.3024-.14001-.5533-.20456-.7437.46513-.1104 1.08503-.255 1.86043-.4358l.0003-.0001h.0001l.0006-.0001c.801-.1868 1.7678-.4123 2.901-.6787l1.7538-.387.0885-.0266c.4583-.1375.8122-.2437 1.0391-.242.2104-.0754.3317-.213.3863-.3972.0408-.1381.0322-.1997-.0346-.2464-.1559-.1088-.3391-.1255-.6077-.0352-.1745.0449-.3181.1669-.4308.366-.0768.1687-.1845.2602-.3008.2901-.1164.0299-.2327.0598-.3354.0437.0273-.0921.1127-.1992.2922-.3517l.2513-.2135c-.1114-.0778-.5186.0269-1.2352.3601-.6449.2721-.994.3619-1.1053.2841-.0891-.0622-.2141-.0938-.3663-.0334-.4295.0891-.6758.195-.7303.3792-.0409.1381-.0905.2147-.1573.168-.0668-.0466-.0618-.1543-.0073-.3385-.0668-.0466-.1695-.0627-.2499-.0633-.255.0442-.4209.1507-.4754.3349-.0136.0461-.0718.061-.1522.0604-.377-.2126-1.2731-.0983-2.70494.3314-.03576-.1431-.10158-.3748-.19752-.694l.10821-.3656c.11135.0777.1918.0783.20543.0323l.06449-.3995c.01364-.0461.05818-.015.12499.0317l.1559.1088c.02227.0155.05817-.015.09906-.1531.04088-.1382.07678-.1687.09908-.1531l.1509.2165c.0668.0466.1163-.03.1795-.1526s.135-.1836.2018-.1369l.1954.2476c.0891.0621.1832.0167.3045-.1209.239-.4443.499-.5963.8021-.4402.1473.0473.2636.0173.3491-.0897.0854-.1071.1572-.1681.2017-.137.0054.0381.0022.0702-.0022.1146v.0001c-.0027.0274-.0058.0595-.0077.1006.0086.0616.0618.1543.1509.2165.089.0622.2549-.0443.484-.2733.2513-.2136.3949-.3356.4617-.2889l.1509.2165-.0073-.3385c.0136-.0461.0359-.0305.0582-.015.0581-.0149.1695.0628.3477.1872.089.0622.5185-.027 1.297-.2058.7785-.1789 1.1771-.3452 1.2043-.4373-.2449-.171-.8662-.1602-1.8997.0629-2.1201.3536-3.8157.7257-5.12276 1.1468l.16356-.5526c1.1386-3.4837 2.1087-6.3071 2.9151-8.5779.6975-1.9025 1.2414-3.4676 1.623-4.757.3953-1.33546.5702-2.38026.5246-3.13439-.0096-.78464-.2878-1.47895-.79-2.05185l-.1337-.09328c-.2672-.18658-.5631-.00415-.9098.53172-.2476.38277-.3876.67402-.4557.90427-.0669-.04664-.1028-.01614-.1164.02991.0891.0622.011.50774-.2344 1.33665-.1908.64471-.5847 1.70327-1.1731 3.23727l-.2045.6908v.0001c-.0818.2762-.1363.4604-.1277.522l-.0049.1076-.0632.1226c-.2068.2447-.3467.5359-.4421.8583-.0409.1381-.0732.3379-.0918.4916-.0117.0964-.0092.1809-.007.257.0013.0452.0025.0874.0007.1275.0086.0616.0173.1232.0036.1693l-.0445-.0311c-.02228-.0156-.05818.0149-.09907.1531-.08178.2763-.13265.6297-.15261 1.0603-.00498.1077-.00133.2769.02459.4617-.23269.0598-.37629.1818-.43081.366l-.18717.814c.09042-.2147.18084-.4294.244-.552.07679-.1687.12632-.2452.1486-.2297-.09541.3224-.43848 1.0275-1.0292 2.1154l.1795-.1525c.09407-.0455.15225-.0605.21906-.0138.02227.0155.03091.0771.01728.1232-.12632.2452-.27126.6441-.43483 1.1967-.23171.7829-.37665 1.1818-.44845 1.2428-.01807-.0126-.06303.0656-.12302.2431-.01915-.0581-.03848-.1167-.058-.1758-.82983-2.4945-1.48786-4.3735-1.97852-5.5464-.46169-1.1756-.82963-1.9089-1.1328-2.1975-.2742-.2911-.58622-.3987-.93385-.3681l-.27495.0243c-.57976.0512-1.14331.3518-1.54463.8238l-.07206.0848c-.19256.2368-.34073.4259-.46489.5844l-.00054.0007c-.05373.0686-.10297.1314-.14936.1899-.12473.1912-.19152.3773-.20037.5583.11386.6206.31905 1.1431.61337 1.6126.13378.2135.31664.6028.57756 1.1653.51249 1.1248 1.35667 3.5037 2.52056 7.0939-.56914.185-1.38196.467-2.43359.8493-1.719233.6334-3.031266 1.1622-3.89155 1.6174-.84666.4091-1.41609.7895-1.72192 1.1872-.2922.3517-.50894.8116-.6725 1.3642l-.55883 1.888.06511 1.3235c.02317.3649.04456.6475.06249.8843l.0002.0026c.0077.1018.01476.1951.02104.2829.03457.2464.09639.4007.18548.4629.37994-.0126.75623-.1945 1.15114-.53.17951-.1525.47536-.3349.90118-.5933.27165-.1612.62777-.3413 1.067402-.5403 1.077993-.1007 2.162978-.3325 3.284208-.7402.52809-.1818.82442-.3431.86445-.5719.03118-.0478.06236-.0956.09133-.0981l-.08228.5028c-.00221.0452.02454.0879.08248.0828.11588-.0102.20943-.1536.30961-.4328.00828-.0321.01475-.0592.02017-.0819.01791-.0751.02439-.1022.04662-.1042l.02897-.0025c.02897-.0026.02676.0427.02012.1784s.04687.2211.16275.2109c.11587-.0103.23396-.0657.35426-.1664.1181-.0555.18046-.1511.18267-.1964l-.10702-.1707.1203-.1007c.20278-.0179.31645.0171.3098.1528.01117.0666.01509.1338.01902.2011.00392.0672.00784.1344.01901.201.0231-.002.04605-.0041.06885-.006l-.77802 3.0963c-1.09807 4.3454-1.59642 6.6647-1.49504 6.9577.09773.1238.09639.4007-.00401.8307-.0645.3995-.05221.6304.05915.7081l.20542.0323c.11136.0777.15955.2781.20275.5861.04321.3079.11367.5238.18049.5705.08908.0622.21905-.0138.35402-.1974.13496-.1836.34307-.7051.58841-1.534.51794-1.7499.96907-3.5465 1.34475-5.4513.17853-.8756.24802-1.3827.15029-1.5065-.00864-.0616-.01728-.1232-.00365-.1692l.21772.2631c.02227.0155.05817-.015.08543-.1071.05452-.1842.0286-.369-.06414-.6004-.0123-.0215-.02296-.0388-.03189-.0533l-.00011-.0002h-.00001c-.02958-.0481-.04027-.0654-.02981-.1008l.01363-.046c.01363-.0461.0359-.0305.10271.0161.06682.0466.13862-.0144.19314-.1986s.08677-.3839.09675-.5992c.03225-.1998.01497-.323-.0073-.3385l-.14361.122.00998-.2153c.09541-.3223.1722-.491.23901-.4444.04022.0003.07704.0121.11385.024.03682.0118.07363.0236.11385.0239.1988-.6717.37699-1.2617.53285-1.7685 1.38021 4.7859 2.72042 9.8002 4.02283 14.9979 1.301 5.2459 2.3767 9.791 3.2515 13.723.8749 3.9321 1.2791 6.284 1.2459 6.9626l-.0712.2766c-.0052.106.0222.264.0664.5184.0124.0714.0261.1504.0408.238.1362.7538.2881 1.7765.4222 3.1611.0895 1.1183.1322 2.0155.1012 2.6489-.0243.4977-.1044.9553-.2402 1.3727-.1068.4149-.2316.6061-.3207.659l-.2673.1587c-.4925.0435-1.3016-.5157-2.4274-1.6777l-.7178-.6574-.5172-.6301c-.2185-.251-.3567-.3739-.4146-.3688s-.1716-.0299-.3098-.1528c-.1382-.123-.5217-.5396-1.09239-1.2551-.1895-.2535-.29874-.379-.35668-.3739l-.19373.4225c-.02897.0026-.02676-.0427-.02454-.0879-.04024-.3568-.22089-.7914-.51078-1.3514-.45264-.7709-.75138-1.15-.86725-1.1398l-.06237.0957c.12493.3944.27883.7862.46169 1.1755l-.2742-.2911c-.515-.6753-.87389-1.004-1.01874-.9913-.02897.0026-.06015.0504-.06236.0956-.00222.0453.02454.088.10923.1255.0847.0376.16497.1657.21626.2963-.01106.2262.04245.3116.15833.3014l.1203-.1008-.06236.0956c-.00443.0905.02011.1785.07362.2638.0513.1306.10482.216.1873.2988s.1382.123.19614.1179l.06236-.0956-.00885.1809-.06236.0956.32107.5123.04244.3116-.16717-.1204c-.00885.181.06699.3995.19856.6582l.14725.5275c-.00664.1358-.00885.181-.03782.1836l-.02897.0025c-.11587.0103-.16939-.0751-.16053-.2561-.08691.0077-.22954-.0248-.36775-.1477s-.24744-.2484-.35447-.4192c-.35668-.3739-.57736-.5797-.72221-.5669-.02897.0025-.0869.0077-.14263-.0325-.05572-.0401-.19172-.2083-.37901-.5071-.09365-.1494-.18674-.3101-.27983-.4708s-.18619-.3214-.27983-.4708l.55725.4012c.05794-.0051.08691-.0076.08912-.0529l.00221-.0452c.00885-.181-.06699-.3995-.20077-.613-.13378-.2134-.26977-.3816-.35225-.4644s-.10481-.216-.09817-.3517c.00664-.1358-.09817-.3517-.28325-.6958-.18729-.2988-.44821-.8614-.78719-1.5973-.28546-.6505-.49729-1.0372-.66004-1.2481-.08027-.1281-.13378-.2135-.15833-.3014-.02675-.0427-.04908-.1758-.03802-.4021l-.11587.0103c-.08691.0076-.11367-.035-.13599-.1682.00442-.0905.00885-.181-.01791-.2237l.12031-.1007c.14484-.0128.22511.1153.26977.3816.06699.3995.69806 1.6502 1.89544 3.7068 1.19517 2.1019 1.86628 3.1238 1.98215 3.1136.00886-.181-1.25551-2.6371-3.79089-7.4137l-.59989-1.2985c-.1539-.3918-.25871-.6078-.3434-.6454-.08469-.0375-.16939-.0751-.25629-.0674-.20279.0179-.30298.297-.33175.8852.04687.2211.12272.4396.22753.6556.21183.3867.4973 1.0373.88314 1.9943l.00005.0001c.18285.3892.3657.7785.55076 1.1225.21405.3415.31886.5575.31444.648l-.12473.1912c-.01107.2262.32569 1.0073 1.01249 2.2982.44158.9971.67353 1.5622.66689 1.698l-.4281-.683c-.00221.0452.07363.2638.20298.5677.07667.1801.1729.3743.27665.5837.07131.1439.14616.295.22065.4536.52848.9894.84955 1.5016.9944 1.4889.14484-.0128.25851.0222.3432.0598l-.00443.0904-.16938-.0751c-.00443.0905.3434.6454 1.01451 1.6673.81153 1.0996 1.41344 1.7673 1.77459 2.0507.39.2809.867.5542 1.4599.8172.5928.263.9895.4081 1.1923.3902s.3722.0573.4525.1853c-.0017.0348.0149.0413.0611.0595.014.0055.0306.0121.0503.0208l.2318-.0205c.3186-.0281.7286-.1544 1.2857-.3387.557-.1843.9714-.4011 1.2432-.6504.2117-.1988.4189-.3072.5659-.3653.0312-.0478.0602-.0503.1181-.0554.0869-.0077.2406-.2015.4901-.5839.167-.4652.3541-.752.5635-.9056.0891-.0529.1804-.1511.245-.292.0913-.0981.1247-.1912.1292-.2816.0022-.0453.0623-.0957.1492-.1033l.0536.0854-.0447-.2664c.0156-.0239.0306-.0365.0457-.0491.015-.0126.03-.0252.0456-.0491.029-.0025.1314-.3269.2805-1.0158.178-.6914.2714-1.4204.3134-2.2801.0332-.6786.0352-1.3095-.0229-1.89-.0582-.5805-.1028-.8468-.1897-.8391l-.1248.1912.0757-.3671c.0266-.5429-.0919-1.6587-.3533-3.3925-.2345-1.6911-.3952-2.5329-.4242-2.5303l-.0378.1835c-.0356.1383-.0423.2741-.0511.455-.0111.2262.009.4047.0291.5831.0179.2236.0714.309.1004.3065.029-.0026.0535.0853.0447.2663l-.0646.1409c.0268.0426.0557.0401.0847.0375.0267.0427.0446.2664.0493.7615-.0111.2262.009.4046.0314.5378.0223.1332.0981.3517.2029.5677l-.0668.1861.0538.671c.0086.1085.0172.2197.026.3342.0275.3573.0575.7465.1015 1.1862.044.4396.074.8288.1015 1.1861.0088.1145.0173.2257.026.3343.0229.1568.0399.2861.0535.3897.025.1903.0386.2937.056.3214l.0802.128-.0712.2766c-.1159.0102-.1893.3321-.2203.9655-.0066.1357-.0668.1861-.2116.1988l.1851.3441-.1984-.0726-.0668.1861c-.0177.3619-.0287.5882-.0599.636-.0022.0452-.0334.093-.0914.0981l-.107-.1707c.0156-.0239.0384-.0485.0613-.073.0228-.0245.0456-.0491.0612-.073.0312-.0478.0646-.1408.0735-.3218-.0246-.0879-.0538-.671-.0875-1.7492-.128-2.6916-.6573-6.0235-1.5277-10.046-.0714-.3091-.0915-.4875-.0893-.5327.0012-.026.0018-.037-.0035-.0413-.0038-.0031-.0109-.0025-.0233-.0014-.0869.0077-.1404-.0777-.1338-.2134l.0712-.2766-.1649-.1656.0668-.1861c.0044-.0905.0066-.1358-.0201-.1785l-.0869.0077-.0624.0956-.0535-.0853.1468-.6437-.1826.1963-.058.0051.0288-.5881c.0243-.4977-.0181-.8093-.1295-.8896-.1159.0103-.1628-.2108-.1429-.618l-.0135-.3142c-.0134-.3141-.0358-.4473-.0647-.4447-.1316-.2587-.2209-.7914-.2992-1.5503-.0234-.1105-.0463-.2324-.0692-.3542v-.0001-.0002c-.0229-.1218-.0458-.2436-.0692-.3541-.0468-.2211-.0981-.3517-.1561-.3466l-.1827.1963.0801-.4575c-.0557-.0402-.1114-.0803-.1694-.0752-.0289.0026-.0557-.0401-.0825-.0828.0023-.0452.0067-.1357-.0201-.1784l-.0668.1861c-.0051.1056.0356.3436.1066.7579v.0001.0001c.0203.118.0429.2502.0677.3978.3214 1.6834.5848 2.7864.7877 3.3541.0982.3517.1875.8844.2702 1.5528l.2322 1.1508.0959.397c.0974.4328.1802.8084.2504 1.1266l.0001.0001c.1518.6884.2444 1.1082.2963 1.2576.0758.2186.1873.2988.2742.2911l.0402.3569c-.0066.1357-.0378.1835-.0668.1861l-.0623.0956c.078.1733.1271.3491.145.5728-.0221.4524.103 1.4325.3486 2.8974.2368 1.6458.3086 3.1261.2489 4.3477-.0399.8144-.16 1.5007-.3314 2.0564l-.2092.7393.0819-1.6741c.0221-.4524-.0093-.9902-.0674-1.5707l-.0048-1.0807-.3931-2.5781c-.0358-.4474-.076-.8042-.1207-1.0705-.0223-.1332-.0736-.2638-.1004-.3065-.0223-.0356-.0478-.415-.0946-1.1106v-.0001c-.0093-.1391-.0195-.2908-.0307-.4549-.0515-.7163-.0917-1.0731-.1207-1.0706-.1159.0103-.2833-.6957-.5311-2.1154l-1.3949-6.2737c-.0847-.3916-.1656-.7697-.2433-1.1333l-.0001-.0002c-.2032-.9498-.3852-1.8008-.5579-2.5348-.2098-1.0176-.4017-1.8115-.5222-2.2964-.0581-.5805-.1519-1.0227-.279-1.3719l-.6762-2.6882c-1.765-6.9618-2.62645-10.5798-2.61317-10.8512l-.08052-.2632c-.13189-.4302-.226-.7373-.26529-.9226l-.77189-2.4996c.23174-.0205.4323.0069.63287.0342h.00002c.02049-.0018.41585 1.4724 1.20658 4.4208v.0001c.3275 1.2213.7229 2.6955 1.1875 4.4225l.7052 2.6857.0394.1317v.0001c.2041.6818.3617 1.2084.4247 1.5841.1003.3065.2096.432.3254.4217.087-.0076.1181-.0554.1248-.1912.0155-.3167-.027-.6283-.1519-1.0227-.0736-.2638-.1807-.4345-.3211-.5122-.1136-.035-.1939-.1631-.243-.3389v-.0001c-.0491-.1758-.0982-.3517-.1183-.5301.058-.0051.1404.0777.2742.2911l.1873.2989c.0111-.2263-.1607-.8418-.5444-1.844-.3301-.9169-.4773-1.4445-.4663-1.6707.0089-.181-.009-.4046-.0849-.6232-.1695-.6607-.2967-1.0099-.4126-.9997-.0869.0077-.1426-.0324-.136-.1682.0067-.1357.0668-.186.1827-.1963.0066-.1357-.0135-.3141-.0358-.4473-.096-.397-.2008-.6129-.3166-.6027-.029.0025-.0536-.0854-.0759-.2186.0109-.8118-.3707-2.4449-1.14263-4.9445l.75323-.0665c-.0111.2262.0112.3594.0402.3568l.2362-.1109c.0289-.0026.0245.0879.0179.2237l-.0155.3167c-.0022.0452.0245.0879.1114.0802s.1137.035.1115.0803l-.0757.367c-.0066.1358.0491.1759.1338.2135.0847.0375.1382.1229.1316.2586l-.0801.4576c-.0088.181.0425.3116.1517.4371.3098.1528.4659.4994.4661 1.085.0157.269.0648.4448.1473.5276s.136.1682.1315.2587c-.0192.0295-.0377.0418-.0631.0588-.0158.0104-.0342.0227-.0572.0419-.0311.0478-.0667.1861-.0756.3671s.096.397.2855.6505c.1873.2988.2943.4696.2876.6053l-.0756.3671.1827-.1964c.0289-.0025.0267.0427.0245.088.0245.0879.0135.3141-.0042.676v.0001c-.0089.1809.1607.8417.4776 2.03.3168 1.1884.5198 1.7561.5777 1.751.0244-.4977-.1565-1.5179-.5693-3.1032-.79-3.3089-1.4705-5.9066-2.0684-7.836l.3476-.0307c2.2218-.0159 4.0358.0492 5.5021.145 1.2346.1162 2.2419.1624 3.053.0908.8401-.0741 1.4595-.3541 1.8583-.8397.4255-.443.726-1.2804.8972-2.4218l.0133-.2714c.0266-.5429-.1563-.9322-.5464-1.2131-.249-.1794-.4339-.2564-.5738-.2616 1.7886-.3002 3.4161-.5438 4.8948-.7342 2.4864-.3201 3.9121-.325 4.2462-.0918l.1064.1854c.0521.0364.1481.0356.3025.0344.0433-.0004.0913-.0007.1442-.0004.4604-.0119 1.068.0233 1.8538.1829.625.1585 1.1113.3313 1.4231.5489.245.1711.4404.4186.5863.7428.1596.2781.1941.5244.1755.6781l-.0558.4611c-.2318.7829-.9388 1.9007-2.1212 3.3534l-.7108.9486-.593.6417c-.2427.2751-.3776.4587-.4049.5508-.0272.0921-.104.2608-.239.4444s-.5485.6728-1.2133 1.3756c-.2291.2291-.3504.3666-.3777.4587l.1187.4162c-.0136.0461-.0359.0305-.0582.015-.2054-.0323-.5235.1346-.963.439-.6326.503-.9829.8696-1.0375 1.0538l.0173.1232c.2686-.0903.5508-.2267.8467-.4091l-.2922.3517c-.6153.6262-.9707 1.1005-1.0388 1.3307-.0137.0461-.005.1077.0172.1232.0223.0156.0582-.0149.1214-.1375.0631-.1226.1708-.2142.2649-.2596.1114.0777.1832.0167.2377-.1675l.01-.2153.0173.1232c.0445.0311.1027.0162.1745-.0448.094-.0455.1658-.1065.2513-.2136.0854-.107.1349-.1836.1622-.2757l-.0173-.1232.0891.0622.0173.1232.4308-.366.1832.0167-.1486.2297c.089.0622.2413.0018.4431-.1352l.349-.0897c.0668.0466.0891.0621.0755.1082l-.0137.046c-.0545.1843-.1263.2453-.2154.1831-.0409.1381-.1313.3528-.2663.5364-.1349.1836-.2563.3212-.3999.4432-.3776.4587-.598.7494-.6661.9796-.0137.0461-.0409.1382-.0905.2148-.0495.0765-.2067.2446-.458.4581-.1257.1067-.2569.2096-.3881.3125s-.2625.2057-.3881.3125l.4953-.7655c.0273-.0921.0409-.1382.0186-.1537l-.0223-.0156c-.089-.0622-.2413-.0018-.4208.1508-.1795.1525-.3367.3205-.4222.4276-.0854.107-.1658.1064-.2327.0598-.0668-.0466-.2326.0598-.5062.2578-.2513.2135-.6772.4719-1.2329.8062-.484.2734-.7935.5019-.9867.7004v.0001c-.1077.0914-.1795.1524-.2376.1674-.0359.0305-.1164.0299-.2277-.0478l-.0546.1842c-.0408.1381-.0767.1686-.1572.168-.0445-.0311-.0891-.0622-.125-.0317l.01-.2153c.0682-.2302.1759-.3217.3367-.3205.2414.0017 1.2144-.6526 2.8967-1.9786 1.7046-1.3104 2.5799-2.0885 2.6344-2.2727-.0891-.0622-2.0128 1.262-5.7933 3.957l-.9816.5928c-.2823.1363-.4481.2428-.5113.3654s-.1263.2452-.1672.3834c-.0954.3223-.0027.5538.2868.7559.1387-.0144.2909-.0748.4568-.1813.3095-.2284.7934-.5018 1.4879-.8505.2958-.1824.5917-.3648.8652-.5628.2872-.244.4531-.3505.4977-.3194l.0345.2464c.1114.0777.6895-.2411 1.712-.9719.7439-.4253 1.1561-.6376 1.2229-.591l-.5744.4881c.0223.0155.1745-.0449.3986-.1663.1327-.072.2829-.1708.4448-.2774.1113-.0732.2281-.1501.3486-.2244.7849-.5634 1.2157-.9295 1.2838-1.1597.0682-.2303.145-.3989.2081-.5215l.0446.0311-.1263.2452c.0445.0311.5112-.3655 1.3865-1.1436.9879-.9773 1.6441-1.7416 1.9772-2.2314.3467-.5359.7343-1.2099 1.1765-2.0681.4421-.8583.722-1.4408.8174-1.7631.0954-.3224.2217-.5676.3294-.6591.0171.0119.0291-.0124.0624-.0798zm-14.3789-5.7058c-.1321.0523-.3219.0894-.5696.1113-.0376.0033-.0775.0056-.1199.0071.2324-.0404.4622-.0798.6895-.1184zm-6.9324.2058c.0535.0243.1048.0471.1541.0685l.1074-.0276c-.0871-.0608-.1763-.0759-.2615-.0409zm3.788.3548c.0048.0007.0096.0013.0144.0019h.0001c.2005.0274.4011.0547.5727.0846s.254.1127.2518.158l-1.3527-.0608-.1727-.0532c.0895-.0175.179-.0349.2685-.0523.1401-.0263.2794-.0524.4179-.0782zm-3.5985.7325c-.0509.0658-.158.0979-.3222.1124-.0717.0063-.1285.0057-.1719-.0037.1645-.0365.3292-.0727.4941-.1087zm-2.904.6677c2.5229-.0616 4.0213-.0327 4.4539.0903l.2875.0196-.2964.1614c-.2072.1083-.5281.1817-.9047.215-.6662.0588-2.137.0535-4.3856.0267l-.0547-.2915c.2992-.0748.5992-.1487.9-.2215zm-1.0125.2497.0514.2736-.2274-.0701-.0568-.1447c.0775-.0197.1551-.0393.2328-.0588zm-.51856.1315-.00502.1027c-.18661.0165-.3456.0235-.4783.022.16088-.0418.32198-.0834.48332-.1247zm-3.0778 2.4669-.10361.35c-.01781-.0124-.00511-.1279.03898-.3495.02219-.0003.04373-.0004.06463-.0005zm-.90312.0313c-.43887 1.8304-.90118 3.8543-1.38691 6.0715-.68053 3.0255-1.10939 4.8376-1.25932 5.3442l-.16722.3834c-.04454-.0311.01631-.5999.21845-1.7368.12534-.9682.47741-2.6117 1.0203-4.8998.399-1.6396.8387-3.3582 1.33062-5.1478.08453-.0054.1659-.0103.24408-.0147zm-.12627-.4116.23027-.0203c.01379-.057.02755-.1139.04129-.1705-.09297.0245-.1722.0477-.23786.0697-.01126.0404-.02249.0808-.0337.1211zm1.07849-.1344c-.00317.0135-.00629.0268-.00937.04l.0275-.0024c-.00629-.01-.01246-.0226-.01813-.0376zm-3.29694-2.7695c.62547-.2265 1.35928-.4833 2.20203-.7709.02567.0814.05147.1632.07738.2454-.00076.0163-.00203.0322-.00365.0479zm-.58227.9409c.18653-.0515.29293-.0948.31673-.1316l.00005-.0001c.01329-.0205.02659-.0411.03963-.0607l-.60466.1271c-.00136.028.00918.0377.02375.0511.009.0083.01954.018.02976.0343l.17382-.0153zm-.63816.1482c.00511-.0011.01019-.0021.01526-.0032.07302-.0172.14103-.0614.16744-.1019.01762-.0147.03256-.0254.04494-.0342.02989-.0213.04483-.032.0464-.0639l-.16939-.0752c-.14485.0128-.23397.0657-.24061.2014l.02455.088.0869-.0077c.00817-.0007.01636-.0018.02451-.0033zm3.1924-2.587c-.50304.1129-.80886.1519-.91745.1171-.00959-.0067-.01505-.0105-.01924-.009-.00556.0019-.0089.0132-.01666.0395l-.0359.0305c-.01366-.0096-.08974.021-.23024.0773h-.00007l-.00017.0001c-.08851.0355-.20254.0813-.34261.1337-2.58816 1.027-4.0560886 1.447-4.367884 1.2293-.06681-.0467-.075454-.1083-.061823-.1543.040893-.1382.417185-.32 1.120237-.6071.71668-.3332 1.10162-.4534 1.12389-.4378.01376.0096.04124.0075.07921.0047.02347-.0017.05095-.0038.08167-.0036.21042-.0753.31812-.1668.33175-.2129l-.39357.0587c.01363-.0461.04953-.0766.1436-.1221.10771-.0915.20178-.1369.29585-.1824.09408-.0454.17452-.0448.24133.0018l.12864.2009c.06681.0467.15224-.0604.22039-.2906.08178-.2763.14494-.3989.18949-.3678l.01728.1232c.04089-.1382.13131-.3529.30716-.6747-.06681-.0466-.41584.0431-.98892.2543-.34039.1513-.53718.1806-.55945.1651.00964-.0326.3349-.1782.98543-.4694.26946-.1207.59472-.2663.97647-.4392.19423-.0842.37384-.1619.539-.2334h.00003.00004c.19081-.0826.36231-.1568.51476-.223.03025.0935.06072.1878.09139.2829-.10874.0921-.22739.0993-.33579.0718-.12499-.0317-.21906.0138-.25995.1519-.04089.1382-.00998.2153.0791.2775.10271.0161.20543.0323.32177.0024l.07911.2775c.06681.0466.16089.0011.27358-.198.00789-.0067.01565-.0134.02329-.0199.11875.3703.24051.752.36526 1.145zm2.55568-4.7797c-.0066-.0176-.01315-.0351-.01966-.0525l-.07933.268c.00926.0413.01649.0774.02167.1084l.05506-.186zm.31597.1918c1.28881-4.0269 2.08788-6.399 2.37708-7.0488l.1586-.445-.0695.5072c-.0509.3534-.1785.8755-.3557 1.4742-.2865.9677-.94728 2.973-1.9551 5.9924-.04971-.1541-.1015-.3141-.15538-.48zm.0515.7912-.0519-.1419c-.03844-.1021-.07576-.2014-.11198-.2979-.044.1377-.08854.2773-.13362.4186.05286.0874.11559.2062.18645.3536.03746-.1121.07447-.2229.11105-.3324zm.71652 1.9544c.09168.247.16011.4276.20634.5427-.13035.0393-.26509.0813-.40421.1258zm-1.20694-1.3696h-.00007c.00002 0 .00004-.0001.00006-.0002 0 .0001.00001.0002.00001.0002zm.04049-.1275c.03376-.106.06722-.2111.1004-.3152.01582.0259.03221.0578.04818.0984l-.00886.181-.05793.0051c-.03627.0032-.06283.0134-.08179.0307zm-.01954-1.033-.00204.0069c-.01371.0116-.02417.0256-.03311.0374-.01446.0193-.02492.0332-.03869.0236l.02677-.0904c.01525.007.03093.0145.04707.0225zm-.39566-.3017-.00725.0287-.10771.0915c-.0359.0305-.04953.0766-.06316.1226l-.06815.2303-.18486.854c-1.13505-3.3107-1.6991-5.2809-1.67002-5.8753.00664-.1357.03782-.1835.06679-.1861.08691-.0076.2921.5148.64677 1.5196.38363 1.0023.55765 1.5725.55543 1.6178-.00136.028.00749.0722.01972.1334h.00001c.00755.0378.01641.0821.02493.1329.10038.3065.18065.4346.20962.432l-.14283-.618c.02897-.0026.05573.0401.10702.1707.08027.1281.13157.2587.18287.3893s.07363.2638.06699.3995l-.07343.3218c-.00664.1358.07584.2186.22069.2058.10425-.0092.17643.0006.21657.0295zm-.76617 2.3937c-.03893-.1189-.07713-.2354-.11463-.3494-.14371.0554-.26702.0982-.3706.1292l.00159.0505.23914.8835c.0099-.0218.01891-.0426.0275-.0624.02407-.0554.04486-.1033.07268-.1463.02878-.0445.05465-.1098.08634-.1898.02284-.0576.0487-.1229.08087-.1935l-.13363-.0933zm.31074.955c-.02491-.0769-.04957-.1531-.07399-.2283-.10922.4443-.14829.6633-.11284.688.02876-.0244.09252-.1671.18683-.4597zm.27678-1.2882c.01345.0398.02644.0779.03893.1145l.04631-.0394.10904-.3684-.11634.03zm.20261.5865c.03504.1024.05331.1614.05236.1807l.02676.0427c.01236-.0011.01945-.0017.02334.0015.00523.0042.00468.0153.00342.0412.00198.034.00679.0765.01443.1274.04887-.1539.1016-.3261.15821-.5173l-.20044-.14zm-.26258 1.3736c-.02523-.0785-.05024-.1561-.07502-.233l-.08863.2995.11634-.0299c.01285.0001.02861-.012.04731-.0366zm-.27132.9368.01824.0674.02724-.0921zm1.3131.3289c.09461-.2981.1945-.5585.29438-.819.00539-.0181.30965-.0966.91447-.2409.05596.1969.13507.4442.23869.7438l-.81262.26zm-2.06097-3.3175c.09233-.0342.20069-.0648.32265-.0896-.83862-2.5433-1.30531-3.8023-1.41023-3.793-.01106.2262.12955.8895.39067 2.0377.29009 1.1457.46189 1.7612.51761 1.8013.0351.0253.07019.0506.09804.0765.012-.0053.02435-.0106.03706-.0157l-.02606-.5209c.02897-.0025.0513.1306.06699.3995zm1.43026-2.6526.04397-.1742c-.28748-.7692-.43272-1.1537-.45149-1.152-.00221.0452.0692.3543.24764.8341.05932.1783.1127.3426.15988.4921zm-6.12894 4.5607.03955.1388c-.01362.046-.04953.0765-.12133.1375-.05817.015-.11634.03-.16088-.0011l.05451-.1842c.08544-.1071.14361-.1221.18815-.091zm-.21808.7369.03955.1387c-.01363.046-.04953.0765-.12133.1376-.05817.0149-.11634.0299-.16089-.0012l.05452-.1842zm11.57028-3.5915c.0804.0006.125.0317.1695.0628l-.0718.061c-.0854.1071-.1436.122-.1881.0909-.0223-.0155-.031-.0771-.0173-.1232.0136-.046.0495-.0765.1077-.0915zm13.199-.2873c.1558.1088.209.2015.1954.2476l-.1163.0299c-.0891-.0622-.12-.1394-.0791-.2775zm7.9346-1.2953.0173.1232-.1609-.0012c-.0507-.0354-.0807-.0883-.0744-.1721.0573-.0124.1338-.0087.218.0501zm1.8395 2.2288c.0036.1692-.0014.2769-.015.3229l-.0618-.1542c-.0519-.3696-.1087-.6316-.1841-.7398l-.1337-.0933c.018-.0153.0304-.0344.0427-.0535.0124-.0192.0248-.0383.0428-.0536.0495-.0765.1299-.0759.1967-.0293.0669.0467.0978.1238.1014.2931.0259.1848.0296.354.011.5077zm-13.747 20.2974.0172.1232c-.0136.046-.1077.0915-.2599.1519-.1386.0144-.2327.0598-.2736.198-.0409.1381-.0991.1531-.1881.0909l-.0669-.0467c-.0222-.0155-.0086-.0616.005-.1076.0137-.0461.0632-.1226.1709-.2141s.2377-.1675.3318-.213c.1163-.0299.1967-.0293.2636.0174zm.2699-.3672.0791.2774c-.0409.1382-.0768.1687-.1436.1221-.0668-.0467-.0755-.1083-.0346-.2464zm2.7204-.6569c.0718-.061.13-.0759.1968-.0293-.0136.0461-.0631.1226-.1708.2141h-.0001c-.0718.061-.1436.122-.2376.1675-.0307-.0002-.0582.0018-.0816.0035h-.0001c-.038.0029-.0654.0049-.0792-.0047.0273-.0921.1486-.2297.3726-.3511zm4.0169-2.5856-.0272.0921c-.0137.0461-.1709.2141-.4717.5042-.2786.3056-.4222.4276-.4445.4121.0273-.0921.0905-.2147.2254-.3983.135-.1836.2786-.3057.4222-.4277.1572-.168.2513-.2135.2958-.1824zm-.0764-.8313c.1077-.0915.2018-.1369.2463-.1058l-.099.1531c-.0288.0445-.0773.094-.1366.1547-.0428.0437-.0912.0933-.142.1509-.0464.0525-.0875.1006-.1226.1417-.0568.0665-.0979.1145-.1201.1334l-.094.0455c.0136-.0461.0767-.1687.1622-.2758.099-.1531.1981-.3062.3058-.3977zm1.4191-2.3432-.0272.0921c-.4495.5197-.6785.7488-.723.7177.0681-.2303.3108-.5054.7502-.8098zm2.6999-12.1178c.0222.0156.0309.0772.0173.1232l-.26.1519-.0173-.1232c.0176-.0149.0265-.0225.0327-.0318.0065-.0097.0099-.0212.0169-.0447.0179-.0153.0324-.019.047-.0227.0145-.0038.0291-.0075.047-.0228.0359-.0305.0941-.0454.1164-.0299zm-.505-.0191c.0669.0467.0978.1238.0841.1699l-.1386.0143-.0618-.1543c.0136-.046.0495-.0765.1163-.0299zm-.2945-.0945c.0668.0467.0755.1083.0619.1543-.0409.1382-.1659.1065-.38.0126l-.2363-.1094c.0136-.0461.0495-.0766.1077-.0915l.2413.0018c.0805.0006.1609.0011.2054.0322zm-1.4566-.0722c.2054.0323.4109.0645.6299.0508-.0272.0921-.224.1214-.5817.1495-.1386.0144-.2859-.0329-.3972-.1106.0272-.0921.1436-.122.349-.0897zm-.7449-.2978c.0668.0466.0618.1543.0073.3385-.0409.1381-.135.1836-.2599.1519-.125-.0317-.2277-.0478-.2859-.0329-.0223-.0155-.0446-.0311-.0805-.0006l.265-.2595c.1795-.1525.2872-.244.354-.1974zm-1.3366.0671.6831.1434c-.0137.0461-.0855.1071-.2377.1675-.1163.0299-.255.0443-.4158.0431-.125-.0317-.25-.0634-.3168-.11-.0668-.0467-.0755-.1083-.0619-.1543.0137-.0461.0632-.1226.1437-.122.0167.0001.0325-.0004.0476-.001h.0001c.0574-.002.1048-.0036.1577.0333zm-1.2302.2524c.4022.003.6435.0048.7103.0514-.0136.0461-.13.076-.3713.0742-1.3107.2519-2.0706.277-2.2933.1215.0136-.046.1436-.122.354-.1973.6313-.2261 1.0916-.2381 1.3366-.0671l.2636.0173zm-2.0979.3692-.0136.046c-.0137.0461-.0359.0305-.1028-.0161-.089-.0622-.12-.1394-.1063-.1854.0409-.1382.0768-.1687.1436-.122.0891.0622.12.1393.0791.2775zm-.2982-.2638-.0136.0461c-.0136.046-.0273.0921-.0768.1686-.0359.0305-.0718.061-.0941.0455-.0891-.0622-.12-.1393-.0791-.2775.0409-.1381.0991-.1531.1882-.0909.0668.0466.089.0622.0754.1082zm-.479.1657c.0087.0616.0173.1232.0037.1693-.0409.1381-.1795.1525-.38.0126-.2004-.14-.3031-.1561-.344-.018-.0273.0921-.1795.1525-.4568.1813-.0214-.0034-.0419-.0061-.0614-.0087-.0743-.0097-.1357-.0178-.1885-.0547.0359-.0305.0854-.1071.1349-.1836.0496-.0766.1077-.0915.1746-.0449l.4208-.1507c.3267-.1053.5458-.1191.6572-.0413.0222.0155.0309.0771.0395.1387zm-1.6497.1263-.0273.0921c-.0136.0461-.0632.1226-.135.1836s-.1436.122-.224.1214c-.0307-.0002-.0582.0019-.0817.0036-.038.0028-.0654.0049-.0792-.0047l.0273-.0921c.2204-.2907.4085-.3816.5199-.3039zm-1.5148-.0573.6236.4353c-.0805-.0005-.2105.0754-.3182.1669s-.2104.0754-.2772.0287l-.0891-.0621c-.0086-.0616.01-.2153.0609-.5688zm-1.2316.5294c.1968-.0294.3663.0334.4777.1112l-.6845.1334c-.474.058-.7735.0712-.8849-.0065-.0222-.0156-.0309-.0772-.0172-.1232.094-.0455.1881-.091.3131-.0593.0223.0156.0445.0311.0804.0006s.0718-.061.0991-.1531l.1163-.0299c.1337.0933.3032.1561.5.1268zm-1.7475.0025c.1968-.0294.2995-.0132.3441.0179-.0137.046-.1214.1375-.3318.2129-.4345.1968-.8998.3164-1.3739.3745-.1967.0293-.3576.0281-.4467-.0341l.0991-.1531c.1795-.1525.7476-.256 1.7092-.4181zm-15.67681 14.5604c.00864.0616-.03225.1998-.10041.43-.06681-.0466-.06182-.1543.00633-.3845l.09906-.1531c.02227.0155.00865.0616-.00498.1076zm1.07811-3.9149-.04089.1382-.05817.0149c-.06681-.0466-.04819-.2003.01996-.4306l.12632-.2452c.01575.011.01354.0373.00914.0898h-.00001v.0001c-.00182.0217-.00402.0479-.00548.0794.00864.0616-.00998.2153-.05087.3534zm.25532-1.0442-.08178.2763c-.01371.0117-.02417.0256-.03311.0375-.01446.0192-.02493.0331-.03869.0235l.90226-3.5931c-.11902.5837-.23804 1.1674-.3657 1.6895zm3.42383-12.1124-.09541.3223-.11634.03.28988-.7979c.02227.0156.00365.1693-.07813.4456zm.89594-3.2086c.06681.0467.03456.2464-.07448.6148-.04089.1382-.11768.3068-.18084.4294-.02106.0409-.03812.0784-.05234.1096-.02844.0625-.04551.0999-.06035.0896zm.27991-.5825h-.00001c-.04089.1382-.06815.2303-.10405.2608l-.04953.0765c-.06681-.0466-.04819-.2003.04722-.5227.09541-.3223.1722-.491.23901-.4443l-.00499.1076c.00864.0616-.04587.2458-.12765.5221zm.62333-2.2876c.06681.0467.03456.2464-.07448.6148-.09541.3224-.15857.445-.22539.3983-.02227-.0155-.01728-.1231.03724-.3074zm.42119-1.1506c-.00499.1076-.08676.3839-.20942.7983l.119-.5836.109-.3684zm1.02528-5.0075-.1635.5526c-.0223-.0156-.031-.0772-.0037-.1693l.0954-.3223zm.4135-.4893c.1041-.2607.1895-.3678.2118-.3522l-.7297 2.1022-.1536.3373c-.0223-.0156-.0036-.1693.0645-.3995v-.0001c.0682-.2303.15-.5065.2676-.8133l.0002-.0005c.1176-.3066.2352-.6132.3392-.8739zm.217 2.263-.0372.3074c-.0409.1382-.0768.1687-.1436.122l.01-.2153zm-1.5214 1.3272c.2267-.6752.3716-1.0741.493-1.2117l-.77427 2.0711zm1.2006-.6065c.0669.0466.0482.2003-.0472.5227-.109.3684-.1858.537-.2526.4904l.2008-.86c.0409-.1381.0768-.1687.099-.1531zm-3.40079 10.1281.2995-.0132-.15358.3374-.28222.1363zm-1.34352 8.8972v.0001c.00864.0616.01728.1231.00365.1692l-.09407.0454-.07911-.2775c.01363-.046.06316-.1226.09906-.1531.04455.0311.07546.1083.07047.2159zm-1.30119 4.7594c.1363-.4605.18218-.7063.15991-.7219-.08178.2763-.12766.5221-.15991.7219zm6.8997-31.301c.1932-.19856.3145-.33612.3418-.42822l.0136-.04605c.0136-.04605-.0087-.0616-.0755-.10824-.125-.03169-.2104.07537-.2649.25957s-.0595.29185-.015.32294zm-3.90415 12.555c-.04089.1382-.03225.1998-.00998.2153l.08178-.2763c.04089-.1381.04588-.2458.02361-.2613zm22.95915 1.6922.1299-.076-.1236-.3086-.0718.061c-.0409.1382-.0236.2614.0655.3236zm-5.6856.1427c.0582-.015.0941-.0455.1077-.0915l-.0173-.1232-.4381.0275.0619.1543c.0445.0311.089.0622.1472.0473.0255-.0066.0484-.0043.0691-.0022.0265.0026.0494.0049.0695-.0122zm9.0528.3744.1609.0012-.0173-.1232c-.089-.0622-.1695-.0628-.2054-.0323zm-2.6383-.6194 2.0543.3228-.2672-.1866c-.5086-.1883-.9195-.2529-1.2772-.2248-.0981.0128-.1813.0218-.2503.0292h-.0001c-.1666.0179-.2498.0268-.2595.0594zm-1.5729-.0424.1609.0012-.0173-.1232-.1782-.1244c-.0409.1382-.0322.1998.0346.2464zm-9.9737 3.3725c.0668.0466.1027.0161.1436-.1221l-.0173-.1232-1.8429.3249c-.125-.0317-.2277-.0478-.3081-.0484-.0805-.0006-.1386.0143-.1523.0604l.0073.3385-.1781-.1244c-.0668-.0466-.1027-.0161-.1436.122-.0409.1382.0123.2309.1236.3086l.3886.049.6758-.195c.7339-.21 1.1189-.3302 1.1325-.3762l.0409-.1382c.0273-.0921.0632-.1226.13-.0759zm-9.8968-.5191c.13-.076.2018-.137.2154-.183-.0446-.0311-.1027-.0162-.1609-.0012s-.1163.0299-.1522.0604-.0718.061-.0855.1071c.0668.0466.125.0317.1832.0167zm1.8701-.417c.1164-.0299.1882-.0909.2154-.183-.0222-.0155-.0804-.0006-.1386.0144-.0582.0149-.1163.0299-.1522.0604s-.0718.061-.0855.1071c.0669.0466.125.0316.1609.0011zm9.7785-.8971c.1077-.0915.1795-.1525.2427-.2751-.0605-.0422-.18-.0344-.3648-.0224l-.0597.0039c-.2191.0138-.349.0897-.3627.1358l.0791.2775.3664.0334c.0207-.0176.0294-.025.0374-.0252.0059-.0001.0113.0037.0207.0103.0359-.0305.0718-.061.0855-.1071zm-1.1484-.0238c.089.0622.1472.0472.1881-.0909.008-.0272.0113-.0383.0081-.0461-.0022-.0054-.0076-.0092-.0167-.0155.0136-.0461-.0087-.0616-.0532-.0927l-.2417.0055h-.0001c-.8862.0201-1.5882.036-2.1097.131-.9617.1621-1.4766.3583-1.5583.6346-.0273.0921-.0187.1537.0482.2004.0668.0466.1027.0161.1299-.076l.01-.2153.3786.2643-.0073-.3385.3291.3409-.0346-.2464c.0273-.0921.0991-.1531.2241-.1214.1386-.0144.2636.0173.4195.1261.1559.1089.2586.125.2722.079.0273-.0922.0545-.1843.0904-.2148.0496-.0765.0855-.107.13-.0759.0223.0155.0309.0771.0037.1692-.0273.0921-.0187.1537.0259.1848.0326.0228.0725.0209.1231.0184h.0001c.0185-.0008.0384-.0018.0599-.0016.0805.0006.1968-.0294.3491-.0898.1522-.0604.2599-.1519.2872-.244l-.0668-.0466c.0408-.1382.2154-.183.5012-.1502.125.0317.2723.0789.4727.2189l-.0518-.3696zm1.7653 1.8436c.1214-.1375.1981-.3062.239-.4443.0137-.0461.005-.1077-.0172-.1232-.0223-.0156-.1523.0604-.3454.259-.1932.1985-.4122.2123-.6708.0873-.1473-.0472-.2277-.0478-.255.0443l-.2227-.1555c-.2004-.1399-.469-.0496-.7612.3021-.1077.0915-.1709.2141-.2118.3522.106-.0782.1967-.1475.2725-.2055h.0001c.1456-.1113.2363-.1806.2746-.1904.0582-.015.1386-.0144.2277.0478-.0632.1226-.135.1836-.2427.2751l.0891.0622.4295-.0891c.6621-.149.9975-.1926 1.0421-.1615.0445.031.1027.0161.1522-.0605zm-1.3196-2.5326c.2191-.0138.3491-.0897.3763-.1818l-.0445-.0311c-.0891-.0622-.1918-.0784-.3304-.064s-.255.0443-.385.1202c-.1077.0915-.1795.1526-.1931.1986.0984-.0147.1934-.0178.2883-.0209h.0001c.095-.0032.1899-.0063.2883-.021zm-1.2202.0372.1781.1243c.0137-.046-.0086-.0616-.0309-.0771-.0086-.0616-.0754-.1082-.1423-.1549-.0136.0461-.0272.0921-.0049.1077zm-5.2651.9919.3045-.1209-.0173-.1232c-.0445-.0311-.1027-.0161-.1745.0449-.0359.0305-.0854.1071-.1127.1992zm10.8506 18.6326c.6276-.3954.978-.762 1.0461-.9923l.0273-.0921c-.3949.3356-.8121.6555-1.202.8834l-.9062.701c.0668.0466.4072-.1047 1.0348-.5zm-16.58612-13.6906c.05817-.015.09407-.0455.1077-.0915l.02726-.0921-.08908-.0622c-.05817.0149-.09408.0455-.12998.076l-.01363.046c-.01363.0461-.00499.1077.01728.1232.02228.0155.04455.0311.08045.0006zm18.59592 13.9823c.0854-.1071.1349-.1836.1622-.2757l.01-.2153-.0619-.1543-.0545.1842c-.0409.1381-.1127.1991-.2377.1674-.1249-.0316-.1831-.0167-.2104.0754.0043.0308-.0003.0692-.005.1077-.0046.0384-.0093.0768-.005.1076.0044.0308.0177.054.031.0772.0133.0231.0265.0463.0309.0771.0222.0155.0804.0006.1386-.0144.0804.0006.1522-.0604.2018-.1369zm-1.7665-2.3965c.02-.0284.0383-.0543.0533-.0775l-.4308.366c-.0136.0461-.005.1077.0173.1232l.0581-.015c.0081-.0068.0173-.0129.0274-.0196.0349-.023.0809-.0534.1299-.1484.044-.0855.0989-.1634.1448-.2287zm-21.47747-12.4969c.06681.0466.10271.0161.1436-.122l.00998-.2153c-.02219.0188-.03917.0201-.06264.0218-.0145.0011-.03148.0024-.0537.0081-.02227-.0156-.05817.0149-.09906.1531zm-.5272-.0347c.04953-.0765.11269-.1991.15358-.3373.05452-.1842.05951-.2918.03724-.3074l-.13861.0144c-.29585.1824-.47536.3349-.50262.427l.06183.1543c.0359-.0305.04953-.0765.06316-.1226.01007-.0086.02121-.0207.03412-.0348l.00002-.0001c.03308-.0361.0777-.0849.14536-.1176l.08909.0622-.02726.0921c-.0409.1381-.03225.1997.01229.2308.01376.0096.02423-.0043.03869-.0235.00893-.0119.0194-.0258.03311-.0375zm22.11977 12.6084.6103-.5186c-.0222-.0155-.0804-.0006-.1745.0449-.0326.0084-.0696.0313-.1124.0578-.0334.0207-.0704.0437-.1116.0636-.0421.0357-.0765.0768-.105.1108-.0202.0241-.0374.0446-.0523.0573zm.8513.4831c.1522-.0604.26-.1519.2872-.244.0409-.1381.0236-.2613-.0741-.3851-.0086-.0616-.0532-.0927-.0977-.1238l.0173.1232c-.0273.0921-.2563.3211-.7094.6716-1.2293.9755-1.8619 1.4785-1.9028 1.6167.0668.0466.8962-.4857 2.4795-1.6586zm-3.8262-18.3962c.0669.0466.125.0317.1387-.0144l-.1064-.1853-.1163.0299-.0273.0921zm.7573.5286c.1113.0778.1918.0784.2326-.0598l.0273-.0921-.0891-.0622-.2327.0598c-.0136.0461-.005.1077.0619.1543zm-.4132-.5107 1.0248-.2847c-.0668-.0467-.25-.0634-.5631-.0042-.2995.0132-.4517.0736-.479.1657-.0136.0461-.005.1077.0173.1232zm-1.7787 21.2624c.1745-.0448.3627-.1357.5422-.2882l-.0446-.0311c-.0445-.0311-.1608-.0012-.3626.1357-.0582.015-.1077.0915-.135.1836zm2.0024-.0467.6067-.6878c-.3949.3355-.6103.5185-.6512.6567zm1.5161-20.5568c.0941-.0454.13-.0759.1436-.122-.0445-.0311-.0977-.1237-.1509-.2164-.0203-.0354-.0374-.0686-.052-.0969-.0236-.0458-.0406-.0789-.0544-.0885-.0222-.0156-.0718.061-.1127.1991-.0409.1382-.0904.2147-.1486.2297-.0445-.0311-.0668-.0467-.1027-.0162l.0818-.2763c-.0243-.0001-.052.0025-.0822.0053-.0695.0066-.1524.0145-.2396-.0076-.1027-.0162-.1608-.0012-.1881.0909l-.02.4306.0546-.1842c.0408-.1382.0767-.1687.1436-.122l.1509.2165c.0891.0621.1918.0783.2945.0944.1163-.0299.2104-.0753.2822-.1364zm-2.8128-.5745c.1609.0012.2549-.0443.2686-.0903l-.0669-.0467c-.1559-.1088-.2586-.1249-.3081-.0484-.0179.0153-.0415.0266-.065.038s-.047.0227-.065.038c.1114.0777.1782.1244.2364.1094zm.7472.7439c.0309.0772.0755.1083.1423.1549l-.0619-.1543c-.0086-.0616-.0309-.0771-.0531-.0927-.0087-.0616.005-.1076.0186-.1537l.1708-.2141-.089-.0622c-.1114-.0777-.2055-.0322-.2464.1059-.0408.1382-.0013.2769.1187.4162zm5.6646-.4351c.2995-.0132.4654-.1197.5199-.3039l.0273-.0921c-.2005-.1399-.5668-.1734-1.1126-.0543l-.4159.0431c.3786.2643.6954.3743.9813.4072zm-3.0355-.73c.1113.0777.1918.0783.2326-.0599l.0546-.1842c-.0223-.0155-.0668-.0466-.125-.0316-.0582.0149-.1164.0299-.1523.0604-.0137.0116-.0254.0166-.0354.0208-.0162.0068-.0279.0117-.0364.0402zm.9476.8838c.0891.0622.2909-.0748.5967-.4725l-.0173-.1232c-.0445-.0311-.1249-.0317-.219.0138-.0805-.0006-.1523.0604-.26.1519-.0718.061-.1213.1376-.1349.1836-.0409.1382-.0323.1998.0345.2464zm-.4008-.2798c.0359-.0305.1077-.0916.1881-.091l-.1782-.1243c-.5853-.0197-.8985.0395-.9394.1776l.2636.0174-.1672.3833.0446.0311c.1464-.0152.2642-.0348.3546-.0499.0807-.0135.1396-.0234.1776-.0231.094-.0454.1436-.122.1572-.168.0273-.0921.0632-.1226.0991-.1531zm-.0642-.6005c.0359-.0305.0718-.061.1214-.1375l.0099-.2153c-.0668-.0467-.125-.0317-.1658.1064-.0273.0921-.0187.1537-.01.2153l.0222.0156zm2.6201-.2268c.3354-.0437.5235-.1346.5371-.1807-.0668-.0466-.5494-.0502-1.5061.0043s-1.4443.1586-1.4852.2968l.0891.0622c.1284-.0101.2642-.0222.4059-.0347.2531-.0224.5248-.0464.8057-.0641.1132-.0071.2225-.0132.3281-.0191.3034-.017.5766-.0323.8254-.0647zm.5828 31.0792.099-.1531c.0546-.1842.0373-.3074-.0518-.3696l-.0718.061c.0086.0616-.0186.1537-.0459.2458-.005.1076.0037.1692.0705.2159zm1.0904-3.6841c.0668.0467.0482.2004-.0472.5227-.0277.0538-.0485.1017-.0673.1449v.0001c-.0241.0554-.0449.1033-.0727.1463-.0136.0461-.0904.2147-.2526.4904-.0223-.0155-.0309-.0771-.0482-.2003.0186-.1537.0372-.3074.0917-.4916.0546-.1842.1041-.2608.1264-.2452l.0668.0466c.0222.0156.0631-.1226.1313-.3528zm.3208-.7206-.0682.2302c-.0272.0921-.0768.1687-.1263.2452l-.0445-.031c.0186-.1538.0508-.3535.0917-.4917l.1845-.2601c.0223.0155.0173.1232-.0372.3074zm.4039-1.2739c.0086.0616-.005.1077-.0323.1998l-.1436.122c-.0222-.0156-.0309-.0772.01-.2153.0273-.0921.0768-.1687.1709-.2141.0223.0155.0086.0616-.005.1076zm.1822-.7063c.0086.0616.0036.1693-.0236.2614-.0855.107-.1436.122-.1882.0909l.0954-.3224c.0137-.046.0496-.0765.1164-.0299zm-.4586 5.1809c.0087.0616-.0186.1537-.0595.2919l-.4571 1.1811c-.1994.5831-.3716 1.0742-.5116 1.3654-.1168.2432-.4945.9242-1.1198 2.0522l-.3997.721-.4694.9504c-.4371.7505-.6934 1.0717-.7825 1.0095-.0668-.0466-.0569-.2619-.0146-.677.1226-.4144.3617-.8588.7084-1.3947.3603-.5819.5721-.9341.6402-1.1644.0682-.2302.145-.3989.2663-.5365l.1263-.2452.0409-.1381c.0137-.0461-.0086-.0616-.0309-.0772l-.2327.0599-.1708.2141-.0173-.1232c.2167-.4599.4248-.9814.6107-1.5185l.0408-.1382c.0137-.046-.0086-.0615-.0309-.0771-.0222-.0155-.0036-.1692.0782-.4455.0817-.2764.1004-.43.0558-.4611-.0135-.0339-.0297-.0588-.0443-.0814-.0187-.0289-.0349-.0539-.0398-.0885l.2872-.244c.135-.1836.2613-.4288.3654-.6896l-.0891-.0622c-.0668-.0466-.0755-.1082-.0346-.2464.0545-.1842.14-.2912.27-.3672l.089.0622-.1263.2452c.1436-.122.2649-.2595.3554-.4743.2254-.3983.5325-1.0729.8856-1.9933.0409-.1381.0458-.2458.0508-.3534.005-.1077.01-.2153-.0209-.2925l.0136-.046c.0137-.0461.0359-.0305.1027.0161.0669.0466.125.0317.1609.0012s.1127-.1992.1809-.4294c.4375-1.7505.6569-2.7642.6669-2.9795-.0087-.0616-.0173-.1232-.0619-.1543-.0817.2763-.2008.86-.3706 1.7971-.0409.1382-.0905.2147-.1264.2452l-.2004-.1399c-.0891-.0622-.0927-.2314-.0246-.4617.1041-.2607.1858-.537.2813-.8594.0539-.1407.1004-.275.1435-.3999.051-.1474.0974-.2817.1463-.3979.0905-.2147.1673-.3834.2032-.4139.0377.0542.0788.0968.12.1394.0411.0426.0822.0852.1199.1393.0978.1238.1373.2625.141.4318.0159.4001-.1985 1.3061-.6483 2.8258-.0954.3224-.1277.5221-.119.5837.0445.0311.0668.0466.0754.1082l-.1436.1221c-.0359.0305-.1944.4754-.4398 1.3043-.1499.5066-.2726.921-.3903 1.2278-.0954.3224-.2267.6752-.3939 1.0586l.0073.3385.0445.0311c.0359-.0305.0632-.1226.0768-.1687.0217-.0335.0392-.0701.0549-.1031.0202-.0423.0377-.0789.0578-.096.0496-.0766.0855-.1071.1077-.0915.0223.0155.0087.0616-.005.1076zm-4.3531 8.352c.0086.0616.0037.1693-.01.2153l-.1436.122c-.0223-.0155-.0309-.0771.01-.2153.0409-.1381.0768-.1686.1436-.122zm-7.1736-15.6211c.2859.0329.4777.1112.5668.1734l-.2327.0598-.4777-.1112zm-12.16594-23.2232-.06457.1409c-.02897.0025-.05573-.0402-.10924-.1255-.02455-.088-.04909-.1759-.04466-.2664l.11587-.0102c.08249.0828.10703.1707.1026.2612zm-.4635.0409-.06458.1409c-.02897.0025-.05572-.0402-.10924-.1255-.02454-.088-.04908-.1759-.04466-.2664l.11588-.0102zm5.21814 17.1533c.0224.1332.0179.2236.0135.3141l-.0535-.0853c-.0825-.0829-.107-.1708-.1026-.2613.0022-.0452.0334-.093.0624-.0956.0289-.0025.0557.0401.0802.1281zm3.8737 21.6416c-.0155.3167-.0511.455-.08.4576l-.0491-.1759c.0088-.181.0422-.274.1291-.2817zm2.9413 12.3989-.0623.0956-.0447-.2663c.0051-.103.0255-.1814.073-.2166.0229.0878.0424.2162.034.3873zm-.6983 4.2512c-.0913.0981-.1514.1485-.1804.1511l.0668-.1861c.1871-.2868.314-.5233.3518-.7068l.0133-.2715c.0134.0214.0273.0314.0413.0414.0139.0101.0278.0201.0412.0414.0557.0402.0781.1733.0714.3091-.0066.1357-.04.2287-.1314.3269-.0935.1434-.1848.2416-.274.2945zm-14.94793-11.6543-.06237.0956c-.02896.0025-.08026-.1281-.15611-.3466-.04687-.2211-.09817-.3517-.18507-.3441-.08691.0077-.11145-.0802-.1026-.2612l.00664-.1357c.00221-.0453.03118-.0478.06015-.0504s.08469.0376.16496.1656c.08027.1281.15832.3014.20962.432.04909.1759.07142.309.06478.4448zm.27641.2459-.12916.2817c-.0869.0076-.11366-.0351-.10702-.1708s.03782-.1835.12473-.1912zm1.12454 4.1352c.05352.0854.07806.1733.07142.3091-.02897.0025-.0847-.0376-.16496-.1657-.05352-.0853-.10702-.1707-.15832-.3013-.00853-.0509-.01739-.0952-.02495-.133-.01223-.0611-.02108-.1054-.01971-.1334.05794-.0051.16717.1204.29652.4243zm2.54222 5.2265-.05794.0051c-.02897.0025-.16496-.1657-.40798-.5046-.24523-.2937-.35226-.4644-.35004-.5097.05794-.0051.14263.0325.28084.1554.1382.123.24523.2937.35225.4645.13599.1682.18729.2988.18287.3893zm.43212-.5788c.08027.1281.13157.2587.12714.3492l-.11145-.0803c-.03239-.0233-.07306-.0763-.12289-.1413-.03592-.0468-.07659-.0998-.12234-.1524-.04172-.0479-.07954-.0896-.11185-.1252-.05226-.0577-.09009-.0994-.10662-.1258l-.0513-.1306c.02897-.0025.11366.035.19614.1179.11145.0802.2229.1605.30317.2885zm1.67839 1.0682-.05794.0051c-.41019-.4593-.59969-.7129-.59527-.8034.14485-.0128.36332.2382.65321.7983zm7.37325-2.1376c-.0022.0453-.0334.0931-.0624.0957l-.1561-.3467.0624-.0956c.0267.0427.0267.0427.0557.0402.0134.0213.0195.0433.0257.0653.0061.022.0122.0439.0256.0653.0268.0427.0513.1306.0491.1758zm-.1318-.8442c-.0066.1357-.04.2287-.069.2313l-.0469-.2211.0668-.1861c.029-.0026.0558.0401.0491.1759zm-.0314-.5379c-.0066.1358-.0378.1836-.0667.1861-.087.0077-.1049-.216-.1139-.6206l-.0068-.4499c.0289-.0025.0557.0402.0802.1281l.067.3995c.0223.1332.0447.2664.0402.3568zm-.3707-2.4449c.0402.3569.0805.7137.1497 1.068-.058.0051-.1294-.3039-.2455-.8793-.0468-.2211-.0625-.49-.0515-.7163.058-.0051.1071.1708.1473.5276zm-.0473-1.3923c-.0066.1357-.0668.1861-.1826.1963-.087.0077-.1383-.1229-.1562-.3466s-.038-.4021-.0625-.49c.0022-.0452.0044-.0905-.0223-.1332l.2162.2963c.1338.2134.2141.3415.2074.4772zm-.413-2.1709.1141 1.2062c-.029.0026-.0825-.0828-.1583-.3013-.0491-.1759-.096-.397-.1407-.6634-.0179-.2237-.0358-.4473-.0291-.583.0066-.1357.0378-.1835.0668-.1861.0289-.0026.0847.0376.107.1707.0046.0278.0094.0537.014.0784.0172.0936.0315.1711.0262.2785zm-.4842-1.8943c.1117.6658.1786 1.0653.172 1.2011-.029.0025-.0781-.1733-.145-.5729-.5066-2.0275-.7343-3.2687-.7122-3.7211.029-.0026.107.1707.2074.4772.3012.9194.4374 1.6732.413 2.1709zm-.7922-3.2637-.029.0026c-.0289.0025-.0267-.0427-.0201-.1785.0089-.1809.0423-.274.0712-.2765.0869-.0077.1137.035.1071.1707-.0089.181-.0423.274-.1292.2817zm.0599-.636-.0289.0026c-.029.0026-.058.0051-.1137-.035-.0267-.0427-.0535-.0854-.0513-.1306.0089-.181.0423-.2741.1292-.2817.0869-.0077.1114.0802.1026.2612-.0067.1357-.0089.181-.0379.1835zm-.2253-.7008c-.0311.0478-.0623.0956-.0913.0981-.0869.0077-.1338-.2134-.1139-.6206.02-.4072-.0002-.5856-.0871-.5779-.0579.0051-.1337-.2135-.2275-.6557-.0042-.0372-.0085-.0724-.0126-.1062-.0156-.1279-.0284-.2337-.0232-.3411.0268.0427.0825.0828.1382.1229.0557.0402.0803.1281.0736.2638l.2008.613c.1495.4823.2187.8366.2076 1.0628-.0022.0453-.0334.0931-.0646.1409zm-.5335-2.6558-.0579.0051c-.029.0025-.0847-.0376-.1382-.123-.0535-.0853-.107-.1707-.1294-.3039-.0085-.0508-.0173-.0951-.0249-.1329v-.0001c-.0122-.0611-.0211-.1054-.0197-.1333l.0579-.0052c.2207.2058.3233.467.3122.6933zm-.3953-2.5329-.0619 1.2668c-.0224-.1332-.1004-.3065-.1807-.4345-.0802-.1281-.1004-.3065-.0937-.4422l.0088-.181c.0312-.0478.1203-.1007.3275-.2091zm-.6357-1.7458c.0715.309.0849.6232.0739.8494l-.2656-1.0577c-.1651-.7513-.2567-1.2387-.2456-1.4649.0022-.0453.0334-.0931.0624-.0957.0513.1307.1026.2613.1205.4849-.0023.0453-.0045.0905.0223.1332.0267.0427.0535.0854.1114.0803l.0491.1758c-.0133.2715.0002.5856.0716.8947zm-.4934-2.8846c.0714.309.0915.4875.0871.5779-.029.0026-.1093-.1255-.2096-.4319-.2298-.6104-.4261-1.3139-.5913-2.0651-.0714-.3091-.1161-.5754-.1072-.7564l.1114.0803c.1338.2134.3503 1.0953.7096 2.5952zm-1.9612-7.0797c.1092.1256.1561.3467.1428.6181l-.1473-.5276zm-.88157-3.7963c.07142.309.08932.5327.08047.7137l-.37478-1.1832-.38605-1.5426.05794-.0052.17844.4798c.12714.3492.20519.5225.23416.5199l.08691-.0076c-.00885.1809.03138.5378.12291 1.0252zm5.70857-8.7928c-.0602.0503-.234.0657-.4947.0887l.3521-.1212.2317-.0205zm2.231.9743-.1782.1058c-.0869.0077-.1137-.035-.1071-.1708l.1203-.1007zm-.4836-.1375c-.0067.1357-.0958.1886-.2986.2065-.2317.0205-.3454-.0146-.3387-.1503l.5258-.1365c.0869-.0077.1137.035.1115.0803zm-8.33829 1.8172c-.00663.1358-.12473.1912-.32751.2091l.00885-.1809zm-6.34402 1.1457c.28969-.0256.43675-.0836.43896-.1288-.17382.0153-.32088.0733-.43896.1288zm16.61561 33.5808.0781.1733.1335-.3722-.0535-.0853c-.0869.0076-.1493.1032-.1581.2842zm-1.679-9.3119c.0246.0879.0513.1306.0803.128l.0624-.0956-.1384-.7085-.0668.1861c-.0044.0904-.0089.1809.0157.2689.0107.0385.0159.0776.0206.1129.006.0452.0112.0842.0262.1082zm2.3451 15.1544.0446.2664.0624-.0956c.0088-.181-.0135-.3142-.0403-.3569zm-.405-4.6943.4023 3.5684.0266-.543c-.0404-.9424-.1209-1.6561-.237-2.2315-.0346-.1552-.0629-.2879-.0864-.3978-.0567-.2653-.085-.3979-.1055-.3961zm-.4198-2.6208.0446.2664.0624-.0956.0177-.362c-.0869.0077-.1181.0555-.1247.1912zm-4.6491-14.6357c-.0066.1357.0201.1784.107.1707l.0624-.0956-.6962-2.8667c-.018-.2236-.0381-.402-.0604-.5352s-.0469-.2211-.0758-.2185l-.1827.1963.0177-.362c.0066-.1357-.0201-.1784-.107-.1707-.0869.0076-.1225.1459-.1336.3722l.0827.6684.2967 1.0099c.3213 1.0978.4953 1.6681.5243 1.6656l.0869-.0077c.0579-.0051.0847.0376.078.1733zm-2.5037-16.6271c.078.1733.1315.2587.1605.2561.0044-.0904-.0201-.1784-.0446-.2663h-.0001c-.0245-.088-.049-.1759-.0758-.2185-.0267-.0427-.0535-.0854-.0825-.0829-.0066.1358.0179.2237.0425.3116zm.7542 2.8616c.0491.1759.1026.2612.1605.2561.0022-.0452-.0223-.1331-.0469-.221v-.0001c-.0245-.0879-.0491-.1759-.0758-.2185v-.0001c-.0268-.0426-.0535-.0853-.0825-.0828-.0066.1358.0179.2237.0447.2664zm3.2432 15.6608c.0803.1281.1338.2134.2185.251.006-.123-.0319-.316-.0905-.6146l-.0189-.0965c-.0692-.3543-.1473-.5276-.1763-.525l-.1291.2817.0849.6231c.0267.0427.0267.0427.0245.088.0268.0427.0535.0853.0825.0828zm-.3104-1.9097c-.0088.181.0157.2689.1026.2613.029-.0026.029-.0026.0312-.0479.029-.0025.0312-.0477.0356-.1382l-.0711-.3963v-.0001c-.2605-1.4526-.4669-2.6032-.6656-3.4128-.3593-1.4999-.6113-2.2435-.7851-2.2281-.058.0051-.0892.0529-.0958.1886-.0066.1358.0201.1785.078.1733l.1204-.1007-.0377.7692.1827-.1964-.0934.7291.1248-.1912c.0579-.0052.1114.0802.1293.3039.0469.2211.0648.4447.0493.7614s.0046.4952.0336.4926c.0579-.0051.1159-.0102.1426.0325.0558.0401.0825.0828.0781.1733-.0022.0452-.0334.093-.0913.0981-.058.0051-.0892.0529-.0936.1434-.0032.0663.0091.1311.0246.2134.0057.0301.0119.0625.0179.0982.0223.1332.0714.3091.1472.5276.0759.2186.1561.3466.2141.3415l.0066-.1357c.0869-.0077.1605.2561.2231.7461.0179.2237.0336.4926.0137.8998l.1871-.2869zm-.509 3.9191c.1093.1255.2229.1605.3098.1529.029-.0026.0602-.0504.0624-.0956.0022-.0453-.0758-.2186-.2386-.4295-.1627-.2108-.2319-.5651-.2366-1.0602-.0157-.269-.038-.4021-.0959-.397l.0221-.4524c.0199-.4072-.105-.8016-.3792-1.0928-.0803-.128-.165-.1656-.2519-.1579.0726.1324.1359.2445.1889.3382.1018.1799.1651.292.1813.3499.0245.0879.0469.2211.038.402-.0847-.0375-.1382-.1229-.2185-.251l-.0088.181.1696.6608c.2677 1.0124.386 1.5426.3816 1.6331s.0201.1784.0758.2185zm1.0105-3.5579c.0692.3543.1473.5276.2052.5224l.0045-.0904c.0088-.181-.0113-.3594-.0582-.5805-.0468-.2211-.0959-.397-.174-.5703-.0803-.1281-.1338-.2134-.1627-.2109.0357.1545.0641.3097.0926.4648.0285.1552.0569.3104.0926.4649zm-.3639-1.9951-.0177.362c.029-.0026.0312-.0478.0334-.0931.0312-.0478.0378-.1835.0445-.3192-.029.0025-.058.0051-.0602.0503zm-2.0239-8.1552.1516.4371.0624-.0956c.0044-.0905-.0201-.1785-.0736-.2638-.0268-.0427-.0825-.0829-.1404-.0777zm-7.11268 28.0623c.39248.8213.69122 1.2004.83607 1.1876l.05794-.0051c-.29432-.4696-.58642-.9844-.82058-1.5043l-.63772-1.1149c-.00664.1357.1718.6155.56429 1.4367zm2.8005-34.8443c.02455.0879.0513.1306.08027.128l.05794-.0051.00885-.181c-.02454-.0879-.0513-.1306-.07805-.1733l-.02897.0026c-.02897.0025-.06016.0503-.06237.0956-.00221.0452-.00442.0905.02233.1332zm-2.39375 38.3222c.08249.0828.13821.1229.19615.1178l.1203-.1007.06679-.1861-.11588.0103c-.0869.0076-.14041-.0778-.15832-.3014-.0179-.2237-.04244-.3116-.10038-.3065-.01559.0239-.03788.0371-.06016.0504-.02228.0132-.04455.0264-.06014.0503s-.0245.0585-.0334.0931c-.0089.0345-.0178.0691-.03339.093-.00222.0453.02232.1332.04687.2211.02233.1332.07584.2186.13156.2587zm-.9994-49.1496c-.00221.0452.02454.0879.10924.1255l.05794-.0052c.0869-.0076.11809-.0554.1203-.1007.00221-.0452-.02454-.0879-.0513-.1306s-.08248-.0828-.11145-.0802l-.12252.1459zm1.8098 44.9278c.02109.0176.04042.0336.05729.0458l-.32107-.5122c-.02897.0025-.06016.0503-.06237.0956l.02454.0879c.00602.0096.01192.0215.01842.0345.02241.0452.05192.1046.11758.1337.05905.0262.11703.0744.16561.1147zm-.0095.2319.45485.7256c.00221-.0452-.02233-.1331-.07363-.2637-.01378-.0494-.03668-.0979-.06319-.1541l-.00004-.0001c-.02071-.0439-.04363-.0925-.06612-.1498-.03135-.05-.06346-.0845-.09005-.113-.01881-.0202-.03486-.0375-.04595-.0551zm-.02395 1.6689c.07584.2185.15611.3466.21405.3415.0869-.0077.14927-.1033.1893-.3321.03119-.0478.03561-.1383.04004-.2287l-.06237.0956c-.05793.0051-.24744-.2485-.5663-.806-.87852-1.4991-1.33116-2.27-1.41806-2.2623-.00664.1357.51741 1.2156 1.60334 3.192zm8.96178-16.3329c-.0066.1358.0179.2237.0469.2211l.0712-.2765-.0491-.1759-.0579.0051zm-.0753 1.5383c-.011.2262.0113.3594.0982.3517l.058-.0051.0088-.1809-.0982-.3518c-.0289.0026-.0601.0504-.0668.1861zm.1624-.9603.444 1.5375c.0066-.1358-.0358-.4473-.1563-.9322-.0916-.4875-.1674-.706-.2253-.7009-.029.0025-.0602.0503-.0624.0956zm-12.10428 8.6367c.07363.2638.17623.525.31001.7384l.00442-.0904c.00443-.0905-.04466-.2664-.17622-.5251-.02455-.0879-.08027-.128-.13821-.1229zm.58943 3.2815.54618.6275c-.29431-.4695-.45485-.7256-.54176-.7179zm11.64515-8.6862c.0513.1306.0781.1733.1071.1707.0044-.0905.04-.2288.0756-.3671.0136-.0528.0269-.099.0382-.1385.0184-.0639.0317-.1101.033-.138.0022-.0453-.0535-.0854-.1404-.0777-.0869.0076-.1426-.0325-.1672-.1204.0045-.0905.0067-.1358-.0201-.1784l.1738-.0154c-.0067-.0403-.0159-.0845-.026-.1328-.0232-.1112-.0508-.2439-.0633-.3999-.0201-.1784-.0446-.2663-.1026-.2612l-.2406.2014.1159-.0102c.0869-.0077.1137.035.107.1707l-.0756.3671c-.0089.181.0112.3594.0313.5378.0491.1759.1004.3065.1539.3919zm-.4785-4.9582c.0446.2664.0959.397.1249.3944l.0066-.1357c.0155-.3167-.0046-.4951-.0603-.5352-.0134-.0214-.0262-.054-.039-.0867-.0129-.0326-.0257-.0653-.0391-.0866-.011.2262-.0177.3619.0069.4498zm-.1956 1.639c-.0334.0931-.0378.1836-.0444.3193l.0668-.1861c.0311-.0478.0334-.093.0356-.1383.0311-.0478.0601-.0503.0891-.0529l.1649.1656.0089-.1809c.0111-.2263-.0402-.3569-.1271-.3492s-.1515.1485-.1938.4225zm1.8327 9.1182c.0915.4875.1963.7035.3122.6932l.0579-.0051c.02-.4072-.0649-1.0304-.2836-1.867l-.1406-.6633c-.0377.7692-.0085 1.3522.0541 1.8422zm-.4565-5.4105c-.011.2262.0113.3593.0982.3517l.1159-.0103c.0022-.0452.0066-.1357-.0179-.2236-.0246-.0879-.0491-.1759-.0759-.2186-.0102-.0163-.0162-.0329-.0213-.0472-.0083-.023-.0143-.0397-.0322-.0381zm-.2154 2.0462c-.0089.1809.1227.4396.4259.7282l.0623-.0956c.0044-.0905-.0179-.2237-.0692-.3543-.0223-.1332-.0758-.2185-.1561-.3466-.0535-.0854-.1092-.1255-.1382-.1229-.0869.0076-.1181.0554-.1247.1912zm.0398-.8144c.0268.0427.0803.128.1026.2612l.0177-.362c-.1541-.9774-.2746-1.4623-.3615-1.4546l.0648.4447-.2563-.0674-.0044.0905c.0495.2335.0934.4173.1271.5584v.0001c.0301.1259.052.2178.0626.2806.0513.1306.107.1708.136.1682.0579-.0051.0847.0376.1114.0803zm.3096-.4328c.0268.0427.0535.0854.1093.1255l.1203-.1007c.0066-.1357-.0179-.2237-.1049-.216-.0579.0051-.0891.0529-.1203.1007l-.0022.0453zm.8616 4.2035c.1183.5302.2209.7914.2499.7888.0066-.1357-.1274-.9347-.4265-2.485s-.4933-2.299-.5802-2.2913l-.0088.181c.0416.2065.0865.4243.1332.6515v.0001l.0004.0018c.0834.4053.1729.8403.2615 1.2938.0357.1831.0699.3603.1028.5316.0947.4916.18.9346.2677 1.3277zm-16.79648 17.8805.11145.0802c.11588-.0102.17825-.1058.1871-.2868l-.05352-.0854c-.03118.0478-.08911.053-.14705.0581-.06015.0503-.09134.0981-.09798.2339zm2.31753-.2046c-.00664.1357-.09576.1886-.29854.2065-.03714-.0165-.06913-.0247-.09805-.0322-.03703-.0096-.06902-.0178-.10031-.0404-.02897.0026-.14263-.0324-.33878-.1503.00222-.0452.0334-.093.09576-.1886.08912-.0529.17824-.1058.29412-.1161.11588-.0102.1716.0299.16939.0752l-.00664.1357c-.00221.0453.08469.0376.22954.0248zm.48362.1375-.14484.0128c-.05794.0051-.11367-.0351-.16939-.0752l.00442-.0905c.08912-.0529.20721-.1084.29412-.116l.19393.163c-.00221.0453-.06236.0956-.17824.1059zm.80892-.0264c-.03118.0478-.06015.0504-.11809.0555l-.10702-.1708c.00221-.0452.0334-.093.1203-.1007.05794-.0051.11366.035.16496.1656-.00221.0453-.03118.0479-.06015.0504zm.43675-.0836c-.03118.0478-.09133.0982-.14927.1033-.08248-.0829-.10702-.1708-.1026-.2613l.20279-.0179c.02896-.0025.05572.0402.04908.1759zm-2.95646 2.0629c-.03118.0478-.08912.0529-.17603.0606l-.77331-.1119c-.37439-.012-.690835-.0291-.889192-.1017-.165561-.0606-.643227-.3133-1.434289-.7318l-.000556-.0003-.002682-.0014c-.155795-.0825-.323721-.1713-.503791-.2664l-.6508-.2579c-.53271-.3133-.78015-.5618-.7713-.7427.00664-.1358.12694-.2365.36534-.3927.26072-.023.57052.1298.9606.4107.419044.2784.67091.4364.815757.4236.144844-.0128.258506.0222.367744.1477l.16939094.0751.08690836-.0076c.0289657-.0026.0311797-.0478.0333947-.0931l-.0981731-.3517-.1649609-.1656.0623642-.0956c.3120198.1076.6552238.1674 1.0006388.1819l.086906-.0077c.02897-.0025.03118-.0477.0334-.093.00221-.0452.09133-.0982.26515-.1135.17381-.0153.26293-.0683.26735-.1588.01465-.0407.02372-.0811.03192-.1175.0105-.0466.01958-.0869.03709-.1138l.21405.3415c.1382.123.30759.1981.47919.228l.00886-.181c.00663-.1357.03781-.1835.12472-.1912.11588-.0102.19836.0726.27642.2459l-.00886.181-.16939-.0752c.10703.1708.21626.2963.3589.3287.28084.1554.73549.2955 1.3372.3775.08691-.0077.14706-.058.20721-.1084.06015-.0503.1203-.1007.1537-.1937l.02897-.0026c.02896-.0025.02675.0427.02011.1784-.00664.1358.01791.2237.04466.2664.02676.0427.14042.0777.28527.0649 1.07849-.2304 1.69348-.4198 1.81378-.5205.03118-.0478.06237-.0956.06679-.1861-.17381.0153-.52587.1365-1.08513.3661-.08691.0076-.14263-.0325-.16939-.0752l.01992-.4072c.00885-.1809.10019-.2791.24503-.2919.1716.0299.34542.0146.5482-.0033.09198.0125.17833.0161.25863.0194h.00012.00014c.0947.0039.18097.0075.25813.025.14263.0325.25629.0675.28305.1102-.01891.0917-.03057.1828-.04224.2739l-.00001.0001c-.01167.0911-.02334.1822-.04225.274-.04003.2288-.10461.3696-.19594.4678-.21385.2441-.76869.3832-1.72467.4676-.20278.0179-.32087.0734-.35205.1212-.00443.0905-.00664.1357-.03783.1835l-.10702-.1707c-.02676-.0427-.31423-.0624-.83568-.0164-.31866.0282-.57938.0512-.77995.0238-.20278.0179-.43232-.0068-.68862-.0743l-.18266.1963-.00443.0905c.02676.0427.08469.0376.11366.035.02443.0176.04929.0265.07176.0345.02878.0103.05364.0192.06866.0432.05573.0401.08248.0828.08027.1281-.00221.0452-.03118.0478-.06015.0503zm-5.78374-2.6428c-.03118.0478-.09134.0982-.12031.1008l-.10702-.1708c.00222-.0452.0334-.093.1203-.1007.08691-.0077.11367.035.10703.1707zm6.50465-20.3504c.06256.49.07383.8494.06498 1.0303l-.09818-.3517-.07382-.8494z" fill="#fff" fill-rule="evenodd"/></g><path d="m9.06537 23.303c-.20738.0926-.81156.1928-1.81255.3005-.95952.0893-1.51312.3606-1.66082.8139-.21244.8697.10344 1.3824.94763 1.5383.14972.0301.28502.0907.40591.1821.12089.0913.20839.1491.26252.1734.09559.0057.24708-.0377.45446-.1302.63479-.2349 1.06118-.6189 1.27919-1.1521.25948-.5516.3007-1.1269.12366-1.7259z" class="check" fill="#fff"/></svg>
