<svg fill="none"  viewBox="0 0 34 34"  xmlns="http://www.w3.org/2000/svg"><path clip-rule="evenodd" d="m24.6035 25.3179c-2.0042 1.8332-4.6733 2.9515-7.6035 2.9515-6.2239 0-11.26943-5.0455-11.26943-11.2694 0-2.9302 1.11835-5.5992 2.9515-7.60353zm2.3141-2.9617-15.2738-15.27385c1.5931-.86223 3.4175-1.35178 5.3562-1.35178 6.2239 0 11.2694 5.04553 11.2694 11.26943 0 1.9387-.4895 3.7631-1.3518 5.3562zm5.0824-5.3562c0 8.2843-6.7157 15-15 15-8.28427 0-15-6.7157-15-15 0-8.28427 6.71573-15 15-15 8.2843 0 15 6.71573 15 15z" fill="#fa1d52" fill-rule="evenodd"/></svg>