<svg fill="none"  viewBox="0 0 34 34"  xmlns="http://www.w3.org/2000/svg"><path d="m17.0067 34-.8368-.6773c-.126-.1063-3.2007-2.5966-6.31532-6.1693-4.28968-4.9338-6.46786-9.3565-6.46786-13.1549v-.3785c0-7.51062 6.10937-13.62 13.61998-13.62 7.5104 0 13.6198 6.10938 13.6198 13.62v.3785c0 3.7984-2.1782 8.2276-6.4746 13.1549-3.1143 3.5727-6.1823 6.0697-6.3151 6.1693zm0-31.34375c-6.0429 0-10.96373 4.92081-10.96373 10.96375v.3785c0 6.4214 8.26753 14.191 10.96373 16.5484 2.6895-2.3574 10.9636-10.127 10.9636-16.5484v-.3785c0-6.04294-4.9206-10.96375-10.9636-10.96375zm1.5274 13.22155v-3.0546h-3.0547v3.0546zm6.1158 0v-3.0546h-3.0546v3.0546zm-3.0611-6.10934h-3.0547v3.05474h3.0547zm-9.1641 6.10934v-3.0546h-3.05467v3.0546zm3.0547-6.10934h-3.0547v3.05474h3.0547z" fill="#fa1d52"/></svg>